SplineFontDB: 3.2
FontName: Gontserrat-Light
FullName: Gontserrat Light
FamilyName: Gontserrat
Weight: Light
Copyright: Gontserrat is a derivative work of Montserrat under the Open Font License, version 1.1. Copyright 2020 Gabriel Classon (gabeclasson.com). Montserrat copyright 2011 The Montserrat Project Authors (https://github.com/JulietaUla/Montserrat). 
Version: 7.222
ItalicAngle: 0
UnderlinePosition: -100
UnderlineWidth: 50
Ascent: 800
Descent: 200
InvalidEm: 0
sfntRevision: 0x00010000
LayerCount: 2
Layer: 0 1 "Back" 1
Layer: 1 1 "Fore" 0
XUID: [1021 930 -1503615855 17388]
StyleMap: 0x0040
FSType: 0
OS2Version: 4
OS2_WeightWidthSlopeOnly: 0
OS2_UseTypoMetrics: 1
CreationTime: 1485852831
ModificationTime: 1642923020
PfmFamily: 81
TTFWeight: 300
TTFWidth: 5
LineGap: 0
VLineGap: 0
Panose: 0 0 4 0 0 0 0 0 0 0
OS2TypoAscent: 968
OS2TypoAOffset: 0
OS2TypoDescent: -251
OS2TypoDOffset: 0
OS2TypoLinegap: 0
OS2WinAscent: 1177
OS2WinAOffset: 0
OS2WinDescent: 496
OS2WinDOffset: 0
HheadAscent: 968
HheadAOffset: 0
HheadDescent: -251
HheadDOffset: 0
OS2SubXSize: 650
OS2SubYSize: 600
OS2SubXOff: 0
OS2SubYOff: 75
OS2SupXSize: 650
OS2SupYSize: 600
OS2SupXOff: 0
OS2SupYOff: 350
OS2StrikeYSize: 50
OS2StrikeYPos: 314
OS2CapHeight: 700
OS2XHeight: 524
OS2Vendor: 'ULA '
OS2CodePages: 20000193.00000000
OS2UnicodeRanges: 20000007.00000001.00000000.00000000
Lookup: 1 0 0 "'rtla' Right to Left Alternates in Latin lookup 0" { "'rtla' Right to Left Alternates in Latin lookup 0 subtable"  } ['rtla' ('DFLT' <'dflt' > 'latn' <'dflt' > ) ]
Lookup: 1 0 0 "<10,2> Inferiors lookup 1" { "<10,2> Inferiors lookup 1 subtable" ("inferior") } [<10,2> ('DFLT' <'dflt' > ) 'subs' ('DFLT' <'dflt' > ) ]
Lookup: 1 0 0 "<10,1> Superiors lookup 2" { "<10,1> Superiors lookup 2 subtable" ("superior") } [<10,1> ('DFLT' <'dflt' > ) 'sups' ('DFLT' <'dflt' > ) ]

StartChar: .notdef
Encoding: 65536 -1 0
Width: 587
Flags: W
LayerCount: 2
Fore
SplineSet
40 0 m 1,0,-1
 40 700 l 1,1,-1
 547 700 l 1,2,-1
 547 0 l 1,3,-1
 40 0 l 1,0,-1
120 70 m 1,4,-1
 467 70 l 1,5,-1
 467 630 l 1,6,-1
 120 630 l 1,7,-1
 120 70 l 1,4,-1
EndSplineSet
EndChar

StartChar: exclam
Encoding: 33 33 5
Width: 201
Flags: W
LayerCount: 2
Fore
SplineSet
76 687 m 1,0,-1
 141 687 l 1,1,-1
 141 519 l 1,2,-1
 131 205 l 1,3,-1
 85 205 l 1,4,-1
 76 519 l 1,5,-1
 76 687 l 1,0,-1
140 70 m 128,-1,7
 153 57 153 57 153 38 c 256,8,9
 153 19 153 19 140 5.5 c 128,-1,10
 127 -8 127 -8 108 -8 c 256,11,12
 89 -8 89 -8 76.5 5 c 128,-1,13
 64 18 64 18 64 38 c 0,14,15
 64 57 64 57 76.5 70 c 128,-1,16
 89 83 89 83 108 83 c 256,17,6
 127 83 127 83 140 70 c 128,-1,7
EndSplineSet
Substitution2: "<3,3> Small Caps in Latin lookup 11 subtable" exclam.sc
EndChar

StartChar: numbersign
Encoding: 35 35 7
Width: 716
Flags: W
LayerCount: 2
Fore
SplineSet
674 452 m 1,0,-1
 527 452 l 1,1,-1
 501 243 l 1,2,-1
 645 243 l 1,3,-1
 641 191 l 1,4,-1
 494 191 l 1,5,-1
 471 0 l 1,6,-1
 419 0 l 1,7,-1
 442 191 l 1,8,-1
 233 191 l 1,9,-1
 210 0 l 1,10,-1
 158 0 l 1,11,-1
 181 191 l 1,12,-1
 37 191 l 1,13,-1
 41 243 l 1,14,-1
 188 243 l 1,15,-1
 214 452 l 1,16,-1
 70 452 l 1,17,-1
 73 504 l 1,18,-1
 220 504 l 1,19,-1
 244 699 l 1,20,-1
 296 699 l 1,21,-1
 272 504 l 1,22,-1
 481 504 l 1,23,-1
 505 699 l 1,24,-1
 557 699 l 1,25,-1
 533 504 l 1,26,-1
 677 504 l 1,27,-1
 674 452 l 1,0,-1
449 243 m 1,28,-1
 475 452 l 1,29,-1
 266 452 l 1,30,-1
 240 243 l 1,31,-1
 449 243 l 1,28,-1
EndSplineSet
EndChar

StartChar: dollar
Encoding: 36 36 8
Width: 608
Flags: W
LayerCount: 2
Fore
SplineSet
173 465 m 128,-1,1
 197 438 197 438 232 422.5 c 128,-1,2
 267 407 267 407 328 388 c 0,3,4
 399 367 399 367 442.5 346.5 c 128,-1,5
 486 326 486 326 516.5 287 c 128,-1,6
 547 248 547 248 547 184 c 0,7,8
 547 106 547 106 488.5 55 c 128,-1,9
 430 4 430 4 332 -4 c 1,10,-1
 331 -130 l 1,11,-1
 278 -130 l 1,12,-1
 278 -5 l 1,13,14
 210 -1 210 -1 145.5 27.5 c 128,-1,15
 81 56 81 56 34 101 c 1,16,-1
 66 158 l 1,17,18
 113 112 113 112 175 86 c 128,-1,19
 237 60 237 60 297 60 c 0,20,21
 377 60 377 60 424 92.5 c 128,-1,22
 471 125 471 125 471 180 c 0,23,24
 471 224 471 224 447 252 c 128,-1,25
 423 280 423 280 388 295 c 128,-1,26
 353 310 353 310 290 330 c 0,27,28
 219 352 219 352 176 371.5 c 128,-1,29
 133 391 133 391 103 429.5 c 128,-1,30
 73 468 73 468 73 530 c 0,31,32
 73 603 73 603 128.5 650 c 128,-1,33
 184 697 184 697 278 705 c 1,34,-1
 278 818 l 1,35,-1
 331 818 l 1,36,-1
 332 705 l 1,37,38
 384 703 384 703 436 686.5 c 128,-1,39
 488 670 488 670 528 644 c 1,40,-1
 498 585 l 1,41,42
 455 612 455 612 404 626.5 c 128,-1,43
 353 641 353 641 308 641 c 0,44,45
 236 641 236 641 192.5 612.5 c 128,-1,46
 149 584 149 584 149 535 c 0,47,0
 149 492 149 492 173 465 c 128,-1,1
EndSplineSet
EndChar

StartChar: ampersand
Encoding: 38 38 10
Width: 645
Flags: W
LayerCount: 2
Fore
SplineSet
601 -9 m 1,0,1
 556 36 556 36 482 108 c 1,2,3
 434 54 434 54 378 25.5 c 128,-1,4
 322 -3 322 -3 263 -3 c 0,5,6
 207 -3 207 -3 160 22 c 128,-1,7
 113 47 113 47 85.5 90.5 c 128,-1,8
 58 134 58 134 58 187 c 0,9,10
 58 256 58 256 100.5 301 c 128,-1,11
 143 346 143 346 220 387 c 1,12,13
 183 435 183 435 164.5 476 c 128,-1,14
 146 517 146 517 146 555 c 0,15,16
 146 597 146 597 167 630.5 c 128,-1,17
 188 664 188 664 226.5 683 c 128,-1,18
 265 702 265 702 314 702 c 0,19,20
 384 702 384 702 428 663.5 c 128,-1,21
 472 625 472 625 472 564 c 0,22,23
 472 520 472 520 448 486 c 128,-1,24
 424 452 424 452 389 428.5 c 128,-1,25
 354 405 354 405 296 374 c 1,26,27
 348 311 348 311 475 186 c 1,28,29
 516 247 516 247 549 326 c 1,30,-1
 596 292 l 1,31,32
 559 208 559 208 514 148 c 1,33,-1
 637 26 l 1,34,-1
 601 -9 l 1,0,1
266 411 m 1,36,37
 316 437 316 437 346.5 457 c 128,-1,38
 377 477 377 477 396.5 503.5 c 128,-1,39
 416 530 416 530 416 565 c 0,40,41
 416 606 416 606 388 631.5 c 128,-1,42
 360 657 360 657 314 657 c 0,43,44
 264 657 264 657 233 628 c 128,-1,45
 202 599 202 599 202 555 c 0,46,35
 202 496 202 496 266 411 c 1,36,37
444 146 m 1,48,49
 307 281 307 281 250 349 c 1,50,51
 186 313 186 313 151 277.5 c 128,-1,52
 116 242 116 242 116 191 c 0,53,54
 116 130 116 130 159 90 c 128,-1,55
 202 50 202 50 265 50 c 0,56,47
 359 50 359 50 444 146 c 1,48,49
EndSplineSet
Substitution2: "<3,3> Small Caps in Latin lookup 11 subtable" ampersand.sc
EndChar

StartChar: quotesingle
Encoding: 39 39 11
Width: 174
Flags: W
LayerCount: 2
Fore
SplineSet
60 699 m 1,0,-1
 114 699 l 1,1,-1
 114 482 l 1,2,-1
 60 482 l 1,3,-1
 60 699 l 1,0,-1
EndSplineSet
Substitution2: "<3,3> Small Caps in Latin lookup 11 subtable" quotesingle.sc
EndChar

StartChar: parenleft
Encoding: 40 40 12
Width: 294
Flags: W
LayerCount: 2
Fore
SplineSet
181 545.5 m 128,-1,1
 151 434 151 434 151 309 c 256,2,3
 151 184 151 184 181 72.5 c 128,-1,4
 211 -39 211 -39 266 -124 c 1,5,-1
 204 -124 l 1,6,7
 147 -40 147 -40 117 71.5 c 128,-1,8
 87 183 87 183 87 309 c 256,9,10
 87 435 87 435 117 546.5 c 128,-1,11
 147 658 147 658 204 742 c 1,12,-1
 266 742 l 1,13,0
 211 657 211 657 181 545.5 c 128,-1,1
EndSplineSet
Substitution2: "'rtla' Right to Left Alternates in Latin lookup 0 subtable" parenright
EndChar

StartChar: parenright
Encoding: 41 41 13
Width: 294
Flags: W
LayerCount: 2
Fore
SplineSet
90 742 m 1,0,1
 147 658 147 658 177 546.5 c 128,-1,2
 207 435 207 435 207 309 c 256,3,4
 207 183 207 183 177 71.5 c 128,-1,5
 147 -40 147 -40 90 -124 c 1,6,-1
 28 -124 l 1,7,8
 83 -39 83 -39 113 72.5 c 128,-1,9
 143 184 143 184 143 309 c 256,10,11
 143 434 143 434 113 545.5 c 128,-1,12
 83 657 83 657 28 742 c 1,13,-1
 90 742 l 1,0,1
EndSplineSet
Substitution2: "'rtla' Right to Left Alternates in Latin lookup 0 subtable" parenleft
EndChar

StartChar: asterisk
Encoding: 42 42 14
Width: 323
Flags: W
LayerCount: 2
Fore
SplineSet
142 722 m 1,0,-1
 181 722 l 1,1,-1
 181 612 l 1,2,-1
 276 667 l 1,3,-1
 295 632 l 1,4,-1
 199 578 l 1,5,-1
 295 523 l 1,6,-1
 276 487 l 1,7,-1
 180 543 l 1,8,-1
 181 433 l 1,9,-1
 142 433 l 1,10,-1
 143 544 l 1,11,-1
 47 488 l 1,12,-1
 28 523 l 1,13,-1
 123 578 l 1,14,-1
 28 632 l 1,15,-1
 47 668 l 1,16,-1
 142 612 l 1,17,-1
 142 722 l 1,0,-1
EndSplineSet
EndChar

StartChar: plus
Encoding: 43 43 15
Width: 489
Flags: W
LayerCount: 2
Fore
SplineSet
452 347 m 1,0,-1
 452 298 l 1,1,-1
 268 298 l 1,2,-1
 268 115 l 1,3,-1
 221 115 l 1,4,-1
 221 298 l 1,5,-1
 38 298 l 1,6,-1
 38 347 l 1,7,-1
 221 347 l 1,8,-1
 221 529 l 1,9,-1
 268 529 l 1,10,-1
 268 347 l 1,11,-1
 452 347 l 1,0,-1
EndSplineSet
EndChar

StartChar: comma
Encoding: 44 44 16
Width: 192
Flags: W
LayerCount: 2
Fore
SplineSet
128.5 69.5 m 128,-1,1
 141 57 141 57 141 37 c 0,2,3
 141 23 141 23 130 -1 c 2,4,-1
 80 -115 l 1,5,-1
 40 -115 l 1,6,-1
 79 -2 l 1,7,8
 67 3 67 3 60.5 14 c 128,-1,9
 54 25 54 25 54 37 c 0,10,11
 54 56 54 56 66.5 69 c 128,-1,12
 79 82 79 82 98 82 c 0,13,0
 116 82 116 82 128.5 69.5 c 128,-1,1
EndSplineSet
EndChar

StartChar: hyphen
Encoding: 45 45 17
Width: 363
Flags: W
LayerCount: 2
Fore
SplineSet
65 327 m 1,0,-1
 297 327 l 1,1,-1
 297 278 l 1,2,-1
 65 278 l 1,3,-1
 65 327 l 1,0,-1
EndSplineSet
EndChar

StartChar: period
Encoding: 46 46 18
Width: 194
Flags: W
LayerCount: 2
Fore
SplineSet
129 70 m 128,-1,1
 142 57 142 57 142 38 c 256,2,3
 142 19 142 19 129 5.5 c 128,-1,4
 116 -8 116 -8 97 -8 c 256,5,6
 78 -8 78 -8 65.5 5 c 128,-1,7
 53 18 53 18 53 38 c 0,8,9
 53 57 53 57 65.5 70 c 128,-1,10
 78 83 78 83 97 83 c 256,11,0
 116 83 116 83 129 70 c 128,-1,1
EndSplineSet
Substitution2: "<3,3> Small Caps in Latin lookup 11 subtable" period.sc
EndChar

StartChar: slash
Encoding: 47 47 19
Width: 313
Flags: W
LayerCount: 2
Fore
SplineSet
303 821 m 1,0,-1
 363 821 l 1,1,-1
 51 -124 l 1,2,-1
 -9 -124 l 1,3,-1
 303 821 l 1,0,-1
EndSplineSet
Substitution2: "<11,2> Diagonal Fractions lookup 3 subtable" fraction
EndChar

StartChar: zero
Encoding: 48 48 20
Width: 715
Flags: W
LayerCount: 2
Fore
SplineSet
584 611.5 m 128,-1,1
 658 520 658 520 658 350 c 256,2,3
 658 180 658 180 584 88 c 128,-1,4
 510 -4 510 -4 371 -4 c 0,5,6
 233 -4 233 -4 158.5 88 c 128,-1,7
 84 180 84 180 84 350 c 256,8,9
 84 520 84 520 158.5 611.5 c 128,-1,10
 233 703 233 703 371 703 c 0,11,0
 510 703 510 703 584 611.5 c 128,-1,1
210 572.5 m 128,-1,13
 155 497 155 497 155 350 c 256,14,15
 155 203 155 203 210 127.5 c 128,-1,16
 265 52 265 52 371 52 c 256,17,18
 477 52 477 52 532.5 127.5 c 128,-1,19
 588 203 588 203 588 350 c 256,20,21
 588 497 588 497 532.5 572.5 c 128,-1,22
 477 648 477 648 371 648 c 256,23,12
 265 648 265 648 210 572.5 c 128,-1,13
EndSplineSet
Substitution2: "<21,0> Lower Case Numbers lookup 10 subtable" zero.osf
Substitution2: "<6,0> Monospaced Numbers lookup 9 subtable" zero.tf
Substitution2: "<11,2> Diagonal Fractions lookup 4 subtable" zero.numr
Substitution2: "<10,1> Superiors lookup 2 subtable" uni2070
Substitution2: "<10,2> Inferiors lookup 1 subtable" uni2080
EndChar

StartChar: one
Encoding: 49 49 21
Width: 362
Flags: W
LayerCount: 2
Fore
SplineSet
6 700 m 1,0,-1
 244 700 l 1,1,-1
 244 0 l 1,2,-1
 175 0 l 1,3,-1
 175 638 l 1,4,-1
 6 638 l 1,5,-1
 6 700 l 1,0,-1
EndSplineSet
Substitution2: "<21,0> Lower Case Numbers lookup 10 subtable" one.osf
Substitution2: "<6,0> Monospaced Numbers lookup 9 subtable" one.tf
Substitution2: "<11,2> Diagonal Fractions lookup 4 subtable" one.numr
Substitution2: "<10,1> Superiors lookup 2 subtable" uni00B9
Substitution2: "<10,2> Inferiors lookup 1 subtable" uni2081
EndChar

StartChar: two
Encoding: 50 50 22
Width: 570
Flags: W
LayerCount: 2
Fore
SplineSet
535 62 m 1,0,-1
 535 0 l 1,1,-1
 39 0 l 1,2,-1
 39 57 l 1,3,-1
 315 345 l 2,4,5
 363 395 363 395 391 442.5 c 128,-1,6
 419 490 419 490 419 525 c 0,7,8
 419 580 419 580 378 611 c 128,-1,9
 337 642 337 642 264 642 c 0,10,11
 214 642 214 642 161 619.5 c 128,-1,12
 108 597 108 597 65 557 c 1,13,-1
 34 608 l 1,14,15
 85 653 85 653 147.5 678 c 128,-1,16
 210 703 210 703 272 703 c 0,17,18
 372 703 372 703 431.5 657 c 128,-1,19
 491 611 491 611 491 534 c 0,20,21
 491 487 491 487 456.5 428.5 c 128,-1,22
 422 370 422 370 362 307 c 2,23,-1
 126 62 l 1,24,-1
 535 62 l 1,0,-1
EndSplineSet
Substitution2: "<21,0> Lower Case Numbers lookup 10 subtable" two.osf
Substitution2: "<6,0> Monospaced Numbers lookup 9 subtable" two.tf
Substitution2: "<11,2> Diagonal Fractions lookup 4 subtable" two.numr
Substitution2: "<10,1> Superiors lookup 2 subtable" uni00B2
Substitution2: "<10,2> Inferiors lookup 1 subtable" uni2082
EndChar

StartChar: three
Encoding: 51 51 23
Width: 580
Flags: W
LayerCount: 2
Fore
SplineSet
460.5 347 m 128,-1,1
 526 298 526 298 526 214 c 0,2,3
 526 150 526 150 493.5 100.5 c 128,-1,4
 461 51 461 51 400 23.5 c 128,-1,5
 339 -4 339 -4 258 -4 c 0,6,7
 194 -4 194 -4 131 14.5 c 128,-1,8
 68 33 68 33 20 64 c 1,9,-1
 51 118 l 1,10,11
 93 89 93 89 146.5 72 c 128,-1,12
 200 55 200 55 254 55 c 0,13,14
 349 55 349 55 404 97.5 c 128,-1,15
 459 140 459 140 459 210 c 256,16,17
 459 280 459 280 404.5 316.5 c 128,-1,18
 350 353 350 353 252 353 c 2,19,-1
 162 353 l 1,20,-1
 162 398 l 1,21,-1
 400 638 l 1,22,-1
 53 638 l 1,23,-1
 53 700 l 1,24,-1
 490 700 l 1,25,-1
 490 654 l 1,26,-1
 240 402 l 1,27,-1
 284 400 l 2,28,0
 395 396 395 396 460.5 347 c 128,-1,1
EndSplineSet
Substitution2: "<21,0> Lower Case Numbers lookup 10 subtable" three.osf
Substitution2: "<6,0> Monospaced Numbers lookup 9 subtable" three.tf
Substitution2: "<11,2> Diagonal Fractions lookup 4 subtable" three.numr
Substitution2: "<10,1> Superiors lookup 2 subtable" uni00B3
Substitution2: "<10,2> Inferiors lookup 1 subtable" uni2083
EndChar

StartChar: four
Encoding: 52 52 24
Width: 584
Flags: W
LayerCount: 2
Fore
SplineSet
554 252 m 1,0,-1
 554 190 l 1,1,-1
 442 190 l 1,2,-1
 442 0 l 1,3,-1
 377 0 l 1,4,-1
 377 190 l 1,5,-1
 23 190 l 1,6,-1
 23 246 l 1,7,-1
 288 700 l 1,8,-1
 356 700 l 1,9,-1
 97 252 l 1,10,-1
 377 252 l 1,11,-1
 377 448 l 1,12,-1
 442 448 l 1,13,-1
 442 252 l 1,14,-1
 554 252 l 1,0,-1
EndSplineSet
Substitution2: "<21,0> Lower Case Numbers lookup 10 subtable" four.osf
Substitution2: "<6,0> Monospaced Numbers lookup 9 subtable" four.tf
Substitution2: "<11,2> Diagonal Fractions lookup 4 subtable" four.numr
Substitution2: "<10,1> Superiors lookup 2 subtable" uni2074
Substitution2: "<10,2> Inferiors lookup 1 subtable" uni2084
EndChar

StartChar: five
Encoding: 53 53 25
Width: 612
Flags: W
LayerCount: 2
Fore
SplineSet
453 405 m 128,-1,1
 510 379 510 379 541 332.5 c 128,-1,2
 572 286 572 286 572 227 c 0,3,4
 572 158 572 158 540.5 105.5 c 128,-1,5
 509 53 509 53 450.5 24.5 c 128,-1,6
 392 -4 392 -4 315 -4 c 0,7,8
 255 -4 255 -4 188.5 16.5 c 128,-1,9
 122 37 122 37 69 71 c 1,10,-1
 98 125 l 1,11,12
 145 93 145 93 201 75 c 128,-1,13
 257 57 257 57 309 57 c 0,14,15
 396 57 396 57 447.5 102 c 128,-1,16
 499 147 499 147 499 222 c 0,17,18
 499 290 499 290 448 329.5 c 128,-1,19
 397 369 397 369 306 369 c 0,20,21
 270 369 270 369 214.5 362.5 c 128,-1,22
 159 356 159 356 120 346 c 1,23,-1
 120 700 l 1,24,-1
 544 700 l 1,25,-1
 544 638 l 1,26,-1
 185 638 l 1,27,-1
 185 419 l 1,28,29
 215 424 215 424 253 427.5 c 128,-1,30
 291 431 291 431 320 431 c 0,31,0
 396 431 396 431 453 405 c 128,-1,1
EndSplineSet
Substitution2: "<21,0> Lower Case Numbers lookup 10 subtable" five.osf
Substitution2: "<6,0> Monospaced Numbers lookup 9 subtable" five.tf
Substitution2: "<11,2> Diagonal Fractions lookup 4 subtable" five.numr
Substitution2: "<10,1> Superiors lookup 2 subtable" uni2075
Substitution2: "<10,2> Inferiors lookup 1 subtable" uni2085
EndChar

StartChar: six
Encoding: 54 54 26
Width: 640
Flags: W
LayerCount: 2
Fore
SplineSet
448 633.5 m 128,-1,1
 404 645 404 645 363 645 c 0,2,3
 255 645 255 645 196 566 c 128,-1,4
 137 487 137 487 137 348 c 0,5,6
 137 334 137 334 139 302 c 1,7,8
 162 371 162 371 218.5 408.5 c 128,-1,9
 275 446 275 446 357 446 c 0,10,11
 461 446 461 446 521.5 387 c 128,-1,12
 582 328 582 328 582 226 c 0,13,14
 582 120 582 120 517.5 58 c 128,-1,15
 453 -4 453 -4 344 -4 c 0,16,17
 215 -4 215 -4 142.5 84.5 c 128,-1,18
 70 173 70 173 70 334 c 0,19,20
 70 445 70 445 105 528.5 c 128,-1,21
 140 612 140 612 205 657.5 c 128,-1,22
 270 703 270 703 358 703 c 0,23,24
 406 703 406 703 459 690 c 128,-1,25
 512 677 512 677 556 654 c 1,26,-1
 528 602 l 1,27,0
 492 622 492 622 448 633.5 c 128,-1,1
246 366.5 m 128,-1,29
 203 343 203 343 180 304.5 c 128,-1,30
 157 266 157 266 157 221 c 0,31,32
 157 183 157 183 177 145 c 128,-1,33
 197 107 197 107 238 81.5 c 128,-1,34
 279 56 279 56 339 56 c 0,35,36
 419 56 419 56 468 102.5 c 128,-1,37
 517 149 517 149 517 228 c 0,38,39
 517 303 517 303 470.5 346.5 c 128,-1,40
 424 390 424 390 346 390 c 0,41,28
 289 390 289 390 246 366.5 c 128,-1,29
EndSplineSet
Substitution2: "<21,0> Lower Case Numbers lookup 10 subtable" six.osf
Substitution2: "<6,0> Monospaced Numbers lookup 9 subtable" six.tf
Substitution2: "<11,2> Diagonal Fractions lookup 4 subtable" six.numr
Substitution2: "<10,1> Superiors lookup 2 subtable" uni2076
Substitution2: "<10,2> Inferiors lookup 1 subtable" uni2086
EndChar

StartChar: seven
Encoding: 55 55 27
Width: 563
Flags: W
LayerCount: 2
Fore
SplineSet
22 700 m 1,0,-1
 535 700 l 1,1,-1
 535 643 l 1,2,-1
 217 0 l 1,3,-1
 143 0 l 1,4,-1
 460 638 l 1,5,-1
 86 638 l 1,6,-1
 85 533 l 1,7,-1
 22 533 l 1,8,-1
 22 700 l 1,0,-1
EndSplineSet
Substitution2: "<21,0> Lower Case Numbers lookup 10 subtable" seven.osf
Substitution2: "<6,0> Monospaced Numbers lookup 9 subtable" seven.tf
Substitution2: "<11,2> Diagonal Fractions lookup 4 subtable" seven.numr
Substitution2: "<10,1> Superiors lookup 2 subtable" uni2077
Substitution2: "<10,2> Inferiors lookup 1 subtable" uni2087
EndChar

StartChar: eight
Encoding: 56 56 28
Width: 641
Flags: W
LayerCount: 2
Fore
SplineSet
484 657 m 128,-1,1
 543 611 543 611 543 529 c 0,2,3
 543 474 543 474 513 435 c 128,-1,4
 483 396 483 396 427 375 c 1,5,6
 498 354 498 354 537.5 308 c 128,-1,7
 577 262 577 262 577 196 c 0,8,9
 577 103 577 103 508.5 49.5 c 128,-1,10
 440 -4 440 -4 322 -4 c 0,11,12
 203 -4 203 -4 134.5 49 c 128,-1,13
 66 102 66 102 66 194 c 0,14,15
 66 261 66 261 106.5 307.5 c 128,-1,16
 147 354 147 354 219 375 c 1,17,18
 162 396 162 396 130.5 436 c 128,-1,19
 99 476 99 476 99 531 c 0,20,21
 99 611 99 611 159 657 c 128,-1,22
 219 703 219 703 321 703 c 0,23,0
 425 703 425 703 484 657 c 128,-1,1
202 617.5 m 128,-1,25
 159 584 159 584 159 525 c 256,26,27
 159 466 159 466 202.5 432 c 128,-1,28
 246 398 246 398 322 398 c 256,29,30
 398 398 398 398 440.5 432 c 128,-1,31
 483 466 483 466 483 525 c 256,32,33
 483 584 483 584 440.5 617.5 c 128,-1,34
 398 651 398 651 322 651 c 0,35,24
 245 651 245 651 202 617.5 c 128,-1,25
181.5 305.5 m 128,-1,37
 131 268 131 268 131 202 c 0,38,39
 131 131 131 131 181.5 91.5 c 128,-1,40
 232 52 232 52 322 52 c 0,41,42
 411 52 411 52 461.5 91.5 c 128,-1,43
 512 131 512 131 512 201 c 0,44,45
 512 267 512 267 461 305 c 128,-1,46
 410 343 410 343 321 343 c 256,47,36
 232 343 232 343 181.5 305.5 c 128,-1,37
EndSplineSet
Substitution2: "<21,0> Lower Case Numbers lookup 10 subtable" eight.osf
Substitution2: "<6,0> Monospaced Numbers lookup 9 subtable" eight.tf
Substitution2: "<11,2> Diagonal Fractions lookup 4 subtable" eight.numr
Substitution2: "<10,1> Superiors lookup 2 subtable" uni2078
Substitution2: "<10,2> Inferiors lookup 1 subtable" uni2088
EndChar

StartChar: nine
Encoding: 57 57 29
Width: 637
Flags: W
LayerCount: 2
Fore
SplineSet
202.5 66.5 m 128,-1,1
 246 55 246 55 287 55 c 0,2,3
 394 55 394 55 452.5 134.5 c 128,-1,4
 511 214 511 214 511 353 c 0,5,6
 511 367 511 367 509 399 c 1,7,8
 486 330 486 330 430 292 c 128,-1,9
 374 254 374 254 293 254 c 0,10,11
 190 254 190 254 130 313 c 128,-1,12
 70 372 70 372 70 474 c 0,13,14
 70 580 70 580 134 641.5 c 128,-1,15
 198 703 198 703 306 703 c 0,16,17
 434 703 434 703 506 615 c 128,-1,18
 578 527 578 527 578 367 c 0,19,20
 578 256 578 256 543 172 c 128,-1,21
 508 88 508 88 443.5 42 c 128,-1,22
 379 -4 379 -4 292 -4 c 0,23,24
 245 -4 245 -4 192.5 9.5 c 128,-1,25
 140 23 140 23 96 45 c 1,26,-1
 124 98 l 1,27,0
 159 78 159 78 202.5 66.5 c 128,-1,1
183.5 597.5 m 128,-1,29
 135 552 135 552 135 473 c 0,30,31
 135 398 135 398 180.5 354 c 128,-1,32
 226 310 226 310 304 310 c 0,33,34
 361 310 361 310 403.5 333.5 c 128,-1,35
 446 357 446 357 468.5 395.5 c 128,-1,36
 491 434 491 434 491 479 c 0,37,38
 491 517 491 517 471 555 c 128,-1,39
 451 593 451 593 410.5 618 c 128,-1,40
 370 643 370 643 311 643 c 0,41,28
 232 643 232 643 183.5 597.5 c 128,-1,29
EndSplineSet
Substitution2: "<21,0> Lower Case Numbers lookup 10 subtable" nine.osf
Substitution2: "<6,0> Monospaced Numbers lookup 9 subtable" nine.tf
Substitution2: "<11,2> Diagonal Fractions lookup 4 subtable" nine.numr
Substitution2: "<10,1> Superiors lookup 2 subtable" uni2079
Substitution2: "<10,2> Inferiors lookup 1 subtable" uni2089
EndChar

StartChar: less
Encoding: 60 60 32
Width: 489
Flags: W
LayerCount: 2
Fore
SplineSet
452 544 m 1,0,-1
 452 490 l 1,1,-1
 86 327 l 1,2,-1
 452 164 l 1,3,-1
 452 110 l 1,4,-1
 38 295 l 1,5,-1
 38 358 l 1,6,-1
 452 544 l 1,0,-1
EndSplineSet
Substitution2: "'rtla' Right to Left Alternates in Latin lookup 0 subtable" greater
EndChar

StartChar: equal
Encoding: 61 61 33
Width: 489
Flags: W
LayerCount: 2
Fore
SplineSet
38 449 m 1,0,-1
 452 449 l 1,1,-1
 452 400 l 1,2,-1
 38 400 l 1,3,-1
 38 449 l 1,0,-1
38 244 m 1,4,-1
 452 244 l 1,5,-1
 452 195 l 1,6,-1
 38 195 l 1,7,-1
 38 244 l 1,4,-1
EndSplineSet
EndChar

StartChar: greater
Encoding: 62 62 34
Width: 489
Flags: W
LayerCount: 2
Fore
SplineSet
37 112 m 1,0,-1
 37 166 l 1,1,-1
 403 329 l 1,2,-1
 37 492 l 1,3,-1
 37 546 l 1,4,-1
 451 361 l 1,5,-1
 451 298 l 1,6,-1
 37 112 l 1,0,-1
EndSplineSet
Substitution2: "'rtla' Right to Left Alternates in Latin lookup 0 subtable" less
EndChar

StartChar: question
Encoding: 63 63 35
Width: 419
Flags: W
LayerCount: 2
Fore
SplineSet
79 642.5 m 128,-1,1
 130 687 130 687 214 687 c 256,2,3
 298 687 298 687 349.5 646 c 128,-1,4
 401 605 401 605 401 528 c 0,5,6
 401 489 401 489 388.5 459.5 c 128,-1,7
 376 430 376 430 357.5 410 c 128,-1,8
 339 390 339 390 309 364 c 0,9,10
 266 328 266 328 244 296.5 c 128,-1,11
 222 265 222 265 222 216 c 1,12,-1
 168 216 l 1,13,14
 168 257 168 257 180.5 287 c 128,-1,15
 193 317 193 317 211 337 c 128,-1,16
 229 357 229 357 258 382 c 0,17,18
 286 407 286 407 301 423.5 c 128,-1,19
 316 440 316 440 326.5 464 c 128,-1,20
 337 488 337 488 337 520 c 0,21,22
 337 574 337 574 302.5 601.5 c 128,-1,23
 268 629 268 629 209 629 c 256,24,25
 150 629 150 629 116 600 c 128,-1,26
 82 571 82 571 79 515 c 1,27,-1
 24 517 l 1,28,0
 28 598 28 598 79 642.5 c 128,-1,1
226 70 m 128,-1,30
 239 57 239 57 239 38 c 256,31,32
 239 19 239 19 226 5.5 c 128,-1,33
 213 -8 213 -8 194 -8 c 256,34,35
 175 -8 175 -8 162.5 5 c 128,-1,36
 150 18 150 18 150 38 c 0,37,38
 150 57 150 57 162.5 70 c 128,-1,39
 175 83 175 83 194 83 c 256,40,29
 213 83 213 83 226 70 c 128,-1,30
EndSplineSet
Substitution2: "<3,3> Small Caps in Latin lookup 11 subtable" question.sc
EndChar

StartChar: at
Encoding: 64 64 36
Width: 990
Flags: W
LayerCount: 2
Fore
SplineSet
740.5 69.5 m 128,-1,1
 758 50 758 50 784 50 c 0,2,3
 815 50 815 50 840.5 77 c 128,-1,4
 866 104 866 104 880.5 152.5 c 128,-1,5
 895 201 895 201 895 264 c 0,6,7
 895 377 895 377 845 467 c 128,-1,8
 795 557 795 557 705 608.5 c 128,-1,9
 615 660 615 660 500 660 c 0,10,11
 387 660 387 660 294 608.5 c 128,-1,12
 201 557 201 557 148 466.5 c 128,-1,13
 95 376 95 376 95 265 c 0,14,15
 95 157 95 157 146 71 c 128,-1,16
 197 -15 197 -15 286.5 -64 c 128,-1,17
 376 -113 376 -113 487 -113 c 0,18,19
 532 -113 532 -113 584 -99 c 128,-1,20
 636 -85 636 -85 673 -61 c 1,21,-1
 698 -107 l 1,22,23
 657 -133 657 -133 597.5 -149 c 128,-1,24
 538 -165 538 -165 487 -165 c 0,25,26
 361 -165 361 -165 259.5 -109.5 c 128,-1,27
 158 -54 158 -54 100 44.5 c 128,-1,28
 42 143 42 143 42 265 c 0,29,30
 42 391 42 391 102 493 c 128,-1,31
 162 595 162 595 266.5 653 c 128,-1,32
 371 711 371 711 500 711 c 0,33,34
 628 711 628 711 730 653.5 c 128,-1,35
 832 596 832 596 890 494.5 c 128,-1,36
 948 393 948 393 948 266 c 0,37,38
 948 187 948 187 926.5 128 c 128,-1,39
 905 69 905 69 866.5 36.5 c 128,-1,40
 828 4 828 4 777 4 c 0,41,42
 734 4 734 4 705.5 29.5 c 128,-1,43
 677 55 677 55 673 100 c 2,44,-1
 672 142 l 1,45,46
 642 84 642 84 589 52.5 c 128,-1,47
 536 21 536 21 469 21 c 256,48,49
 402 21 402 21 347 52.5 c 128,-1,50
 292 84 292 84 259.5 140.5 c 128,-1,51
 227 197 227 197 227 268 c 0,52,53
 227 338 227 338 257 395 c 128,-1,54
 287 452 287 452 341 484.5 c 128,-1,55
 395 517 395 517 464 517 c 256,56,57
 533 517 533 517 586 483.5 c 128,-1,58
 639 450 639 450 659 404 c 1,59,-1
 659 511 l 1,60,-1
 723 511 l 1,61,-1
 723 123 l 2,62,0
 723 89 723 89 740.5 69.5 c 128,-1,1
382.5 431.5 m 128,-1,64
 342 407 342 407 319 364.5 c 128,-1,65
 296 322 296 322 296 270 c 0,66,67
 296 217 296 217 319 174 c 128,-1,68
 342 131 342 131 382.5 106 c 128,-1,69
 423 81 423 81 475 81 c 0,70,71
 528 81 528 81 569 105.5 c 128,-1,72
 610 130 610 130 633 173 c 128,-1,73
 656 216 656 216 656 270 c 0,74,75
 656 323 656 323 633 365 c 128,-1,76
 610 407 610 407 568.5 431.5 c 128,-1,77
 527 456 527 456 474 456 c 0,78,63
 423 456 423 456 382.5 431.5 c 128,-1,64
EndSplineSet
EndChar

StartChar: A
Encoding: 65 65 37
Width: 712
Flags: W
LayerCount: 2
Fore
SplineSet
632 0 m 1,0,-1
 549 186 l 1,1,-1
 161 186 l 1,2,-1
 79 0 l 1,3,-1
 5 0 l 1,4,-1
 320 699 l 1,5,-1
 392 699 l 1,6,-1
 707 0 l 1,7,-1
 632 0 l 1,0,-1
188 248 m 1,8,-1
 522 248 l 1,9,-1
 354 626 l 1,10,-1
 188 248 l 1,8,-1
EndSplineSet
Substitution2: "<11,2> Diagonal Fractions lookup 7 nested-substitutions 0 subtable" ordfeminine
Substitution2: "<11,2> Diagonal Fractions lookup 5 nested-substitutions 0 subtable" ordfeminine
EndChar

StartChar: B
Encoding: 66 66 38
Width: 719
Flags: W
LayerCount: 2
Fore
SplineSet
567.5 653.5 m 128,-1,1
 627 607 627 607 627 525 c 0,2,3
 627 463 627 463 592.5 421 c 128,-1,4
 558 379 558 379 496 366 c 1,5,6
 573 356 573 356 616 309 c 128,-1,7
 659 262 659 262 659 190 c 0,8,9
 659 100 659 100 592 50 c 128,-1,10
 525 0 525 0 406 0 c 2,11,-1
 110 0 l 1,12,-1
 110 700 l 1,13,-1
 403 700 l 2,14,0
 508 700 508 700 567.5 653.5 c 128,-1,1
515 423.5 m 128,-1,16
 556 456 556 456 556 516 c 0,17,18
 556 574 556 574 515 606 c 128,-1,19
 474 638 474 638 400 637 c 2,20,-1
 179 637 l 1,21,-1
 179 391 l 1,22,-1
 400 391 l 2,23,15
 474 391 474 391 515 423.5 c 128,-1,16
539.5 97.5 m 128,-1,25
 589 133 589 133 589 197 c 0,26,27
 589 260 589 260 539 295 c 128,-1,28
 489 330 489 330 400 330 c 2,29,-1
 179 330 l 1,30,-1
 179 62 l 1,31,-1
 400 62 l 2,32,24
 490 62 490 62 539.5 97.5 c 128,-1,25
EndSplineSet
EndChar

StartChar: C
Encoding: 67 67 39
Width: 701
Flags: W
LayerCount: 2
Fore
SplineSet
521 621 m 128,-1,1
 466 644 466 644 407 644 c 0,2,3
 326 644 326 644 258.5 605 c 128,-1,4
 191 566 191 566 151.5 498.5 c 128,-1,5
 112 431 112 431 112 351 c 256,6,7
 112 271 112 271 151.5 204 c 128,-1,8
 191 137 191 137 258.5 97.5 c 128,-1,9
 326 58 326 58 407 58 c 0,10,11
 465 58 465 58 520 80.5 c 128,-1,12
 575 103 575 103 618 143 c 1,13,-1
 660 98 l 1,14,15
 608 50 608 50 541 22 c 128,-1,16
 474 -6 474 -6 404 -6 c 0,17,18
 305 -6 305 -6 222 42 c 128,-1,19
 139 90 139 90 90.5 172 c 128,-1,20
 42 254 42 254 42 351 c 256,21,22
 42 448 42 448 91 529 c 128,-1,23
 140 610 140 610 223.5 657.5 c 128,-1,24
 307 705 307 705 406 705 c 0,25,26
 477 705 477 705 543 678.5 c 128,-1,27
 609 652 609 652 659 605 c 1,28,-1
 618 557 l 1,29,0
 576 598 576 598 521 621 c 128,-1,1
EndSplineSet
EndChar

StartChar: D
Encoding: 68 68 40
Width: 793
Flags: W
LayerCount: 2
Fore
SplineSet
573.5 653 m 128,-1,1
 656 607 656 607 703.5 526.5 c 128,-1,2
 751 446 751 446 751 349 c 256,3,4
 751 252 751 252 703.5 172 c 128,-1,5
 656 92 656 92 573 46 c 128,-1,6
 490 0 490 0 389 0 c 2,7,-1
 110 0 l 1,8,-1
 110 699 l 1,9,-1
 391 699 l 2,10,0
 491 699 491 699 573.5 653 c 128,-1,1
538 100 m 128,-1,12
 604 138 604 138 642.5 203.5 c 128,-1,13
 681 269 681 269 681 349 c 256,14,15
 681 429 681 429 642 495 c 128,-1,16
 603 561 603 561 536.5 599 c 128,-1,17
 470 637 470 637 390 637 c 2,18,-1
 179 637 l 1,19,-1
 179 62 l 1,20,-1
 393 62 l 2,21,11
 472 62 472 62 538 100 c 128,-1,12
EndSplineSet
EndChar

StartChar: E
Encoding: 69 69 41
Width: 650
Flags: W
LayerCount: 2
Fore
SplineSet
110 699 m 1,0,-1
 578 699 l 1,1,-1
 578 637 l 1,2,-1
 179 637 l 1,3,-1
 179 387 l 1,4,-1
 536 387 l 1,5,-1
 536 325 l 1,6,-1
 179 325 l 1,7,-1
 179 62 l 1,8,-1
 591 62 l 1,9,-1
 591 0 l 1,10,-1
 110 0 l 1,11,-1
 110 699 l 1,0,-1
EndSplineSet
EndChar

StartChar: F
Encoding: 70 70 42
Width: 560
Flags: W
LayerCount: 2
Fore
SplineSet
110 699 m 1,0,-1
 548 699 l 1,1,-1
 548 637 l 1,2,-1
 179 637 l 1,3,-1
 179 368 l 1,4,-1
 508 368 l 1,5,-1
 508 306 l 1,6,-1
 179 306 l 1,7,-1
 179 0 l 1,8,-1
 110 0 l 1,9,-1
 110 699 l 1,0,-1
EndSplineSet
EndChar

StartChar: G
Encoding: 71 71 43
Width: 755
Flags: W
LayerCount: 2
Fore
SplineSet
409 372 m 1,0,-1
 664 372 l 1,1,-1
 664 86 l 1,2,3
 613 43 613 43 544.5 18.5 c 128,-1,4
 476 -6 476 -6 406 -6 c 0,5,6
 307 -6 307 -6 223.5 42 c 128,-1,7
 140 90 140 90 91 172 c 128,-1,8
 42 254 42 254 42 351 c 256,9,10
 42 448 42 448 91 529 c 128,-1,11
 140 610 140 610 224.5 657.5 c 128,-1,12
 309 705 309 705 409 705 c 0,13,14
 480 705 480 705 545.5 680 c 128,-1,15
 611 655 611 655 662 610 c 1,16,-1
 622 561 l 1,17,18
 579 601 579 601 524 622.5 c 128,-1,19
 469 644 469 644 409 644 c 0,20,21
 328 644 328 644 260 604.5 c 128,-1,22
 192 565 192 565 152 498 c 128,-1,23
 112 431 112 431 112 351 c 0,24,25
 112 270 112 270 152 202.5 c 128,-1,26
 192 135 192 135 260.5 95.5 c 128,-1,27
 329 56 329 56 410 56 c 0,28,29
 460 56 460 56 509.5 72.5 c 128,-1,30
 559 89 559 89 601 119 c 1,31,-1
 601 308 l 1,32,-1
 409 308 l 1,33,-1
 409 372 l 1,0,-1
EndSplineSet
EndChar

StartChar: H
Encoding: 72 72 44
Width: 795
Flags: W
LayerCount: 2
Fore
SplineSet
110 699 m 1,0,-1
 179 699 l 1,1,-1
 179 379 l 1,2,-1
 616 379 l 1,3,-1
 616 699 l 1,4,-1
 685 699 l 1,5,-1
 685 0 l 1,6,-1
 616 0 l 1,7,-1
 616 317 l 1,8,-1
 179 317 l 1,9,-1
 179 0 l 1,10,-1
 110 0 l 1,11,-1
 110 699 l 1,0,-1
EndSplineSet
EndChar

StartChar: I
Encoding: 73 73 45
Width: 289
Flags: W
LayerCount: 2
Fore
SplineSet
110 699 m 1,0,-1
 179 699 l 1,1,-1
 179 0 l 1,2,-1
 110 0 l 1,3,-1
 110 699 l 1,0,-1
EndSplineSet
EndChar

StartChar: J
Encoding: 74 74 46
Width: 479
Flags: W
LayerCount: 2
Fore
SplineSet
334.5 51.5 m 128,-1,1
 283 -3 283 -3 191 -3 c 0,2,3
 135 -3 135 -3 86 22.5 c 128,-1,4
 37 48 37 48 1 96 c 1,5,-1
 36 148 l 1,6,7
 68 107 68 107 108 85.5 c 128,-1,8
 148 64 148 64 190 64 c 0,9,10
 251 64 251 64 283.5 101 c 128,-1,11
 316 138 316 138 316 208 c 2,12,-1
 316 637 l 1,13,-1
 64 637 l 1,14,-1
 64 700 l 1,15,-1
 386 700 l 1,16,-1
 386 206 l 2,17,0
 386 106 386 106 334.5 51.5 c 128,-1,1
EndSplineSet
EndChar

StartChar: K
Encoding: 75 75 47
Width: 694
Flags: W
LayerCount: 2
Fore
SplineSet
671 0 m 1,0,-1
 586 0 l 1,1,-1
 321 340 l 1,2,-1
 179 186 l 1,3,-1
 179 0 l 1,4,-1
 110 0 l 1,5,-1
 110 700 l 1,6,-1
 179 700 l 1,7,-1
 179 274 l 1,8,-1
 567 700 l 1,9,-1
 651 700 l 1,10,-1
 370 394 l 1,11,-1
 671 0 l 1,0,-1
EndSplineSet
EndChar

StartChar: L
Encoding: 76 76 48
Width: 513
Flags: W
LayerCount: 2
Fore
SplineSet
110 699 m 1,0,-1
 179 699 l 1,1,-1
 179 62 l 1,2,-1
 487 62 l 1,3,-1
 487 0 l 1,4,-1
 110 0 l 1,5,-1
 110 699 l 1,0,-1
EndSplineSet
EndChar

StartChar: M
Encoding: 77 77 49
Width: 937
Flags: W
LayerCount: 2
Fore
SplineSet
110 700 m 1,0,-1
 196 700 l 1,1,-1
 470 175 l 1,2,-1
 741 700 l 1,3,-1
 827 700 l 1,4,-1
 827 0 l 1,5,-1
 763 0 l 1,6,-1
 762 604 l 1,7,-1
 488 75 l 1,8,-1
 450 75 l 1,9,-1
 175 604 l 1,10,-1
 175 0 l 1,11,-1
 110 0 l 1,12,-1
 110 700 l 1,0,-1
EndSplineSet
EndChar

StartChar: N
Encoding: 78 78 50
Width: 796
Flags: W
LayerCount: 2
Fore
SplineSet
617 699 m 1,0,-1
 685 699 l 1,1,-1
 685 0 l 1,2,-1
 612 0 l 1,3,-1
 179 592 l 1,4,-1
 179 0 l 1,5,-1
 110 0 l 1,6,-1
 110 699 l 1,7,-1
 183 699 l 1,8,-1
 617 107 l 1,9,-1
 617 699 l 1,0,-1
EndSplineSet
EndChar

StartChar: O
Encoding: 79 79 51
Width: 814
Flags: W
LayerCount: 2
Fore
SplineSet
590.5 657.5 m 128,-1,1
 674 610 674 610 723 529 c 128,-1,2
 772 448 772 448 772 351 c 256,3,4
 772 254 772 254 723 172 c 128,-1,5
 674 90 674 90 590.5 42 c 128,-1,6
 507 -6 507 -6 407 -6 c 256,7,8
 307 -6 307 -6 223.5 42 c 128,-1,9
 140 90 140 90 91 172 c 128,-1,10
 42 254 42 254 42 351 c 256,11,12
 42 448 42 448 91 529 c 128,-1,13
 140 610 140 610 223.5 657.5 c 128,-1,14
 307 705 307 705 407 705 c 256,15,0
 507 705 507 705 590.5 657.5 c 128,-1,1
260 604 m 128,-1,17
 192 565 192 565 152 498 c 128,-1,18
 112 431 112 431 112 351 c 256,19,20
 112 271 112 271 152 203 c 128,-1,21
 192 135 192 135 260 95.5 c 128,-1,22
 328 56 328 56 408 56 c 0,23,24
 487 56 487 56 554.5 95.5 c 128,-1,25
 622 135 622 135 662 203 c 128,-1,26
 702 271 702 271 702 351 c 256,27,28
 702 431 702 431 662 498 c 128,-1,29
 622 565 622 565 554.5 604 c 128,-1,30
 487 643 487 643 408 643 c 0,31,16
 328 643 328 643 260 604 c 128,-1,17
EndSplineSet
Substitution2: "<11,2> Diagonal Fractions lookup 7 nested-substitutions 0 subtable" ordmasculine
Substitution2: "<11,2> Diagonal Fractions lookup 5 nested-substitutions 0 subtable" ordmasculine
EndChar

StartChar: P
Encoding: 80 80 52
Width: 668
Flags: W
LayerCount: 2
Fore
SplineSet
569 638.5 m 128,-1,1
 640 578 640 578 640 467 c 0,2,3
 640 352 640 352 569 289 c 128,-1,4
 498 226 498 226 368 226 c 2,5,-1
 179 226 l 1,6,-1
 179 0 l 1,7,-1
 110 0 l 1,8,-1
 110 699 l 1,9,-1
 368 699 l 2,10,0
 498 699 498 699 569 638.5 c 128,-1,1
519.5 333.5 m 128,-1,12
 574 379 574 379 574 465 c 0,13,14
 574 549 574 549 520 593 c 128,-1,15
 466 637 466 637 365 637 c 2,16,-1
 179 637 l 1,17,-1
 179 288 l 1,18,-1
 365 288 l 2,19,11
 465 288 465 288 519.5 333.5 c 128,-1,12
EndSplineSet
EndChar

StartChar: Q
Encoding: 81 81 53
Width: 827
Flags: W
LayerCount: 2
Fore
SplineSet
813 -62 m 1,0,1
 773 -99 773 -99 727.5 -119 c 128,-1,2
 682 -139 682 -139 638 -139 c 0,3,4
 524 -139 524 -139 420 -6 c 1,5,-1
 407 -6 l 2,6,7
 307 -6 307 -6 223.5 42 c 128,-1,8
 140 90 140 90 91 172 c 128,-1,9
 42 254 42 254 42 351 c 256,10,11
 42 448 42 448 91 529 c 128,-1,12
 140 610 140 610 223.5 657.5 c 128,-1,13
 307 705 307 705 407 705 c 256,14,15
 507 705 507 705 590.5 657.5 c 128,-1,16
 674 610 674 610 723 529 c 128,-1,17
 772 448 772 448 772 351 c 0,18,19
 772 268 772 268 736 195.5 c 128,-1,20
 700 123 700 123 637 73 c 128,-1,21
 574 23 574 23 494 4 c 1,22,23
 575 -79 575 -79 645 -79 c 0,24,25
 708 -79 708 -79 782 -14 c 1,26,-1
 813 -62 l 1,0,1
152 203 m 128,-1,28
 192 135 192 135 260 95.5 c 128,-1,29
 328 56 328 56 408 56 c 0,30,31
 487 56 487 56 554.5 95.5 c 128,-1,32
 622 135 622 135 662 203 c 128,-1,33
 702 271 702 271 702 351 c 256,34,35
 702 431 702 431 662 498 c 128,-1,36
 622 565 622 565 554.5 604 c 128,-1,37
 487 643 487 643 408 643 c 0,38,39
 328 643 328 643 260 604 c 128,-1,40
 192 565 192 565 152 498 c 128,-1,41
 112 431 112 431 112 351 c 256,42,27
 112 271 112 271 152 203 c 128,-1,28
EndSplineSet
EndChar

StartChar: R
Encoding: 82 82 54
Width: 723
Flags: W
LayerCount: 2
Fore
SplineSet
571 0 m 1,0,-1
 420 228 l 1,1,2
 388 226 388 226 371 226 c 2,3,-1
 179 226 l 1,4,-1
 179 0 l 1,5,-1
 110 0 l 1,6,-1
 110 699 l 1,7,-1
 371 699 l 2,8,9
 502 699 502 699 573.5 638.5 c 128,-1,10
 645 578 645 578 645 467 c 0,11,12
 645 380 645 380 603 322 c 128,-1,13
 561 264 561 264 483 241 c 1,14,-1
 651 0 l 1,15,-1
 571 0 l 1,0,-1
371 288 m 2,16,17
 471 288 471 288 525 333.5 c 128,-1,18
 579 379 579 379 579 465 c 0,19,20
 579 549 579 549 525 593 c 128,-1,21
 471 637 471 637 371 637 c 2,22,-1
 179 637 l 1,23,-1
 179 288 l 1,24,-1
 371 288 l 2,16,17
EndSplineSet
EndChar

StartChar: S
Encoding: 83 83 55
Width: 608
Flags: W
LayerCount: 2
Fore
SplineSet
404 626.5 m 128,-1,1
 353 641 353 641 308 641 c 0,2,3
 236 641 236 641 192.5 612.5 c 128,-1,4
 149 584 149 584 149 535 c 0,5,6
 149 492 149 492 173 465 c 128,-1,7
 197 438 197 438 232 422.5 c 128,-1,8
 267 407 267 407 328 388 c 0,9,10
 399 367 399 367 442.5 346.5 c 128,-1,11
 486 326 486 326 516.5 287 c 128,-1,12
 547 248 547 248 547 184 c 0,13,14
 547 128 547 128 515.5 85 c 128,-1,15
 484 42 484 42 427 18.5 c 128,-1,16
 370 -5 370 -5 296 -5 c 0,17,18
 223 -5 223 -5 153.5 24 c 128,-1,19
 84 53 84 53 34 101 c 1,20,-1
 66 158 l 1,21,22
 113 112 113 112 175 86 c 128,-1,23
 237 60 237 60 297 60 c 0,24,25
 377 60 377 60 424 92.5 c 128,-1,26
 471 125 471 125 471 180 c 0,27,28
 471 224 471 224 447 252 c 128,-1,29
 423 280 423 280 388 295 c 128,-1,30
 353 310 353 310 290 330 c 0,31,32
 219 352 219 352 176 371.5 c 128,-1,33
 133 391 133 391 103 429.5 c 128,-1,34
 73 468 73 468 73 530 c 0,35,36
 73 583 73 583 103 623 c 128,-1,37
 133 663 133 663 187 684.5 c 128,-1,38
 241 706 241 706 312 706 c 0,39,40
 369 706 369 706 426.5 689 c 128,-1,41
 484 672 484 672 528 644 c 1,42,-1
 498 585 l 1,43,0
 455 612 455 612 404 626.5 c 128,-1,1
EndSplineSet
EndChar

StartChar: T
Encoding: 84 84 56
Width: 553
Flags: W
LayerCount: 2
Fore
SplineSet
11 700 m 1,0,-1
 542 700 l 1,1,-1
 542 637 l 1,2,-1
 311 637 l 1,3,-1
 311 0 l 1,4,-1
 242 0 l 1,5,-1
 242 637 l 1,6,-1
 11 637 l 1,7,-1
 11 700 l 1,0,-1
EndSplineSet
EndChar

StartChar: U
Encoding: 85 85 57
Width: 767
Flags: W
LayerCount: 2
Fore
SplineSet
221.5 116 m 128,-1,1
 280 56 280 56 384 56 c 256,2,3
 488 56 488 56 546 116 c 128,-1,4
 604 176 604 176 604 284 c 2,5,-1
 604 700 l 1,6,-1
 673 700 l 1,7,-1
 673 284 l 2,8,9
 673 148 673 148 596.5 71 c 128,-1,10
 520 -6 520 -6 384 -6 c 256,11,12
 248 -6 248 -6 171 71 c 128,-1,13
 94 148 94 148 94 284 c 2,14,-1
 94 700 l 1,15,-1
 163 700 l 1,16,-1
 163 284 l 2,17,0
 163 176 163 176 221.5 116 c 128,-1,1
EndSplineSet
EndChar

StartChar: V
Encoding: 86 86 58
Width: 658
Flags: W
LayerCount: 2
Fore
SplineSet
7 699 m 1,0,-1
 81 699 l 1,1,-1
 330 76 l 1,2,-1
 578 699 l 1,3,-1
 651 699 l 1,4,-1
 364 0 l 1,5,-1
 292 0 l 1,6,-1
 7 699 l 1,0,-1
EndSplineSet
EndChar

StartChar: W
Encoding: 87 87 59
Width: 1025
Flags: W
LayerCount: 2
Fore
SplineSet
946 700 m 1,0,-1
 1019 700 l 1,1,-1
 782 0 l 1,2,-1
 710 0 l 1,3,-1
 513 613 l 1,4,-1
 314 0 l 1,5,-1
 243 0 l 1,6,-1
 7 700 l 1,7,-1
 82 700 l 1,8,-1
 281 73 l 1,9,-1
 479 700 l 1,10,-1
 549 700 l 1,11,-1
 748 73 l 1,12,-1
 946 700 l 1,0,-1
EndSplineSet
EndChar

StartChar: X
Encoding: 88 88 60
Width: 658
Flags: W
LayerCount: 2
Fore
SplineSet
42 699 m 1,0,-1
 123 699 l 1,1,-1
 324 417 l 1,2,-1
 525 699 l 1,3,-1
 606 699 l 1,4,-1
 367 363 l 1,5,-1
 626 0 l 1,6,-1
 543 0 l 1,7,-1
 324 306 l 1,8,-1
 105 0 l 1,9,-1
 24 0 l 1,10,-1
 282 361 l 1,11,-1
 42 699 l 1,0,-1
EndSplineSet
EndChar

StartChar: Y
Encoding: 89 89 61
Width: 622
Flags: W
LayerCount: 2
Fore
SplineSet
616 699 m 1,0,-1
 347 249 l 1,1,-1
 347 0 l 1,2,-1
 278 0 l 1,3,-1
 278 249 l 1,4,-1
 5 699 l 1,5,-1
 77 699 l 1,6,-1
 313 323 l 1,7,-1
 544 699 l 1,8,-1
 616 699 l 1,0,-1
EndSplineSet
EndChar

StartChar: Z
Encoding: 90 90 62
Width: 658
Flags: W
LayerCount: 2
Fore
SplineSet
58 699 m 1,0,-1
 609 699 l 1,1,-1
 609 646 l 1,2,-1
 135 62 l 1,3,-1
 613 62 l 1,4,-1
 613 0 l 1,5,-1
 45 0 l 1,6,-1
 45 54 l 1,7,-1
 520 637 l 1,8,-1
 58 637 l 1,9,-1
 58 699 l 1,0,-1
EndSplineSet
EndChar

StartChar: bracketleft
Encoding: 91 91 63
Width: 307
Flags: W
LayerCount: 2
Fore
SplineSet
95 742 m 1,0,-1
 283 742 l 1,1,-1
 283 687 l 1,2,-1
 157 687 l 1,3,-1
 157 -69 l 1,4,-1
 283 -69 l 1,5,-1
 283 -124 l 1,6,-1
 95 -124 l 1,7,-1
 95 742 l 1,0,-1
EndSplineSet
Substitution2: "'rtla' Right to Left Alternates in Latin lookup 0 subtable" bracketright
EndChar

StartChar: backslash
Encoding: 92 92 64
Width: 313
Flags: W
LayerCount: 2
Fore
SplineSet
10 821 m 1,0,-1
 322 -124 l 1,1,-1
 262 -124 l 1,2,-1
 -50 821 l 1,3,-1
 10 821 l 1,0,-1
EndSplineSet
EndChar

StartChar: bracketright
Encoding: 93 93 65
Width: 307
Flags: W
LayerCount: 2
Fore
SplineSet
212 742 m 1,0,-1
 212 -124 l 1,1,-1
 24 -124 l 1,2,-1
 24 -69 l 1,3,-1
 150 -69 l 1,4,-1
 150 687 l 1,5,-1
 24 687 l 1,6,-1
 24 742 l 1,7,-1
 212 742 l 1,0,-1
EndSplineSet
Substitution2: "'rtla' Right to Left Alternates in Latin lookup 0 subtable" bracketleft
EndChar

StartChar: asciicircum
Encoding: 94 94 66
Width: 508
Flags: W
LayerCount: 2
Fore
SplineSet
471 129 m 1,0,-1
 417 129 l 1,1,-1
 254 480 l 1,2,-1
 91 129 l 1,3,-1
 37 129 l 1,4,-1
 222 527 l 1,5,-1
 285 527 l 1,6,-1
 471 129 l 1,0,-1
EndSplineSet
EndChar

StartChar: underscore
Encoding: 95 95 67
Width: 552
Flags: W
LayerCount: 2
Fore
SplineSet
0 -160 m 1,0,-1
 551 -160 l 1,1,-1
 551 -204 l 1,2,-1
 0 -204 l 1,3,-1
 0 -160 l 1,0,-1
EndSplineSet
EndChar

StartChar: a
Encoding: 97 97 69
Width: 574
Flags: W
LayerCount: 2
Fore
SplineSet
427 0 m 1,0,-1
 426 88 l 1,1,2
 395 42 395 42 345 19.5 c 128,-1,3
 295 -3 295 -3 230 -3 c 0,4,5
 177 -3 177 -3 136.5 17.5 c 128,-1,6
 96 38 96 38 74 74 c 128,-1,7
 52 110 52 110 52 155 c 0,8,9
 52 223 52 223 104.5 262 c 128,-1,10
 157 301 157 301 249 301 c 2,11,-1
 425 301 l 1,12,-1
 425 341 l 2,13,14
 425 403 425 403 388 437 c 128,-1,15
 351 471 351 471 280 471 c 0,16,17
 196 471 196 471 111 408 c 1,18,-1
 81 454 l 1,19,20
 134 491 134 491 182 508.5 c 128,-1,21
 230 526 230 526 292 526 c 0,22,23
 387 526 387 526 439 478.5 c 128,-1,24
 491 431 491 431 492 347 c 2,25,-1
 493 0 l 1,26,-1
 427 0 l 1,0,-1
360.5 85.5 m 128,-1,28
 409 118 409 118 426 177 c 1,29,-1
 426 249 l 1,30,-1
 257 249 l 2,31,32
 188 249 188 249 152 226 c 128,-1,33
 116 203 116 203 116 157 c 0,34,35
 116 110 116 110 150.5 81.5 c 128,-1,36
 185 53 185 53 242 53 c 0,37,27
 312 53 312 53 360.5 85.5 c 128,-1,28
EndSplineSet
Substitution2: "<3,3> Small Caps in Latin lookup 11 subtable" a.sc
Substitution2: "<11,2> Diagonal Fractions lookup 7 nested-substitutions 0 subtable" ordfeminine
Substitution2: "<11,2> Diagonal Fractions lookup 5 nested-substitutions 0 subtable" ordfeminine
EndChar

StartChar: b
Encoding: 98 98 70
Width: 675
Flags: W
LayerCount: 2
Fore
SplineSet
509.5 492.5 m 128,-1,1
 567 459 567 459 599 398.5 c 128,-1,2
 631 338 631 338 631 261 c 0,3,4
 631 185 631 185 599 125 c 128,-1,5
 567 65 567 65 510 31.5 c 128,-1,6
 453 -2 453 -2 380 -2 c 0,7,8
 308 -2 308 -2 254 30.5 c 128,-1,9
 200 63 200 63 170 121 c 1,10,-1
 170 0 l 1,11,-1
 103 0 l 1,12,-1
 103 742 l 1,13,-1
 170 742 l 1,14,-1
 170 403 l 1,15,16
 199 461 199 461 253.5 493.5 c 128,-1,17
 308 526 308 526 379 526 c 0,18,0
 452 526 452 526 509.5 492.5 c 128,-1,1
468 82.5 m 128,-1,20
 513 109 513 109 538 156 c 128,-1,21
 563 203 563 203 563 263 c 0,22,23
 563 322 563 322 538 369 c 128,-1,24
 513 416 513 416 468 442.5 c 128,-1,25
 423 469 423 469 367 469 c 0,26,27
 310 469 310 469 265.5 442.5 c 128,-1,28
 221 416 221 416 195.5 369 c 128,-1,29
 170 322 170 322 170 263 c 0,30,31
 170 203 170 203 195 156 c 128,-1,32
 220 109 220 109 265 82.5 c 128,-1,33
 310 56 310 56 367 56 c 0,34,19
 423 56 423 56 468 82.5 c 128,-1,20
EndSplineSet
Substitution2: "<3,3> Small Caps in Latin lookup 11 subtable" b.sc
EndChar

StartChar: c
Encoding: 99 99 71
Width: 561
Flags: W
LayerCount: 2
Fore
SplineSet
306 467 m 0,1,2
 250 467 250 467 205 441 c 128,-1,3
 160 415 160 415 135 368.5 c 128,-1,4
 110 322 110 322 110 262 c 256,5,6
 110 202 110 202 135 155 c 128,-1,7
 160 108 160 108 205 82 c 128,-1,8
 250 56 250 56 306 56 c 0,9,10
 357 56 357 56 399.5 74 c 128,-1,11
 442 92 442 92 471 126 c 1,12,-1
 509 86 l 1,13,14
 474 44 474 44 421 21 c 128,-1,15
 368 -2 368 -2 303 -2 c 0,16,17
 228 -2 228 -2 169 31.5 c 128,-1,18
 110 65 110 65 76.5 125.5 c 128,-1,19
 43 186 43 186 43 262 c 256,20,21
 43 338 43 338 76.5 398.5 c 128,-1,22
 110 459 110 459 169 492.5 c 128,-1,23
 228 526 228 526 303 526 c 0,24,25
 364 526 364 526 414.5 506 c 128,-1,26
 465 486 465 486 501 450 c 1,27,-1
 463 405 l 1,28,0
 399 467 399 467 306 467 c 0,1,2
EndSplineSet
Substitution2: "<3,3> Small Caps in Latin lookup 11 subtable" c.sc
EndChar

StartChar: d
Encoding: 100 100 72
Width: 678
Flags: W
LayerCount: 2
Fore
SplineSet
575 742 m 1,0,-1
 575 0 l 1,1,-1
 508 0 l 1,2,-1
 508 120 l 1,3,4
 478 61 478 61 424 28.5 c 128,-1,5
 370 -4 370 -4 298 -4 c 0,6,7
 224 -4 224 -4 166 30 c 128,-1,8
 108 64 108 64 76 125 c 128,-1,9
 44 186 44 186 44 263 c 256,10,11
 44 340 44 340 76.5 400 c 128,-1,12
 109 460 109 460 166.5 494 c 128,-1,13
 224 528 224 528 297 528 c 0,14,15
 369 528 369 528 423.5 495 c 128,-1,16
 478 462 478 462 508 403 c 1,17,-1
 508 742 l 1,18,-1
 575 742 l 1,0,-1
412 80.5 m 128,-1,20
 457 107 457 107 482.5 154 c 128,-1,21
 508 201 508 201 508 261 c 256,22,23
 508 321 508 321 482.5 368.5 c 128,-1,24
 457 416 457 416 412 443 c 128,-1,25
 367 470 367 470 310 470 c 256,26,27
 253 470 253 470 208 443 c 128,-1,28
 163 416 163 416 137 368.5 c 128,-1,29
 111 321 111 321 111 261 c 256,30,31
 111 201 111 201 136.5 154 c 128,-1,32
 162 107 162 107 207.5 80.5 c 128,-1,33
 253 54 253 54 310 54 c 256,34,19
 367 54 367 54 412 80.5 c 128,-1,20
EndSplineSet
Substitution2: "<3,3> Small Caps in Latin lookup 11 subtable" d.sc
EndChar

StartChar: e
Encoding: 101 101 73
Width: 589
Flags: W
LayerCount: 2
Fore
SplineSet
488 448.5 m 128,-1,1
 552 371 552 371 547 240 c 1,2,-1
 110 240 l 1,3,4
 117 156 117 156 172 104.5 c 128,-1,5
 227 53 227 53 308 53 c 0,6,7
 358 53 358 53 401 71 c 128,-1,8
 444 89 444 89 475 122 c 1,9,-1
 513 84 l 1,10,11
 475 43 475 43 421.5 20.5 c 128,-1,12
 368 -2 368 -2 304 -2 c 0,13,14
 228 -2 228 -2 169 31.5 c 128,-1,15
 110 65 110 65 76.5 125 c 128,-1,16
 43 185 43 185 43 262 c 0,17,18
 43 338 43 338 76.5 398.5 c 128,-1,19
 110 459 110 459 169 492.5 c 128,-1,20
 228 526 228 526 302 526 c 0,21,0
 424 526 424 526 488 448.5 c 128,-1,1
487 292 m 1,22,23
 482 374 482 374 432.5 422.5 c 128,-1,24
 383 471 383 471 303 471 c 0,25,26
 224 471 224 471 171 422 c 128,-1,27
 118 373 118 373 110 292 c 1,28,-1
 487 292 l 1,22,23
EndSplineSet
Substitution2: "<3,3> Small Caps in Latin lookup 11 subtable" e.sc
EndChar

StartChar: f
Encoding: 102 102 74
Width: 325
Flags: W
LayerCount: 2
Fore
SplineSet
207.5 661 m 128,-1,1
 179 632 179 632 179 584 c 2,2,-1
 179 510 l 1,3,-1
 333 510 l 1,4,-1
 333 457 l 1,5,-1
 179 457 l 1,6,-1
 179 0 l 1,7,-1
 112 0 l 1,8,-1
 112 457 l 1,9,-1
 45 457 l 1,10,-1
 45 510 l 1,11,-1
 112 510 l 1,12,-1
 112 576 l 2,13,14
 112 628 112 628 134 667.5 c 128,-1,15
 156 707 156 707 193 728 c 128,-1,16
 230 749 230 749 273 749 c 0,17,18
 322 749 322 749 365 725 c 1,19,-1
 348 671 l 1,20,21
 312 690 312 690 278 690 c 0,22,0
 236 690 236 690 207.5 661 c 128,-1,1
EndSplineSet
Substitution2: "<3,3> Small Caps in Latin lookup 11 subtable" f.sc
EndChar

StartChar: g
Encoding: 103 103 75
Width: 635
Flags: W
LayerCount: 2
Fore
SplineSet
551 524 m 1,0,-1
 551 55 l 2,1,2
 551 -21 551 -21 519 -78 c 128,-1,3
 487 -135 487 -135 427.5 -165.5 c 128,-1,4
 368 -196 368 -196 290 -196 c 0,5,6
 174 -196 174 -196 75 -116 c 1,7,-1
 107 -68 l 1,8,9
 147 -103 147 -103 191 -121 c 128,-1,10
 235 -139 235 -139 287 -139 c 0,11,12
 377 -139 377 -139 430.5 -86.5 c 128,-1,13
 484 -34 484 -34 484 54 c 2,14,-1
 484 139 l 1,15,16
 456 84 456 84 404 53 c 128,-1,17
 352 22 352 22 284 22 c 0,18,19
 214 22 214 22 159.5 54.5 c 128,-1,20
 105 87 105 87 74.5 144.5 c 128,-1,21
 44 202 44 202 44 275 c 256,22,23
 44 348 44 348 74.5 405 c 128,-1,24
 105 462 105 462 160 494 c 128,-1,25
 215 526 215 526 285 526 c 0,26,27
 353 526 353 526 404 495.5 c 128,-1,28
 455 465 455 465 484 409 c 1,29,-1
 484 524 l 1,30,-1
 551 524 l 1,0,-1
393 101.5 m 128,-1,32
 436 127 436 127 460 172 c 128,-1,33
 484 217 484 217 484 273 c 0,34,35
 484 330 484 330 460 375 c 128,-1,36
 436 420 436 420 393 445.5 c 128,-1,37
 350 471 350 471 296 471 c 256,38,39
 242 471 242 471 199 445.5 c 128,-1,40
 156 420 156 420 131.5 375 c 128,-1,41
 107 330 107 330 107 273 c 256,42,43
 107 216 107 216 131.5 171.5 c 128,-1,44
 156 127 156 127 198.5 101.5 c 128,-1,45
 241 76 241 76 296 76 c 0,46,31
 350 76 350 76 393 101.5 c 128,-1,32
EndSplineSet
Substitution2: "<3,3> Small Caps in Latin lookup 11 subtable" g.sc
EndChar

StartChar: h
Encoding: 104 104 76
Width: 660
Flags: W
LayerCount: 2
Fore
SplineSet
525.5 471.5 m 128,-1,1
 579 417 579 417 579 322 c 2,2,-1
 579 0 l 1,3,-1
 511 0 l 1,4,-1
 511 306 l 2,5,6
 511 380 511 380 470 422 c 128,-1,7
 429 464 429 464 356 464 c 0,8,9
 269 463 269 463 219.5 406.5 c 128,-1,10
 170 350 170 350 170 257 c 2,11,-1
 170 0 l 1,12,-1
 103 0 l 1,13,-1
 103 742 l 1,14,-1
 170 742 l 1,15,-1
 170 400 l 1,16,17
 223 524 223 524 378 526 c 0,18,0
 472 526 472 526 525.5 471.5 c 128,-1,1
EndSplineSet
Substitution2: "<3,3> Small Caps in Latin lookup 11 subtable" h.sc
EndChar

StartChar: k
Encoding: 107 107 79
Width: 567
Flags: W
LayerCount: 2
Fore
SplineSet
474 0 m 1,0,-1
 288 273 l 1,1,-1
 170 152 l 1,2,-1
 170 0 l 1,3,-1
 103 0 l 1,4,-1
 103 742 l 1,5,-1
 170 742 l 1,6,-1
 170 238 l 1,7,-1
 452 524 l 1,8,-1
 532 524 l 1,9,-1
 335 321 l 1,10,-1
 555 0 l 1,11,-1
 474 0 l 1,0,-1
EndSplineSet
Substitution2: "<3,3> Small Caps in Latin lookup 11 subtable" k.sc
EndChar

StartChar: l
Encoding: 108 108 80
Width: 273
Flags: W
LayerCount: 2
Fore
SplineSet
103 742 m 1,0,-1
 170 742 l 1,1,-1
 170 0 l 1,2,-1
 103 0 l 1,3,-1
 103 742 l 1,0,-1
EndSplineSet
Substitution2: "<3,3> Small Caps in Latin lookup 11 subtable" l.sc
EndChar

StartChar: m
Encoding: 109 109 81
Width: 1045
Flags: W
LayerCount: 2
Fore
SplineSet
912 472 m 128,-1,1
 964 418 964 418 964 322 c 2,2,-1
 964 0 l 1,3,-1
 896 0 l 1,4,-1
 896 306 l 2,5,6
 896 381 896 381 855.5 422.5 c 128,-1,7
 815 464 815 464 744 464 c 0,8,9
 660 462 660 462 612.5 406 c 128,-1,10
 565 350 565 350 565 258 c 2,11,-1
 565 0 l 1,12,-1
 497 0 l 1,13,-1
 497 306 l 2,14,15
 497 381 497 381 456.5 422.5 c 128,-1,16
 416 464 416 464 345 464 c 0,17,18
 261 462 261 462 213 406 c 128,-1,19
 165 350 165 350 165 258 c 2,20,-1
 165 0 l 1,21,-1
 98 0 l 1,22,-1
 98 524 l 1,23,-1
 165 524 l 1,24,-1
 165 401 l 1,25,26
 191 463 191 463 242.5 494 c 128,-1,27
 294 525 294 525 368 526 c 0,28,29
 443 526 443 526 492.5 489 c 128,-1,30
 542 452 542 452 558 385 c 1,31,32
 582 455 582 455 635.5 490 c 128,-1,33
 689 525 689 525 767 526 c 0,34,0
 860 526 860 526 912 472 c 128,-1,1
EndSplineSet
Substitution2: "<3,3> Small Caps in Latin lookup 11 subtable" m.sc
EndChar

StartChar: n
Encoding: 110 110 82
Width: 654
Flags: W
LayerCount: 2
Fore
SplineSet
519.5 471.5 m 128,-1,1
 573 417 573 417 573 322 c 2,2,-1
 573 0 l 1,3,-1
 505 0 l 1,4,-1
 505 306 l 2,5,6
 505 380 505 380 464 422 c 128,-1,7
 423 464 423 464 350 464 c 0,8,9
 269 463 269 463 220.5 414 c 128,-1,10
 172 365 172 365 165 282 c 1,11,-1
 165 0 l 1,12,-1
 98 0 l 1,13,-1
 98 524 l 1,14,-1
 165 524 l 1,15,-1
 165 402 l 1,16,17
 192 463 192 463 244.5 494 c 128,-1,18
 297 525 297 525 372 526 c 0,19,0
 466 526 466 526 519.5 471.5 c 128,-1,1
EndSplineSet
Substitution2: "<3,3> Small Caps in Latin lookup 11 subtable" n.sc
EndChar

StartChar: o
Encoding: 111 111 83
Width: 616
Flags: W
LayerCount: 2
Fore
SplineSet
444 492.5 m 128,-1,1
 504 459 504 459 538 399 c 128,-1,2
 572 339 572 339 572 263 c 0,3,4
 572 186 572 186 538 125.5 c 128,-1,5
 504 65 504 65 444 31.5 c 128,-1,6
 384 -2 384 -2 308 -2 c 256,7,8
 232 -2 232 -2 172 31.5 c 128,-1,9
 112 65 112 65 78 125.5 c 128,-1,10
 44 186 44 186 44 263 c 0,11,12
 44 339 44 339 78 399 c 128,-1,13
 112 459 112 459 172 492.5 c 128,-1,14
 232 526 232 526 308 526 c 256,15,0
 384 526 384 526 444 492.5 c 128,-1,1
206 442 m 128,-1,17
 161 416 161 416 136 369 c 128,-1,18
 111 322 111 322 111 262 c 0,19,20
 111 201 111 201 136 154 c 128,-1,21
 161 107 161 107 206 81 c 128,-1,22
 251 55 251 55 308 55 c 256,23,24
 365 55 365 55 410 81 c 128,-1,25
 455 107 455 107 480 154 c 128,-1,26
 505 201 505 201 505 262 c 0,27,28
 505 322 505 322 480 369 c 128,-1,29
 455 416 455 416 410 442 c 128,-1,30
 365 468 365 468 308 468 c 256,31,16
 251 468 251 468 206 442 c 128,-1,17
EndSplineSet
Substitution2: "<3,3> Small Caps in Latin lookup 11 subtable" o.sc
Substitution2: "<11,2> Diagonal Fractions lookup 7 nested-substitutions 0 subtable" ordmasculine
Substitution2: "<11,2> Diagonal Fractions lookup 5 nested-substitutions 0 subtable" ordmasculine
EndChar

StartChar: p
Encoding: 112 112 84
Width: 675
Flags: W
LayerCount: 2
Fore
SplineSet
509.5 492.5 m 128,-1,1
 567 459 567 459 599 398.5 c 128,-1,2
 631 338 631 338 631 261 c 0,3,4
 631 185 631 185 599 125 c 128,-1,5
 567 65 567 65 510 31.5 c 128,-1,6
 453 -2 453 -2 380 -2 c 0,7,8
 308 -2 308 -2 254 30.5 c 128,-1,9
 200 63 200 63 170 121 c 1,10,-1
 170 -194 l 1,11,-1
 103 -194 l 1,12,-1
 103 524 l 1,13,-1
 170 524 l 1,14,-1
 170 403 l 1,15,16
 199 461 199 461 253.5 493.5 c 128,-1,17
 308 526 308 526 379 526 c 0,18,0
 452 526 452 526 509.5 492.5 c 128,-1,1
468 82.5 m 128,-1,20
 513 109 513 109 538 156 c 128,-1,21
 563 203 563 203 563 263 c 0,22,23
 563 322 563 322 538 369 c 128,-1,24
 513 416 513 416 468 442.5 c 128,-1,25
 423 469 423 469 367 469 c 0,26,27
 310 469 310 469 265.5 442.5 c 128,-1,28
 221 416 221 416 195.5 369 c 128,-1,29
 170 322 170 322 170 263 c 0,30,31
 170 203 170 203 195 156 c 128,-1,32
 220 109 220 109 265 82.5 c 128,-1,33
 310 56 310 56 367 56 c 0,34,19
 423 56 423 56 468 82.5 c 128,-1,20
EndSplineSet
Substitution2: "<3,3> Small Caps in Latin lookup 11 subtable" p.sc
EndChar

StartChar: q
Encoding: 113 113 85
Width: 678
Flags: W
LayerCount: 2
Fore
SplineSet
575 524 m 1,0,-1
 575 -194 l 1,1,-1
 508 -194 l 1,2,-1
 508 120 l 1,3,4
 478 61 478 61 424 28.5 c 128,-1,5
 370 -4 370 -4 298 -4 c 0,6,7
 224 -4 224 -4 166 30 c 128,-1,8
 108 64 108 64 76 125 c 128,-1,9
 44 186 44 186 44 263 c 256,10,11
 44 340 44 340 76.5 400 c 128,-1,12
 109 460 109 460 166.5 494 c 128,-1,13
 224 528 224 528 297 528 c 0,14,15
 369 528 369 528 423.5 495 c 128,-1,16
 478 462 478 462 508 403 c 1,17,-1
 508 524 l 1,18,-1
 575 524 l 1,0,-1
412 80.5 m 128,-1,20
 457 107 457 107 482.5 154 c 128,-1,21
 508 201 508 201 508 261 c 256,22,23
 508 321 508 321 482.5 368.5 c 128,-1,24
 457 416 457 416 412 443 c 128,-1,25
 367 470 367 470 310 470 c 256,26,27
 253 470 253 470 208 443 c 128,-1,28
 163 416 163 416 137 368.5 c 128,-1,29
 111 321 111 321 111 261 c 256,30,31
 111 201 111 201 136.5 154 c 128,-1,32
 162 107 162 107 207.5 80.5 c 128,-1,33
 253 54 253 54 310 54 c 256,34,19
 367 54 367 54 412 80.5 c 128,-1,20
EndSplineSet
Substitution2: "<3,3> Small Caps in Latin lookup 11 subtable" q.sc
EndChar

StartChar: r
Encoding: 114 114 86
Width: 366
Flags: W
LayerCount: 2
Fore
SplineSet
239.5 493.5 m 128,-1,1
 288 525 288 525 356 526 c 1,2,-1
 356 463 l 1,3,4
 273 464 273 464 222.5 414.5 c 128,-1,5
 172 365 172 365 165 280 c 1,6,-1
 165 0 l 1,7,-1
 98 0 l 1,8,-1
 98 524 l 1,9,-1
 165 524 l 1,10,-1
 165 402 l 1,11,0
 191 462 191 462 239.5 493.5 c 128,-1,1
EndSplineSet
Substitution2: "<3,3> Small Caps in Latin lookup 11 subtable" r.sc
EndChar

StartChar: s
Encoding: 115 115 87
Width: 449
Flags: W
LayerCount: 2
Fore
SplineSet
302 460.5 m 128,-1,1
 265 471 265 471 229 471 c 0,2,3
 179 471 179 471 148.5 451.5 c 128,-1,4
 118 432 118 432 118 393 c 0,5,6
 118 366 118 366 134.5 349 c 128,-1,7
 151 332 151 332 175.5 321.5 c 128,-1,8
 200 311 200 311 244 298 c 0,9,10
 298 282 298 282 332 266.5 c 128,-1,11
 366 251 366 251 390 221.5 c 128,-1,12
 414 192 414 192 414 144 c 0,13,14
 414 73 414 73 360 35.5 c 128,-1,15
 306 -2 306 -2 225 -2 c 0,16,17
 168 -2 168 -2 115 17 c 128,-1,18
 62 36 62 36 26 71 c 1,19,-1
 53 119 l 1,20,21
 87 88 87 88 133.5 70 c 128,-1,22
 180 52 180 52 228 52 c 0,23,24
 281 52 281 52 314.5 74 c 128,-1,25
 348 96 348 96 348 138 c 0,26,27
 348 167 348 167 331 185.5 c 128,-1,28
 314 204 314 204 288.5 214.5 c 128,-1,29
 263 225 263 225 218 239 c 0,30,31
 165 255 165 255 132 270 c 128,-1,32
 99 285 99 285 76 313.5 c 128,-1,33
 53 342 53 342 53 388 c 0,34,35
 53 457 53 457 104.5 492 c 128,-1,36
 156 527 156 527 233 527 c 0,37,38
 278 527 278 527 320 515 c 128,-1,39
 362 503 362 503 395 482 c 1,40,-1
 369 431 l 1,41,0
 339 450 339 450 302 460.5 c 128,-1,1
EndSplineSet
Substitution2: "<3,3> Small Caps in Latin lookup 11 subtable" s.sc
EndChar

StartChar: t
Encoding: 116 116 88
Width: 385
Flags: W
LayerCount: 2
Fore
SplineSet
362 36 m 1,0,1
 308 -1 308 -1 246 -3 c 0,2,3
 186 -3 186 -3 151 34 c 128,-1,4
 116 71 116 71 116 145 c 2,5,-1
 116 457 l 1,6,-1
 41 457 l 1,7,-1
 40 509 l 1,8,-1
 116 509 l 1,9,-1
 116 644 l 1,10,-1
 183 644 l 1,11,-1
 183 509 l 1,12,-1
 353 510 l 1,13,-1
 353 457 l 1,14,-1
 183 457 l 1,15,-1
 183 156 l 2,16,17
 183 59 183 59 255 59 c 0,18,19
 295 59 295 59 342 87 c 1,20,-1
 362 36 l 1,0,1
EndSplineSet
Substitution2: "<3,3> Small Caps in Latin lookup 11 subtable" t.sc
EndChar

StartChar: u
Encoding: 117 117 89
Width: 645
Flags: W
LayerCount: 2
Fore
SplineSet
548 524 m 1,0,-1
 548 0 l 1,1,-1
 480 0 l 1,2,-1
 480 125 l 1,3,4
 454 63 454 63 402.5 31 c 128,-1,5
 351 -1 351 -1 278 -2 c 0,6,7
 185 -2 185 -2 132.5 52.5 c 128,-1,8
 80 107 80 107 80 202 c 2,9,-1
 80 524 l 1,10,-1
 148 524 l 1,11,-1
 148 218 l 2,12,13
 148 144 148 144 188.5 102.5 c 128,-1,14
 229 61 229 61 300 61 c 0,15,16
 384 62 384 62 432 118.5 c 128,-1,17
 480 175 480 175 480 267 c 2,18,-1
 480 524 l 1,19,-1
 548 524 l 1,0,-1
EndSplineSet
Substitution2: "<3,3> Small Caps in Latin lookup 11 subtable" u.sc
EndChar

StartChar: v
Encoding: 118 118 90
Width: 491
Flags: W
LayerCount: 2
Fore
SplineSet
5 524 m 1,0,-1
 77 524 l 1,1,-1
 251 67 l 1,2,-1
 423 524 l 1,3,-1
 493 524 l 1,4,-1
 285 0 l 1,5,-1
 214 0 l 1,6,-1
 5 524 l 1,0,-1
EndSplineSet
Substitution2: "<3,3> Small Caps in Latin lookup 11 subtable" v.sc
EndChar

StartChar: w
Encoding: 119 119 91
Width: 856
Flags: W
LayerCount: 2
Fore
SplineSet
5 524 m 1,0,-1
 77 524 l 1,1,-1
 238 67 l 1,2,-1
 397 524 l 1,3,-1
 468 524 l 1,4,-1
 628 67 l 1,5,-1
 788 524 l 1,6,-1
 858 524 l 1,7,-1
 662 0 l 1,8,-1
 592 0 l 1,9,-1
 432 443 l 1,10,-1
 272 0 l 1,11,-1
 202 0 l 1,12,-1
 5 524 l 1,0,-1
EndSplineSet
Substitution2: "<3,3> Small Caps in Latin lookup 11 subtable" w.sc
EndChar

StartChar: x
Encoding: 120 120 92
Width: 522
Flags: W
LayerCount: 2
Fore
SplineSet
37 524 m 1,0,-1
 115 524 l 1,1,-1
 261 316 l 1,2,-1
 408 524 l 1,3,-1
 483 524 l 1,4,-1
 305 270 l 1,5,-1
 496 0 l 1,6,-1
 417 0 l 1,7,-1
 260 224 l 1,8,-1
 99 0 l 1,9,-1
 23 0 l 1,10,-1
 216 270 l 1,11,-1
 37 524 l 1,0,-1
EndSplineSet
Substitution2: "<3,3> Small Caps in Latin lookup 11 subtable" x.sc
EndChar

StartChar: y
Encoding: 121 121 93
Width: 494
Flags: W
LayerCount: 2
Fore
SplineSet
190.5 -166 m 128,-1,1
 151 -197 151 -197 100 -197 c 0,2,3
 39 -197 39 -197 -8 -161 c 1,4,-1
 22 -109 l 1,5,6
 57 -133 57 -133 97 -133 c 0,7,8
 129 -133 129 -133 155 -112 c 128,-1,9
 181 -91 181 -91 198 -51 c 2,10,-1
 220 3 l 1,11,-1
 3 524 l 1,12,-1
 74 524 l 1,13,-1
 254 74 l 1,14,-1
 427 524 l 1,15,-1
 496 524 l 1,16,-1
 254 -75 l 2,17,0
 230 -135 230 -135 190.5 -166 c 128,-1,1
EndSplineSet
Substitution2: "<3,3> Small Caps in Latin lookup 11 subtable" y.sc
EndChar

StartChar: z
Encoding: 122 122 94
Width: 524
Flags: W
LayerCount: 2
Fore
SplineSet
63 524 m 1,0,-1
 472 523 l 1,1,-1
 472 473 l 1,2,-1
 134 56 l 1,3,-1
 479 55 l 1,4,-1
 479 -1 l 1,5,-1
 53 0 l 1,6,-1
 53 51 l 1,7,-1
 391 468 l 1,8,-1
 63 469 l 1,9,-1
 63 524 l 1,0,-1
EndSplineSet
Substitution2: "<3,3> Small Caps in Latin lookup 11 subtable" z.sc
EndChar

StartChar: braceleft
Encoding: 123 123 95
Width: 331
Flags: W
LayerCount: 2
Fore
SplineSet
189 359 m 128,-1,1
 182 343 182 343 170 333 c 128,-1,2
 158 323 158 323 132 308 c 1,3,4
 158 292 158 292 170 283 c 128,-1,5
 182 274 182 274 189 257.5 c 128,-1,6
 196 241 196 241 196 213 c 2,7,-1
 196 5 l 2,8,9
 196 -35 196 -35 219.5 -53 c 128,-1,10
 243 -71 243 -71 297 -71 c 1,11,-1
 297 -126 l 1,12,-1
 273 -126 l 2,13,14
 200 -126 200 -126 167 -99 c 128,-1,15
 134 -72 134 -72 134 -11 c 2,16,-1
 134 217 l 2,17,18
 134 250 134 250 122 265 c 128,-1,19
 110 280 110 280 85 280 c 2,20,-1
 60 280 l 1,21,-1
 60 336 l 1,22,-1
 85 336 l 2,23,24
 134 336 134 336 134 399 c 2,25,-1
 134 628 l 2,26,27
 134 689 134 689 167 716 c 128,-1,28
 200 743 200 743 273 743 c 2,29,-1
 297 743 l 1,30,-1
 297 688 l 1,31,32
 243 688 243 688 219.5 669.5 c 128,-1,33
 196 651 196 651 196 611 c 2,34,-1
 196 403 l 2,35,0
 196 375 196 375 189 359 c 128,-1,1
EndSplineSet
Substitution2: "'rtla' Right to Left Alternates in Latin lookup 0 subtable" braceright
EndChar

StartChar: bar
Encoding: 124 124 96
Width: 245
Flags: W
LayerCount: 2
Fore
SplineSet
95 817 m 1,0,-1
 149 817 l 1,1,-1
 149 -123 l 1,2,-1
 95 -123 l 1,3,-1
 95 817 l 1,0,-1
EndSplineSet
EndChar

StartChar: braceright
Encoding: 125 125 97
Width: 331
Flags: W
LayerCount: 2
Fore
SplineSet
271 336 m 1,0,-1
 271 280 l 1,1,-1
 246 280 l 2,2,3
 221 280 221 280 209 265 c 128,-1,4
 197 250 197 250 197 217 c 2,5,-1
 197 -11 l 2,6,7
 197 -72 197 -72 164 -99 c 128,-1,8
 131 -126 131 -126 58 -126 c 2,9,-1
 34 -126 l 1,10,-1
 34 -71 l 1,11,12
 88 -71 88 -71 111.5 -53 c 128,-1,13
 135 -35 135 -35 135 5 c 2,14,-1
 135 213 l 2,15,16
 135 241 135 241 142 257.5 c 128,-1,17
 149 274 149 274 161 283 c 128,-1,18
 173 292 173 292 199 308 c 1,19,20
 173 323 173 323 161 333 c 128,-1,21
 149 343 149 343 142 359 c 128,-1,22
 135 375 135 375 135 403 c 2,23,-1
 135 611 l 2,24,25
 135 651 135 651 111.5 669.5 c 128,-1,26
 88 688 88 688 34 688 c 1,27,-1
 34 743 l 1,28,-1
 58 743 l 2,29,30
 131 743 131 743 164 716 c 128,-1,31
 197 689 197 689 197 628 c 2,32,-1
 197 399 l 2,33,34
 197 336 197 336 246 336 c 2,35,-1
 271 336 l 1,0,-1
EndSplineSet
Substitution2: "'rtla' Right to Left Alternates in Latin lookup 0 subtable" braceleft
EndChar

StartChar: asciitilde
Encoding: 126 126 98
Width: 489
Flags: W
LayerCount: 2
Fore
SplineSet
393.5 287.5 m 128,-1,1
 372 259 372 259 332 259 c 0,2,3
 308 259 308 259 286 268.5 c 128,-1,4
 264 278 264 278 236 295 c 0,5,6
 214 309 214 309 198.5 316 c 128,-1,7
 183 323 183 323 169 323 c 0,8,9
 147 323 147 323 135.5 308.5 c 128,-1,10
 124 294 124 294 124 268 c 1,11,-1
 75 268 l 1,12,13
 75 321 75 321 96 349 c 128,-1,14
 117 377 117 377 158 377 c 0,15,16
 180 377 180 377 201 368 c 128,-1,17
 222 359 222 359 251 342 c 0,18,19
 275 328 275 328 291 320.5 c 128,-1,20
 307 313 307 313 321 313 c 0,21,22
 343 313 343 313 354.5 327.5 c 128,-1,23
 366 342 366 342 366 369 c 1,24,-1
 415 369 l 1,25,0
 415 316 415 316 393.5 287.5 c 128,-1,1
EndSplineSet
EndChar

StartChar: exclamdown
Encoding: 161 161 100
Width: 201
Flags: W
LayerCount: 2
Fore
SplineSet
76 453 m 128,-1,1
 63 466 63 466 63 485 c 256,2,3
 63 504 63 504 76 517.5 c 128,-1,4
 89 531 89 531 108 531 c 256,5,6
 127 531 127 531 139.5 518 c 128,-1,7
 152 505 152 505 152 485 c 0,8,9
 152 466 152 466 139.5 453 c 128,-1,10
 127 440 127 440 108 440 c 256,11,0
 89 440 89 440 76 453 c 128,-1,1
140 -164 m 1,12,-1
 75 -164 l 1,13,-1
 75 4 l 1,14,-1
 85 318 l 1,15,-1
 131 318 l 1,16,-1
 140 4 l 1,17,-1
 140 -164 l 1,12,-1
EndSplineSet
Substitution2: "<3,3> Small Caps in Latin lookup 11 subtable" exclamdown.sc
EndChar

StartChar: cent
Encoding: 162 162 101
Width: 600
Flags: W
LayerCount: 2
Fore
SplineSet
433 25.5 m 128,-1,1
 388 3 388 3 332 -1 c 1,2,-1
 332 -140 l 1,3,-1
 278 -140 l 1,4,-1
 278 -1 l 1,5,6
 210 4 210 4 156.5 39 c 128,-1,7
 103 74 103 74 73 132 c 128,-1,8
 43 190 43 190 43 262 c 256,9,10
 43 334 43 334 73 392 c 128,-1,11
 103 450 103 450 156.5 485 c 128,-1,12
 210 520 210 520 278 525 c 1,13,-1
 278 669 l 1,14,-1
 332 669 l 1,15,-1
 332 525 l 1,16,17
 383 521 383 521 426.5 501.5 c 128,-1,18
 470 482 470 482 501 450 c 1,19,-1
 463 405 l 1,20,21
 399 467 399 467 306 467 c 0,22,23
 250 467 250 467 205 441 c 128,-1,24
 160 415 160 415 135 368.5 c 128,-1,25
 110 322 110 322 110 262 c 256,26,27
 110 202 110 202 135 155 c 128,-1,28
 160 108 160 108 205 82 c 128,-1,29
 250 56 250 56 306 56 c 0,30,31
 357 56 357 56 399.5 74 c 128,-1,32
 442 92 442 92 471 126 c 1,33,-1
 509 86 l 1,34,0
 478 48 478 48 433 25.5 c 128,-1,1
EndSplineSet
EndChar

StartChar: sterling
Encoding: 163 163 102
Width: 540
Flags: W
LayerCount: 2
Fore
SplineSet
202 57 m 1,0,-1
 500 57 l 1,1,-1
 500 0 l 1,2,-1
 45 0 l 1,3,-1
 45 57 l 1,4,-1
 133 57 l 1,5,-1
 133 326 l 1,6,-1
 45 326 l 1,7,-1
 45 367 l 1,8,-1
 133 367 l 1,9,-1
 133 493 l 2,10,11
 133 594 133 594 183 648 c 128,-1,12
 233 702 233 702 326 702 c 0,13,14
 380 702 380 702 428 677.5 c 128,-1,15
 476 653 476 653 512 608 c 1,16,-1
 481 556 l 1,17,18
 450 597 450 597 412 618.5 c 128,-1,19
 374 640 374 640 332 640 c 0,20,21
 269 640 269 640 235.5 602 c 128,-1,22
 202 564 202 564 202 492 c 2,23,-1
 202 367 l 1,24,-1
 386 367 l 1,25,-1
 386 326 l 1,26,-1
 202 326 l 1,27,-1
 202 57 l 1,0,-1
EndSplineSet
EndChar

StartChar: currency
Encoding: 164 164 103
Width: 719
Flags: W
LayerCount: 2
Fore
SplineSet
618 226.5 m 128,-1,1
 601 183 601 183 570 148 c 1,2,-1
 675 42 l 1,3,-1
 635 1 l 1,4,-1
 528 108 l 1,5,6
 493 81 493 81 449.5 66.5 c 128,-1,7
 406 52 406 52 359 52 c 256,8,9
 312 52 312 52 269 67 c 128,-1,10
 226 82 226 82 191 109 c 1,11,-1
 83 1 l 1,12,-1
 43 42 l 1,13,-1
 148 148 l 1,14,15
 118 183 118 183 101.5 227 c 128,-1,16
 85 271 85 271 85 318 c 256,17,18
 85 365 85 365 101 408.5 c 128,-1,19
 117 452 117 452 147 488 c 1,20,-1
 43 593 l 1,21,-1
 83 634 l 1,22,-1
 189 528 l 1,23,24
 225 556 225 556 268.5 571 c 128,-1,25
 312 586 312 586 359 586 c 0,26,27
 454 586 454 586 530 528 c 1,28,-1
 635 634 l 1,29,-1
 675 593 l 1,30,-1
 572 489 l 1,31,32
 602 453 602 453 618.5 409.5 c 128,-1,33
 635 366 635 366 635 318 c 256,34,0
 635 270 635 270 618 226.5 c 128,-1,1
170.5 213 m 128,-1,36
 200 165 200 165 250 137 c 128,-1,37
 300 109 300 109 359 109 c 0,38,39
 419 109 419 109 469.5 137 c 128,-1,40
 520 165 520 165 550 213 c 128,-1,41
 580 261 580 261 580 318 c 256,42,43
 580 375 580 375 550 423.5 c 128,-1,44
 520 472 520 472 469.5 500.5 c 128,-1,45
 419 529 419 529 359 529 c 0,46,47
 300 529 300 529 250 500.5 c 128,-1,48
 200 472 200 472 170.5 423.5 c 128,-1,49
 141 375 141 375 141 318 c 256,50,35
 141 261 141 261 170.5 213 c 128,-1,36
EndSplineSet
EndChar

StartChar: yen
Encoding: 165 165 104
Width: 621
Flags: W
LayerCount: 2
Fore
SplineSet
616 700 m 1,0,-1
 370 288 l 1,1,-1
 557 288 l 1,2,-1
 557 247 l 1,3,-1
 347 247 l 1,4,-1
 347 173 l 1,5,-1
 557 173 l 1,6,-1
 557 132 l 1,7,-1
 347 132 l 1,8,-1
 347 0 l 1,9,-1
 278 0 l 1,10,-1
 278 132 l 1,11,-1
 68 132 l 1,12,-1
 68 173 l 1,13,-1
 278 173 l 1,14,-1
 278 247 l 1,15,-1
 68 247 l 1,16,-1
 68 288 l 1,17,-1
 254 288 l 1,18,-1
 5 700 l 1,19,-1
 77 700 l 1,20,-1
 312 323 l 1,21,-1
 544 700 l 1,22,-1
 616 700 l 1,0,-1
EndSplineSet
EndChar

StartChar: brokenbar
Encoding: 166 166 105
Width: 245
Flags: W
LayerCount: 2
Fore
SplineSet
95 817 m 1,0,-1
 149 817 l 1,1,-1
 149 468 l 1,2,-1
 95 468 l 1,3,-1
 95 817 l 1,0,-1
95 227 m 1,4,-1
 149 227 l 1,5,-1
 149 -123 l 1,6,-1
 95 -123 l 1,7,-1
 95 227 l 1,4,-1
EndSplineSet
EndChar

StartChar: section
Encoding: 167 167 106
Width: 465
Flags: W
LayerCount: 2
Fore
SplineSet
243 645 m 0,1,2
 188 645 188 645 155 623.5 c 128,-1,3
 122 602 122 602 122 564 c 0,4,5
 122 535 122 535 140.5 515.5 c 128,-1,6
 159 496 159 496 185.5 485 c 128,-1,7
 212 474 212 474 260 459 c 0,8,9
 315 442 315 442 349 426.5 c 128,-1,10
 383 411 383 411 407 383 c 128,-1,11
 431 355 431 355 431 310 c 0,12,13
 431 261 431 261 396.5 225 c 128,-1,14
 362 189 362 189 316 179 c 1,15,16
 369 159 369 159 394 130 c 128,-1,17
 419 101 419 101 419 58 c 0,18,19
 419 -5 419 -5 366 -44 c 128,-1,20
 313 -83 313 -83 229 -83 c 0,21,22
 171 -83 171 -83 118 -63 c 128,-1,23
 65 -43 65 -43 26 -8 c 1,24,-1
 50 35 l 1,25,26
 88 2 88 2 133.5 -15.5 c 128,-1,27
 179 -33 179 -33 227 -33 c 0,28,29
 283 -33 283 -33 320.5 -8 c 128,-1,30
 358 17 358 17 358 57 c 0,31,32
 358 86 358 86 340 105 c 128,-1,33
 322 124 322 124 295.5 135 c 128,-1,34
 269 146 269 146 222 161 c 0,35,36
 166 179 166 179 132.5 194.5 c 128,-1,37
 99 210 99 210 75 238 c 128,-1,38
 51 266 51 266 51 311 c 0,39,40
 51 361 51 361 86.5 393.5 c 128,-1,41
 122 426 122 426 185 435 c 1,42,43
 119 458 119 458 90.5 487.5 c 128,-1,44
 62 517 62 517 62 561 c 0,45,46
 62 621 62 621 112 657.5 c 128,-1,47
 162 694 162 694 243 694 c 0,48,49
 333 694 333 694 407 648 c 1,50,-1
 383 605 l 1,51,0
 317 645 317 645 243 645 c 0,1,2
143.5 375.5 m 128,-1,53
 110 354 110 354 110 318 c 0,54,55
 110 290 110 290 130 266.5 c 128,-1,56
 150 243 150 243 183.5 229 c 128,-1,57
 217 215 217 215 255 215 c 0,58,59
 306 215 306 215 338 240 c 128,-1,60
 370 265 370 265 370 304 c 0,61,62
 370 346 370 346 333 371.5 c 128,-1,63
 296 397 296 397 234 397 c 0,64,52
 177 397 177 397 143.5 375.5 c 128,-1,53
EndSplineSet
EndChar

StartChar: copyright
Encoding: 169 169 108
Width: 761
Flags: W
LayerCount: 2
Fore
SplineSet
551.5 643.5 m 128,-1,1
 629 598 629 598 674 520 c 128,-1,2
 719 442 719 442 719 350 c 0,3,4
 719 259 719 259 674 180.5 c 128,-1,5
 629 102 629 102 551 55.5 c 128,-1,6
 473 9 473 9 379 9 c 0,7,8
 286 9 286 9 208.5 55 c 128,-1,9
 131 101 131 101 86.5 179 c 128,-1,10
 42 257 42 257 42 348 c 256,11,12
 42 439 42 439 87 517.5 c 128,-1,13
 132 596 132 596 209.5 642.5 c 128,-1,14
 287 689 287 689 381 689 c 0,15,0
 474 689 474 689 551.5 643.5 c 128,-1,1
229 609 m 128,-1,17
 160 568 160 568 120.5 499 c 128,-1,18
 81 430 81 430 81 348 c 256,19,20
 81 266 81 266 120.5 197.5 c 128,-1,21
 160 129 160 129 228 88.5 c 128,-1,22
 296 48 296 48 379 48 c 0,23,24
 463 48 463 48 532 89 c 128,-1,25
 601 130 601 130 641 199 c 128,-1,26
 681 268 681 268 681 350 c 256,27,28
 681 432 681 432 641.5 500.5 c 128,-1,29
 602 569 602 569 533 609.5 c 128,-1,30
 464 650 464 650 381 650 c 256,31,16
 298 650 298 650 229 609 c 128,-1,17
443 479 m 128,-1,33
 416 490 416 490 386 490 c 0,34,35
 347 490 347 490 314 471 c 128,-1,36
 281 452 281 452 261.5 420 c 128,-1,37
 242 388 242 388 242 350 c 0,38,39
 242 311 242 311 261.5 278.5 c 128,-1,40
 281 246 281 246 314 227 c 128,-1,41
 347 208 347 208 386 208 c 0,42,43
 415 208 415 208 442.5 219 c 128,-1,44
 470 230 470 230 491 249 c 1,45,-1
 515 224 l 1,46,47
 489 199 489 199 454.5 185 c 128,-1,48
 420 171 420 171 384 171 c 0,49,50
 334 171 334 171 292.5 195 c 128,-1,51
 251 219 251 219 226.5 259.5 c 128,-1,52
 202 300 202 300 202 349 c 0,53,54
 202 397 202 397 226.5 438 c 128,-1,55
 251 479 251 479 293 502.5 c 128,-1,56
 335 526 335 526 386 526 c 0,57,58
 421 526 421 526 455 512.5 c 128,-1,59
 489 499 489 499 515 475 c 1,60,-1
 491 447 l 1,61,32
 470 468 470 468 443 479 c 128,-1,33
EndSplineSet
EndChar

StartChar: ordfeminine
Encoding: 170 170 109
Width: 379
Flags: W
LayerCount: 2
Fore
SplineSet
269 458 m 1,0,-1
 269 515 l 1,1,2
 231 456 231 456 147 456 c 0,3,4
 99 456 99 456 70.5 481.5 c 128,-1,5
 42 507 42 507 42 548 c 0,6,7
 42 588 42 588 74 610 c 128,-1,8
 106 632 106 632 163 632 c 2,9,-1
 269 632 l 1,10,-1
 269 656 l 2,11,12
 268 690 268 690 246 709 c 128,-1,13
 224 728 224 728 182 728 c 0,14,15
 131 728 131 728 74 693 c 1,16,-1
 59 728 l 1,17,18
 128 768 128 768 193 768 c 0,19,20
 253 768 253 768 286 739.5 c 128,-1,21
 319 711 319 711 318 661 c 2,22,-1
 319 458 l 1,23,-1
 269 458 l 1,0,-1
269 556 m 1,25,-1
 269 604 l 1,26,-1
 172 604 l 2,27,28
 133 604 133 604 111.5 590 c 128,-1,29
 90 576 90 576 90 551 c 0,30,31
 90 525 90 525 110 508.5 c 128,-1,32
 130 492 130 492 163 492 c 0,33,24
 240 492 240 492 269 556 c 1,25,-1
EndSplineSet
EndChar

StartChar: logicalnot
Encoding: 172 172 111
Width: 548
Flags: W
LayerCount: 2
Fore
SplineSet
463 381 m 1,0,-1
 463 153 l 1,1,-1
 411 153 l 1,2,-1
 411 333 l 1,3,-1
 38 333 l 1,4,-1
 38 381 l 1,5,-1
 463 381 l 1,0,-1
EndSplineSet
EndChar

StartChar: uni00AD
Encoding: 173 173 112
Width: 363
Flags: W
LayerCount: 2
Fore
SplineSet
65 327 m 1,0,-1
 297 327 l 1,1,-1
 297 278 l 1,2,-1
 65 278 l 1,3,-1
 65 327 l 1,0,-1
EndSplineSet
EndChar

StartChar: registered
Encoding: 174 174 113
Width: 761
Flags: W
LayerCount: 2
Fore
SplineSet
551.5 643.5 m 128,-1,1
 629 598 629 598 674 520 c 128,-1,2
 719 442 719 442 719 350 c 0,3,4
 719 259 719 259 674 180.5 c 128,-1,5
 629 102 629 102 551 55.5 c 128,-1,6
 473 9 473 9 379 9 c 0,7,8
 286 9 286 9 208.5 55 c 128,-1,9
 131 101 131 101 86.5 179 c 128,-1,10
 42 257 42 257 42 348 c 256,11,12
 42 439 42 439 87 517.5 c 128,-1,13
 132 596 132 596 209.5 642.5 c 128,-1,14
 287 689 287 689 381 689 c 0,15,0
 474 689 474 689 551.5 643.5 c 128,-1,1
532 89 m 128,-1,17
 601 130 601 130 641 199 c 128,-1,18
 681 268 681 268 681 350 c 256,19,20
 681 432 681 432 641.5 500.5 c 128,-1,21
 602 569 602 569 533 609.5 c 128,-1,22
 464 650 464 650 381 650 c 256,23,24
 298 650 298 650 229 609 c 128,-1,25
 160 568 160 568 120.5 499 c 128,-1,26
 81 430 81 430 81 348 c 256,27,28
 81 266 81 266 120.5 197.5 c 128,-1,29
 160 129 160 129 228 88.5 c 128,-1,30
 296 48 296 48 379 48 c 0,31,16
 463 48 463 48 532 89 c 128,-1,17
506 343 m 128,-1,33
 485 313 485 313 445 301 c 1,34,-1
 532 178 l 1,35,-1
 486 178 l 1,36,-1
 409 294 l 1,37,38
 402 293 402 293 386 293 c 2,39,-1
 291 293 l 1,40,-1
 291 178 l 1,41,-1
 253 178 l 1,42,-1
 253 536 l 1,43,-1
 386 536 l 2,44,45
 454 536 454 536 490.5 505 c 128,-1,46
 527 474 527 474 527 417 c 0,47,32
 527 373 527 373 506 343 c 128,-1,33
386 327 m 2,48,49
 436 327 436 327 463 350 c 128,-1,50
 490 373 490 373 490 416 c 0,51,52
 490 458 490 458 463 480 c 128,-1,53
 436 502 436 502 386 502 c 2,54,-1
 291 502 l 1,55,-1
 291 327 l 1,56,-1
 386 327 l 2,48,49
EndSplineSet
EndChar

StartChar: degree
Encoding: 176 176 115
Width: 323
Flags: W
LayerCount: 2
Fore
SplineSet
273 769.5 m 128,-1,1
 307 736 307 736 307 691 c 0,2,3
 307 645 307 645 273 612.5 c 128,-1,4
 239 580 239 580 192 580 c 0,5,6
 146 580 146 580 112 613 c 128,-1,7
 78 646 78 646 78 691 c 0,8,9
 78 720 78 720 93.5 746 c 128,-1,10
 109 772 109 772 135.5 787.5 c 128,-1,11
 162 803 162 803 192 803 c 0,12,0
 239 803 239 803 273 769.5 c 128,-1,1
136.5 745 m 128,-1,14
 113 722 113 722 113 691 c 256,15,16
 113 660 113 660 136.5 637.5 c 128,-1,17
 160 615 160 615 192 615 c 0,18,19
 225 615 225 615 249 637.5 c 128,-1,20
 273 660 273 660 273 691 c 256,21,22
 273 722 273 722 249 745 c 128,-1,23
 225 768 225 768 192 768 c 0,24,13
 160 768 160 768 136.5 745 c 128,-1,14
EndSplineSet
EndChar

StartChar: plusminus
Encoding: 177 177 116
Width: 489
Flags: W
LayerCount: 2
Fore
SplineSet
268 404 m 1,0,-1
 452 404 l 1,1,-1
 452 356 l 1,2,-1
 268 356 l 1,3,-1
 268 175 l 1,4,-1
 221 175 l 1,5,-1
 221 356 l 1,6,-1
 38 356 l 1,7,-1
 38 404 l 1,8,-1
 221 404 l 1,9,-1
 221 584 l 1,10,-1
 268 584 l 1,11,-1
 268 404 l 1,0,-1
38 38 m 1,12,-1
 38 87 l 1,13,-1
 452 87 l 1,14,-1
 452 38 l 1,15,-1
 38 38 l 1,12,-1
EndSplineSet
EndChar

StartChar: paragraph
Encoding: 182 182 121
Width: 586
Flags: W
LayerCount: 2
Fore
SplineSet
178 387 m 0,1,2
 114 387 114 387 74.5 414.5 c 128,-1,3
 35 442 35 442 19 481.5 c 128,-1,4
 3 521 3 521 3 561 c 0,5,6
 3 638 3 638 55.5 690 c 128,-1,7
 108 742 108 742 214 742 c 2,8,-1
 476 742 l 1,9,-1
 476 -110 l 1,10,-1
 422 -110 l 1,11,-1
 422 697 l 1,12,-1
 266 697 l 1,13,-1
 266 -110 l 1,14,-1
 212 -110 l 1,15,-1
 212 389 l 1,16,0
 188 387 188 387 178 387 c 0,1,2
EndSplineSet
EndChar

StartChar: ordmasculine
Encoding: 186 186 125
Width: 402
Flags: W
LayerCount: 2
Fore
SplineSet
318 724.5 m 128,-1,1
 364 681 364 681 364 612 c 256,2,3
 364 543 364 543 318.5 500 c 128,-1,4
 273 457 273 457 201 457 c 0,5,6
 128 457 128 457 82.5 500 c 128,-1,7
 37 543 37 543 37 612 c 256,8,9
 37 681 37 681 82.5 724.5 c 128,-1,10
 128 768 128 768 201 768 c 0,11,0
 272 768 272 768 318 724.5 c 128,-1,1
119.5 694.5 m 128,-1,13
 88 663 88 663 88 612 c 256,14,15
 88 561 88 561 119.5 529 c 128,-1,16
 151 497 151 497 201 497 c 0,17,18
 250 497 250 497 281 529 c 128,-1,19
 312 561 312 561 312 612 c 256,20,21
 312 663 312 663 281 694.5 c 128,-1,22
 250 726 250 726 201 726 c 0,23,12
 151 726 151 726 119.5 694.5 c 128,-1,13
EndSplineSet
EndChar

StartChar: questiondown
Encoding: 191 191 130
Width: 419
Flags: W
LayerCount: 2
Fore
SplineSet
193 453 m 128,-1,1
 180 466 180 466 180 485 c 256,2,3
 180 504 180 504 193 517.5 c 128,-1,4
 206 531 206 531 225 531 c 256,5,6
 244 531 244 531 256.5 518 c 128,-1,7
 269 505 269 505 269 485 c 0,8,9
 269 466 269 466 256.5 453 c 128,-1,10
 244 440 244 440 225 440 c 256,11,0
 206 440 206 440 193 453 c 128,-1,1
340 -119.5 m 128,-1,13
 289 -164 289 -164 205 -164 c 256,14,15
 121 -164 121 -164 69.5 -123 c 128,-1,16
 18 -82 18 -82 18 -5 c 0,17,18
 18 34 18 34 30.5 63.5 c 128,-1,19
 43 93 43 93 61.5 113 c 128,-1,20
 80 133 80 133 110 159 c 0,21,22
 153 195 153 195 175 226.5 c 128,-1,23
 197 258 197 258 197 307 c 1,24,-1
 251 307 l 1,25,26
 251 266 251 266 238.5 236 c 128,-1,27
 226 206 226 206 208 186 c 128,-1,28
 190 166 190 166 161 141 c 0,29,30
 133 116 133 116 118 99.5 c 128,-1,31
 103 83 103 83 92.5 59 c 128,-1,32
 82 35 82 35 82 3 c 0,33,34
 82 -51 82 -51 116.5 -78.5 c 128,-1,35
 151 -106 151 -106 210 -106 c 256,36,37
 269 -106 269 -106 303 -77 c 128,-1,38
 337 -48 337 -48 340 8 c 1,39,-1
 395 6 l 1,40,12
 391 -75 391 -75 340 -119.5 c 128,-1,13
EndSplineSet
Substitution2: "<3,3> Small Caps in Latin lookup 11 subtable" questiondown.sc
EndChar

StartChar: AE
Encoding: 198 198 137
Width: 1019
Flags: W
LayerCount: 2
Fore
SplineSet
548 62 m 1,0,-1
 961 62 l 1,1,-1
 961 0 l 1,2,-1
 480 0 l 1,3,-1
 480 199 l 1,4,-1
 195 199 l 1,5,-1
 79 0 l 1,6,-1
 5 0 l 1,7,-1
 419 699 l 1,8,-1
 480 699 l 1,9,-1
 480 700 l 1,10,-1
 948 700 l 1,11,-1
 948 637 l 1,12,-1
 548 637 l 1,13,-1
 548 387 l 1,14,-1
 905 387 l 1,15,-1
 905 325 l 1,16,-1
 548 325 l 1,17,-1
 548 62 l 1,0,-1
227 254 m 1,18,-1
 480 254 l 1,19,-1
 480 642 l 1,20,-1
 453 642 l 1,21,-1
 227 254 l 1,18,-1
EndSplineSet
EndChar

StartChar: Ccedilla
Encoding: 199 199 138
Width: 701
Flags: W
LayerCount: 2
Fore
SplineSet
467.5 -79 m 128,-1,1
 488 -101 488 -101 488 -130 c 0,2,3
 488 -168 488 -168 459.5 -192 c 128,-1,4
 431 -216 431 -216 385 -216 c 0,5,6
 364 -216 364 -216 341 -210 c 128,-1,7
 318 -204 318 -204 300 -194 c 1,8,-1
 316 -151 l 1,9,10
 329 -158 329 -158 346 -162.5 c 128,-1,11
 363 -167 363 -167 378 -167 c 0,12,13
 404 -167 404 -167 418.5 -154 c 128,-1,14
 433 -141 433 -141 433 -124 c 0,15,16
 433 -108 433 -108 418.5 -96.5 c 128,-1,17
 404 -85 404 -85 379 -85 c 2,18,-1
 349 -85 l 1,19,-1
 373 -5 l 1,20,21
 281 2 281 2 205.5 51.5 c 128,-1,22
 130 101 130 101 86 180 c 128,-1,23
 42 259 42 259 42 351 c 0,24,25
 42 448 42 448 91 529 c 128,-1,26
 140 610 140 610 223.5 657.5 c 128,-1,27
 307 705 307 705 406 705 c 0,28,29
 477 705 477 705 543 678.5 c 128,-1,30
 609 652 609 652 659 605 c 1,31,-1
 618 557 l 1,32,33
 576 598 576 598 521 621 c 128,-1,34
 466 644 466 644 407 644 c 0,35,36
 326 644 326 644 258.5 605 c 128,-1,37
 191 566 191 566 151.5 498.5 c 128,-1,38
 112 431 112 431 112 351 c 256,39,40
 112 271 112 271 151.5 204 c 128,-1,41
 191 137 191 137 258.5 97.5 c 128,-1,42
 326 58 326 58 407 58 c 0,43,44
 465 58 465 58 520 80.5 c 128,-1,45
 575 103 575 103 618 143 c 1,46,-1
 660 98 l 1,47,48
 611 53 611 53 549 25.5 c 128,-1,49
 487 -2 487 -2 422 -5 c 1,50,-1
 407 -53 l 1,51,0
 447 -57 447 -57 467.5 -79 c 128,-1,1
EndSplineSet
EndChar

StartChar: multiply
Encoding: 215 215 154
Width: 489
Flags: W
LayerCount: 2
Fore
SplineSet
407 451 m 1,0,-1
 278 322 l 1,1,-1
 407 193 l 1,2,-1
 374 159 l 1,3,-1
 245 289 l 1,4,-1
 115 159 l 1,5,-1
 82 193 l 1,6,-1
 211 322 l 1,7,-1
 82 451 l 1,8,-1
 115 486 l 1,9,-1
 245 356 l 1,10,-1
 374 486 l 1,11,-1
 407 451 l 1,0,-1
EndSplineSet
EndChar

StartChar: Oslash
Encoding: 216 216 155
Width: 814
Flags: W
LayerCount: 2
Fore
SplineSet
735 506 m 128,-1,1
 772 434 772 434 772 350 c 0,2,3
 772 254 772 254 723 173 c 128,-1,4
 674 92 674 92 590.5 44.5 c 128,-1,5
 507 -3 507 -3 407 -3 c 256,6,7
 307 -3 307 -3 223 45 c 1,8,-1
 153 -55 l 1,9,-1
 93 -55 l 1,10,-1
 182 71 l 1,11,12
 116 121 116 121 79 193.5 c 128,-1,13
 42 266 42 266 42 350 c 0,14,15
 42 446 42 446 91 526.5 c 128,-1,16
 140 607 140 607 223.5 654 c 128,-1,17
 307 701 307 701 407 701 c 256,18,19
 507 701 507 701 590 654 c 1,20,-1
 661 755 l 1,21,-1
 722 755 l 1,22,-1
 632 627 l 1,23,0
 698 578 698 578 735 506 c 128,-1,1
141 225 m 128,-1,25
 170 166 170 166 220 126 c 1,26,-1
 553 601 l 1,27,28
 485 639 485 639 408 639 c 0,29,30
 328 639 328 639 260 600.5 c 128,-1,31
 192 562 192 562 152 495.5 c 128,-1,32
 112 429 112 429 112 350 c 0,33,24
 112 284 112 284 141 225 c 128,-1,25
554.5 98 m 128,-1,35
 622 137 622 137 662 204 c 128,-1,36
 702 271 702 271 702 350 c 0,37,38
 702 417 702 417 673 475 c 128,-1,39
 644 533 644 533 594 573 c 1,40,-1
 260 98 l 1,41,42
 329 59 329 59 408 59 c 256,43,34
 487 59 487 59 554.5 98 c 128,-1,35
EndSplineSet
EndChar

StartChar: Thorn
Encoding: 222 222 161
Width: 670
Flags: W
LayerCount: 2
Fore
SplineSet
567.5 536.5 m 128,-1,1
 643 479 643 479 643 367 c 0,2,3
 643 252 643 252 567 192 c 128,-1,4
 491 132 491 132 346 132 c 2,5,-1
 179 132 l 1,6,-1
 179 0 l 1,7,-1
 110 0 l 1,8,-1
 110 699 l 1,9,-1
 179 699 l 1,10,-1
 179 594 l 1,11,-1
 346 594 l 2,12,0
 492 594 492 594 567.5 536.5 c 128,-1,1
572 365 m 0,14,15
 572 536 572 536 344 536 c 2,16,-1
 179 536 l 1,17,-1
 179 190 l 1,18,-1
 344 190 l 2,19,13
 572 190 572 190 572 365 c 0,14,15
EndSplineSet
EndChar

StartChar: germandbls
Encoding: 223 223 162
Width: 647
Flags: W
LayerCount: 2
Fore
SplineSet
123 624.5 m 128,-1,1
 152 682 152 682 206 713.5 c 128,-1,2
 260 745 260 745 332 745 c 0,3,4
 396 745 396 745 445.5 722 c 128,-1,5
 495 699 495 699 522 656 c 128,-1,6
 549 613 549 613 549 557 c 0,7,8
 549 493 549 493 513 444.5 c 128,-1,9
 477 396 477 396 417 379 c 1,10,11
 494 367 494 367 540.5 321 c 128,-1,12
 587 275 587 275 587 204 c 0,13,14
 587 144 587 144 556 97.5 c 128,-1,15
 525 51 525 51 468.5 25.5 c 128,-1,16
 412 0 412 0 337 0 c 2,17,-1
 284 0 l 1,18,-1
 284 53 l 1,19,-1
 341 53 l 2,20,21
 422 53 422 53 471.5 94.5 c 128,-1,22
 521 136 521 136 521 202 c 0,23,24
 521 269 521 269 467.5 307.5 c 128,-1,25
 414 346 414 346 324 346 c 2,26,-1
 315 346 l 1,27,-1
 315 399 l 1,28,29
 392 399 392 399 438 440 c 128,-1,30
 484 481 484 481 484 549 c 0,31,32
 484 613 484 613 442 651 c 128,-1,33
 400 689 400 689 331 689 c 0,34,35
 253 689 253 689 207 636.5 c 128,-1,36
 161 584 161 584 161 495 c 2,37,-1
 161 0 l 1,38,-1
 94 0 l 1,39,-1
 94 491 l 2,40,0
 94 567 94 567 123 624.5 c 128,-1,1
EndSplineSet
Substitution2: "<3,3> Small Caps in Latin lookup 11 subtable" germandbls.sc
EndChar

StartChar: ae
Encoding: 230 230 169
Width: 982
Flags: W
LayerCount: 2
Fore
SplineSet
523.5 142.5 m 128,-1,1
 551 102 551 102 597 77.5 c 128,-1,2
 643 53 643 53 695 53 c 0,3,4
 745 53 745 53 787.5 70.5 c 128,-1,5
 830 88 830 88 861 122 c 1,6,-1
 899 84 l 1,7,8
 860 42 860 42 806.5 20 c 128,-1,9
 753 -2 753 -2 690 -2 c 0,10,11
 611 -2 611 -2 549.5 36.5 c 128,-1,12
 488 75 488 75 458 141 c 1,13,14
 393 -3 393 -3 230 -3 c 0,15,16
 151 -3 151 -3 101.5 40 c 128,-1,17
 52 83 52 83 52 152 c 0,18,19
 52 219 52 219 104 256 c 128,-1,20
 156 293 156 293 250 293 c 2,21,-1
 427 293 l 1,22,-1
 427 341 l 2,23,24
 426 404 426 404 388 437.5 c 128,-1,25
 350 471 350 471 280 471 c 0,26,27
 195 471 195 471 101 408 c 1,28,-1
 81 456 l 1,29,30
 190 526 190 526 292 526 c 0,31,32
 366 526 366 526 414 495.5 c 128,-1,33
 462 465 462 465 478 409 c 1,34,35
 509 464 509 464 564.5 495 c 128,-1,36
 620 526 620 526 689 526 c 0,37,38
 764 526 764 526 822 491.5 c 128,-1,39
 880 457 880 457 911 394 c 128,-1,40
 942 331 942 331 941 250 c 1,41,-1
 496 250 l 1,42,-1
 496 229 l 2,43,0
 496 183 496 183 523.5 142.5 c 128,-1,1
818.5 424.5 m 128,-1,45
 768 475 768 475 689 475 c 256,46,47
 610 475 610 475 556.5 424 c 128,-1,48
 503 373 503 373 496 290 c 1,49,-1
 873 290 l 1,50,44
 869 374 869 374 818.5 424.5 c 128,-1,45
154 228 m 128,-1,52
 116 203 116 203 116 157 c 0,53,54
 116 108 116 108 151 77.5 c 128,-1,55
 186 47 186 47 243 47 c 0,56,57
 311 47 311 47 355.5 78 c 128,-1,58
 400 109 400 109 428 176 c 1,59,-1
 428 253 l 1,60,-1
 261 253 l 2,61,51
 192 253 192 253 154 228 c 128,-1,52
EndSplineSet
Substitution2: "<3,3> Small Caps in Latin lookup 11 subtable" ae.sc
EndChar

StartChar: ccedilla
Encoding: 231 231 170
Width: 561
Flags: W
LayerCount: 2
Fore
SplineSet
427.5 24 m 128,-1,1
 379 1 379 1 319 -2 c 1,2,-1
 303 -53 l 1,3,4
 343 -57 343 -57 363.5 -79 c 128,-1,5
 384 -101 384 -101 384 -130 c 0,6,7
 384 -168 384 -168 355.5 -192 c 128,-1,8
 327 -216 327 -216 281 -216 c 0,9,10
 260 -216 260 -216 237 -210 c 128,-1,11
 214 -204 214 -204 196 -194 c 1,12,-1
 212 -151 l 1,13,14
 225 -158 225 -158 242 -162.5 c 128,-1,15
 259 -167 259 -167 274 -167 c 0,16,17
 300 -167 300 -167 314.5 -154 c 128,-1,18
 329 -141 329 -141 329 -124 c 0,19,20
 329 -108 329 -108 314.5 -96.5 c 128,-1,21
 300 -85 300 -85 275 -85 c 2,22,-1
 245 -85 l 1,23,-1
 271 0 l 1,24,25
 204 7 204 7 152.5 42 c 128,-1,26
 101 77 101 77 72 134 c 128,-1,27
 43 191 43 191 43 262 c 0,28,29
 43 338 43 338 76.5 398.5 c 128,-1,30
 110 459 110 459 169 492.5 c 128,-1,31
 228 526 228 526 303 526 c 0,32,33
 364 526 364 526 414.5 506 c 128,-1,34
 465 486 465 486 501 450 c 1,35,-1
 463 405 l 1,36,37
 399 467 399 467 306 467 c 0,38,39
 250 467 250 467 205 441 c 128,-1,40
 160 415 160 415 135 368.5 c 128,-1,41
 110 322 110 322 110 262 c 256,42,43
 110 202 110 202 135 155 c 128,-1,44
 160 108 160 108 205 82 c 128,-1,45
 250 56 250 56 306 56 c 0,46,47
 357 56 357 56 399.5 74 c 128,-1,48
 442 92 442 92 471 126 c 1,49,-1
 509 86 l 1,50,0
 476 47 476 47 427.5 24 c 128,-1,1
EndSplineSet
Substitution2: "<3,3> Small Caps in Latin lookup 11 subtable" ccedilla.sc
EndChar

StartChar: eth
Encoding: 240 240 179
Width: 578
Flags: W
LayerCount: 2
Fore
SplineSet
492 435.5 m 128,-1,1
 536 341 536 341 536 245 c 0,2,3
 536 171 536 171 504.5 114.5 c 128,-1,4
 473 58 473 58 415.5 27.5 c 128,-1,5
 358 -3 358 -3 282 -3 c 0,6,7
 212 -3 212 -3 159 25 c 128,-1,8
 106 53 106 53 77 104 c 128,-1,9
 48 155 48 155 48 223 c 0,10,11
 48 288 48 288 76 337.5 c 128,-1,12
 104 387 104 387 155.5 414 c 128,-1,13
 207 441 207 441 275 441 c 0,14,15
 339 441 339 441 391 412.5 c 128,-1,16
 443 384 443 384 467 337 c 1,17,18
 453 402 453 402 413.5 466 c 128,-1,19
 374 530 374 530 315 586 c 1,20,-1
 141 506 l 1,21,-1
 123 546 l 1,22,-1
 279 618 l 1,23,24
 214 672 214 672 140 709 c 1,25,-1
 184 745 l 1,26,27
 268 701 268 701 333 643 c 1,28,-1
 469 706 l 1,29,-1
 488 666 l 1,30,-1
 368 611 l 1,31,0
 448 530 448 530 492 435.5 c 128,-1,1
417 102 m 128,-1,33
 465 147 465 147 465 221 c 0,34,35
 465 298 465 298 417 344 c 128,-1,36
 369 390 369 390 288 390 c 0,37,38
 208 390 208 390 160.5 345.5 c 128,-1,39
 113 301 113 301 113 227 c 0,40,41
 113 150 113 150 160.5 103.5 c 128,-1,42
 208 57 208 57 288 57 c 0,43,32
 369 57 369 57 417 102 c 128,-1,33
EndSplineSet
Substitution2: "<3,3> Small Caps in Latin lookup 11 subtable" eth.sc
EndChar

StartChar: divide
Encoding: 247 247 186
Width: 489
Flags: W
LayerCount: 2
Fore
SplineSet
277.5 533 m 128,-1,1
 290 520 290 520 290 501 c 256,2,3
 290 482 290 482 277.5 469 c 128,-1,4
 265 456 265 456 246 456 c 256,5,6
 227 456 227 456 214 469 c 128,-1,7
 201 482 201 482 201 501 c 256,8,9
 201 520 201 520 214 533 c 128,-1,10
 227 546 227 546 246 546 c 256,11,0
 265 546 265 546 277.5 533 c 128,-1,1
38 347 m 1,12,-1
 452 347 l 1,13,-1
 452 297 l 1,14,-1
 38 297 l 1,15,-1
 38 347 l 1,12,-1
277.5 180 m 128,-1,17
 290 167 290 167 290 148 c 256,18,19
 290 129 290 129 277.5 116 c 128,-1,20
 265 103 265 103 246 103 c 256,21,22
 227 103 227 103 214 116 c 128,-1,23
 201 129 201 129 201 148 c 256,24,25
 201 167 201 167 214 180 c 128,-1,26
 227 193 227 193 246 193 c 256,27,16
 265 193 265 193 277.5 180 c 128,-1,17
EndSplineSet
EndChar

StartChar: oslash
Encoding: 248 248 187
Width: 616
Flags: W
LayerCount: 2
Fore
SplineSet
547 381.5 m 128,-1,1
 572 328 572 328 572 263 c 0,2,3
 572 186 572 186 538 125.5 c 128,-1,4
 504 65 504 65 444 31.5 c 128,-1,5
 384 -2 384 -2 308 -2 c 0,6,7
 233 -2 233 -2 175 30 c 1,8,-1
 84 -103 l 1,9,-1
 33 -103 l 1,10,-1
 140 53 l 1,11,12
 94 89 94 89 69 143 c 128,-1,13
 44 197 44 197 44 263 c 0,14,15
 44 339 44 339 78 399 c 128,-1,16
 112 459 112 459 172 492.5 c 128,-1,17
 232 526 232 526 308 526 c 0,18,19
 383 526 383 526 441 494 c 1,20,-1
 532 627 l 1,21,-1
 584 627 l 1,22,-1
 477 471 l 1,23,0
 522 435 522 435 547 381.5 c 128,-1,1
124.5 171.5 m 128,-1,25
 141 130 141 130 172 101 c 1,26,-1
 409 447 l 1,27,28
 364 472 364 472 308 472 c 0,29,30
 250 472 250 472 204.5 445.5 c 128,-1,31
 159 419 159 419 133.5 371 c 128,-1,32
 108 323 108 323 108 262 c 0,33,24
 108 213 108 213 124.5 171.5 c 128,-1,25
411.5 77 m 128,-1,35
 457 104 457 104 482.5 152 c 128,-1,36
 508 200 508 200 508 262 c 0,37,38
 508 312 508 312 491 353 c 128,-1,39
 474 394 474 394 443 422 c 1,40,-1
 206 76 l 1,41,42
 252 50 252 50 308 50 c 0,43,34
 366 50 366 50 411.5 77 c 128,-1,35
EndSplineSet
Substitution2: "<3,3> Small Caps in Latin lookup 11 subtable" oslash.sc
EndChar

StartChar: thorn
Encoding: 254 254 193
Width: 675
Flags: W
LayerCount: 2
Fore
SplineSet
253.5 494 m 128,-1,1
 308 526 308 526 379 526 c 0,2,3
 452 526 452 526 509.5 492.5 c 128,-1,4
 567 459 567 459 599 398.5 c 128,-1,5
 631 338 631 338 631 261 c 0,6,7
 631 185 631 185 599 125 c 128,-1,8
 567 65 567 65 510 31.5 c 128,-1,9
 453 -2 453 -2 380 -2 c 0,10,11
 308 -2 308 -2 253.5 30.5 c 128,-1,12
 199 63 199 63 170 121 c 1,13,-1
 170 -194 l 1,14,-1
 103 -194 l 1,15,-1
 103 742 l 1,16,-1
 170 742 l 1,17,-1
 170 404 l 1,18,0
 199 462 199 462 253.5 494 c 128,-1,1
265.5 442.5 m 128,-1,20
 221 416 221 416 195.5 369 c 128,-1,21
 170 322 170 322 170 263 c 0,22,23
 170 203 170 203 195 156 c 128,-1,24
 220 109 220 109 265 82.5 c 128,-1,25
 310 56 310 56 367 56 c 0,26,27
 423 56 423 56 468 82.5 c 128,-1,28
 513 109 513 109 538 156 c 128,-1,29
 563 203 563 203 563 263 c 0,30,31
 563 322 563 322 538 369 c 128,-1,32
 513 416 513 416 468 442.5 c 128,-1,33
 423 469 423 469 367 469 c 0,34,19
 310 469 310 469 265.5 442.5 c 128,-1,20
EndSplineSet
Substitution2: "<3,3> Small Caps in Latin lookup 11 subtable" thorn.sc
EndChar

StartChar: Aogonek
Encoding: 260 260 199
Width: 712
Flags: W
LayerCount: 2
Fore
SplineSet
688 -149 m 1,1,-1
 706 -194 l 1,2,3
 670 -215 670 -215 629 -215 c 256,4,5
 588 -215 588 -215 564 -193.5 c 128,-1,6
 540 -172 540 -172 540 -133 c 0,7,8
 540 -62 540 -62 631 3 c 1,9,-1
 549 186 l 1,10,-1
 161 186 l 1,11,-1
 79 0 l 1,12,-1
 5 0 l 1,13,-1
 320 699 l 1,14,-1
 392 699 l 1,15,-1
 707 0 l 1,16,17
 652 -39 652 -39 627.5 -66.5 c 128,-1,18
 603 -94 603 -94 603 -122 c 0,19,20
 603 -143 603 -143 613.5 -153 c 128,-1,21
 624 -163 624 -163 642 -163 c 0,22,0
 665 -163 665 -163 688 -149 c 1,1,-1
188 248 m 1,23,-1
 522 248 l 1,24,-1
 354 626 l 1,25,-1
 188 248 l 1,23,-1
EndSplineSet
EndChar

StartChar: aogonek
Encoding: 261 261 200
Width: 574
Flags: W
LayerCount: 2
Fore
SplineSet
474 -149 m 1,1,-1
 492 -194 l 1,2,3
 456 -215 456 -215 415 -215 c 256,4,5
 374 -215 374 -215 350 -193.5 c 128,-1,6
 326 -172 326 -172 326 -133 c 0,7,8
 326 -96 326 -96 350.5 -61 c 128,-1,9
 375 -26 375 -26 427 10 c 1,10,-1
 426 88 l 1,11,12
 395 42 395 42 345 19.5 c 128,-1,13
 295 -3 295 -3 230 -3 c 0,14,15
 177 -3 177 -3 136.5 17.5 c 128,-1,16
 96 38 96 38 74 74 c 128,-1,17
 52 110 52 110 52 155 c 0,18,19
 52 223 52 223 104.5 262 c 128,-1,20
 157 301 157 301 249 301 c 2,21,-1
 425 301 l 1,22,-1
 425 341 l 2,23,24
 425 403 425 403 388 437 c 128,-1,25
 351 471 351 471 280 471 c 0,26,27
 196 471 196 471 111 408 c 1,28,-1
 81 454 l 1,29,30
 134 491 134 491 182 508.5 c 128,-1,31
 230 526 230 526 292 526 c 0,32,33
 387 526 387 526 439 478.5 c 128,-1,34
 491 431 491 431 492 347 c 2,35,-1
 493 0 l 1,36,37
 438 -39 438 -39 413.5 -66.5 c 128,-1,38
 389 -94 389 -94 389 -122 c 0,39,40
 389 -143 389 -143 399.5 -153 c 128,-1,41
 410 -163 410 -163 428 -163 c 0,42,0
 451 -163 451 -163 474 -149 c 1,1,-1
360.5 85.5 m 128,-1,44
 409 118 409 118 426 177 c 1,45,-1
 426 249 l 1,46,-1
 257 249 l 2,47,48
 188 249 188 249 152 226 c 128,-1,49
 116 203 116 203 116 157 c 0,50,51
 116 110 116 110 150.5 81.5 c 128,-1,52
 185 53 185 53 242 53 c 0,53,43
 312 53 312 53 360.5 85.5 c 128,-1,44
EndSplineSet
Substitution2: "<3,3> Small Caps in Latin lookup 11 subtable" aogonek.sc
EndChar

StartChar: Dcroat
Encoding: 272 272 211
Width: 793
Flags: W
LayerCount: 2
Fore
SplineSet
573.5 653.5 m 128,-1,1
 656 607 656 607 703.5 527 c 128,-1,2
 751 447 751 447 751 350 c 0,3,4
 751 252 751 252 703.5 172 c 128,-1,5
 656 92 656 92 573.5 46 c 128,-1,6
 491 0 491 0 390 0 c 2,7,-1
 110 0 l 1,8,-1
 110 328 l 1,9,-1
 39 328 l 1,10,-1
 39 372 l 1,11,-1
 110 372 l 1,12,-1
 110 700 l 1,13,-1
 391 700 l 2,14,0
 491 700 491 700 573.5 653.5 c 128,-1,1
538.5 100 m 128,-1,16
 605 138 605 138 643.5 203.5 c 128,-1,17
 682 269 682 269 682 349 c 256,18,19
 682 429 682 429 643 495 c 128,-1,20
 604 561 604 561 537 599 c 128,-1,21
 470 637 470 637 390 637 c 2,22,-1
 179 637 l 1,23,-1
 179 372 l 1,24,-1
 420 372 l 1,25,-1
 420 328 l 1,26,-1
 179 328 l 1,27,-1
 179 62 l 1,28,-1
 393 62 l 2,29,15
 472 62 472 62 538.5 100 c 128,-1,16
EndSplineSet
EndChar

StartChar: dcroat
Encoding: 273 273 212
Width: 677
Flags: W
LayerCount: 2
Fore
SplineSet
650 604 m 1,0,-1
 575 604 l 1,1,-1
 575 0 l 1,2,-1
 508 0 l 1,3,-1
 508 123 l 1,4,5
 478 64 478 64 422 30 c 128,-1,6
 366 -4 366 -4 296 -4 c 0,7,8
 223 -4 223 -4 166 29.5 c 128,-1,9
 109 63 109 63 76.5 122.5 c 128,-1,10
 44 182 44 182 44 257 c 0,11,12
 44 333 44 333 76 392 c 128,-1,13
 108 451 108 451 165 484 c 128,-1,14
 222 517 222 517 295 517 c 0,15,16
 365 517 365 517 421 483.5 c 128,-1,17
 477 450 477 450 508 391 c 1,18,-1
 508 604 l 1,19,-1
 281 604 l 1,20,-1
 281 648 l 1,21,-1
 508 648 l 1,22,-1
 508 742 l 1,23,-1
 575 742 l 1,24,-1
 575 648 l 1,25,-1
 650 648 l 1,26,-1
 650 604 l 1,0,-1
412 80 m 128,-1,28
 457 106 457 106 482.5 152 c 128,-1,29
 508 198 508 198 508 256 c 256,30,31
 508 314 508 314 482.5 360.5 c 128,-1,32
 457 407 457 407 412 433 c 128,-1,33
 367 459 367 459 310 459 c 256,34,35
 253 459 253 459 207.5 433 c 128,-1,36
 162 407 162 407 136.5 360.5 c 128,-1,37
 111 314 111 314 111 256 c 256,38,39
 111 198 111 198 136.5 152 c 128,-1,40
 162 106 162 106 207.5 80 c 128,-1,41
 253 54 253 54 310 54 c 256,42,27
 367 54 367 54 412 80 c 128,-1,28
EndSplineSet
Substitution2: "<3,3> Small Caps in Latin lookup 11 subtable" dcroat.sc
EndChar

StartChar: Eogonek
Encoding: 280 280 219
Width: 650
Flags: W
LayerCount: 2
Fore
SplineSet
573 -149 m 1,1,-1
 591 -194 l 1,2,3
 555 -215 555 -215 514 -215 c 256,4,5
 473 -215 473 -215 449 -193.5 c 128,-1,6
 425 -172 425 -172 425 -133 c 0,7,8
 425 -64 425 -64 512 0 c 1,9,-1
 110 0 l 1,10,-1
 110 699 l 1,11,-1
 578 699 l 1,12,-1
 578 637 l 1,13,-1
 179 637 l 1,14,-1
 179 387 l 1,15,-1
 536 387 l 1,16,-1
 536 325 l 1,17,-1
 179 325 l 1,18,-1
 179 62 l 1,19,-1
 591 62 l 1,20,-1
 591 1 l 1,21,-1
 592 0 l 1,22,23
 537 -39 537 -39 512.5 -66.5 c 128,-1,24
 488 -94 488 -94 488 -122 c 0,25,26
 488 -143 488 -143 498.5 -153 c 128,-1,27
 509 -163 509 -163 527 -163 c 0,28,0
 550 -163 550 -163 573 -149 c 1,1,-1
EndSplineSet
EndChar

StartChar: eogonek
Encoding: 281 281 220
Width: 589
Flags: W
LayerCount: 2
Fore
SplineSet
488 448.5 m 128,-1,1
 552 371 552 371 547 240 c 1,2,-1
 110 240 l 1,3,4
 117 156 117 156 172 104.5 c 128,-1,5
 227 53 227 53 308 53 c 0,6,7
 358 53 358 53 401 71 c 128,-1,8
 444 89 444 89 475 122 c 1,9,-1
 513 84 l 1,10,11
 489 60 489 60 475 50 c 0,12,13
 424 8 424 8 392.5 -38.5 c 128,-1,14
 361 -85 361 -85 361 -120 c 0,15,16
 361 -141 361 -141 371.5 -152 c 128,-1,17
 382 -163 382 -163 400 -163 c 0,18,19
 424 -163 424 -163 446 -149 c 1,20,-1
 464 -194 l 1,21,22
 426 -215 426 -215 387 -215 c 0,23,24
 346 -215 346 -215 322 -191 c 128,-1,25
 298 -167 298 -167 298 -126 c 0,26,27
 298 -65 298 -65 363 3 c 1,28,29
 331 -2 331 -2 304 -2 c 0,30,31
 228 -2 228 -2 169 31.5 c 128,-1,32
 110 65 110 65 76.5 125 c 128,-1,33
 43 185 43 185 43 262 c 0,34,35
 43 338 43 338 76.5 398.5 c 128,-1,36
 110 459 110 459 169 492.5 c 128,-1,37
 228 526 228 526 302 526 c 0,38,0
 424 526 424 526 488 448.5 c 128,-1,1
487 292 m 1,39,40
 482 374 482 374 432.5 422.5 c 128,-1,41
 383 471 383 471 303 471 c 0,42,43
 224 471 224 471 171 422 c 128,-1,44
 118 373 118 373 110 292 c 1,45,-1
 487 292 l 1,39,40
EndSplineSet
Substitution2: "<3,3> Small Caps in Latin lookup 11 subtable" eogonek.sc
EndChar

StartChar: Hbar
Encoding: 294 294 233
Width: 795
Flags: W
LayerCount: 2
Fore
SplineSet
765 569 m 1,0,-1
 765 525 l 1,1,-1
 685 525 l 1,2,-1
 685 0 l 1,3,-1
 616 0 l 1,4,-1
 616 317 l 1,5,-1
 179 317 l 1,6,-1
 179 0 l 1,7,-1
 110 0 l 1,8,-1
 110 525 l 1,9,-1
 32 525 l 1,10,-1
 32 569 l 1,11,-1
 110 569 l 1,12,-1
 110 700 l 1,13,-1
 179 700 l 1,14,-1
 179 569 l 1,15,-1
 616 569 l 1,16,-1
 616 700 l 1,17,-1
 685 700 l 1,18,-1
 685 569 l 1,19,-1
 765 569 l 1,0,-1
616 379 m 1,20,-1
 616 525 l 1,21,-1
 179 525 l 1,22,-1
 179 379 l 1,23,-1
 616 379 l 1,20,-1
EndSplineSet
EndChar

StartChar: hbar
Encoding: 295 295 234
Width: 660
Flags: W
LayerCount: 2
Fore
SplineSet
525.5 461.5 m 128,-1,1
 579 407 579 407 579 312 c 2,2,-1
 579 0 l 1,3,-1
 511 0 l 1,4,-1
 511 296 l 2,5,6
 511 370 511 370 470 412 c 128,-1,7
 429 454 429 454 356 454 c 0,8,9
 269 454 269 454 219.5 397.5 c 128,-1,10
 170 341 170 341 170 247 c 2,11,-1
 170 0 l 1,12,-1
 103 0 l 1,13,-1
 103 604 l 1,14,-1
 28 604 l 1,15,-1
 28 648 l 1,16,-1
 103 648 l 1,17,-1
 103 742 l 1,18,-1
 170 742 l 1,19,-1
 170 648 l 1,20,-1
 397 648 l 1,21,-1
 397 604 l 1,22,-1
 170 604 l 1,23,-1
 170 390 l 1,24,25
 223 516 223 516 378 516 c 0,26,0
 472 516 472 516 525.5 461.5 c 128,-1,1
EndSplineSet
Substitution2: "<3,3> Small Caps in Latin lookup 11 subtable" hbar.sc
EndChar

StartChar: Iogonek
Encoding: 302 302 241
Width: 289
Flags: W
LayerCount: 2
Fore
SplineSet
99.5 -66.5 m 128,-1,1
 75 -94 75 -94 75 -122 c 0,2,3
 75 -143 75 -143 85.5 -153 c 128,-1,4
 96 -163 96 -163 114 -163 c 0,5,6
 137 -163 137 -163 160 -149 c 1,7,-1
 178 -194 l 1,8,9
 142 -215 142 -215 101 -215 c 256,10,11
 60 -215 60 -215 36 -193.5 c 128,-1,12
 12 -172 12 -172 12 -133 c 0,13,14
 12 -96 12 -96 35.5 -61.5 c 128,-1,15
 59 -27 59 -27 110 8 c 1,16,-1
 110 699 l 1,17,-1
 179 699 l 1,18,-1
 179 0 l 1,19,0
 124 -39 124 -39 99.5 -66.5 c 128,-1,1
EndSplineSet
EndChar

StartChar: iogonek
Encoding: 303 303 242
Width: 262
Flags: W
LayerCount: 2
Fore
SplineSet
98.5 641 m 128,-1,1
 85 655 85 655 85 675 c 256,2,3
 85 695 85 695 98.5 708.5 c 128,-1,4
 112 722 112 722 132 722 c 256,5,6
 152 722 152 722 165 708.5 c 128,-1,7
 178 695 178 695 178 675 c 256,8,9
 178 655 178 655 164.5 641 c 128,-1,10
 151 627 151 627 132 627 c 0,11,0
 112 627 112 627 98.5 641 c 128,-1,1
98 524 m 1,12,-1
 165 524 l 1,13,-1
 165 0 l 1,14,15
 110 -39 110 -39 85.5 -66.5 c 128,-1,16
 61 -94 61 -94 61 -122 c 0,17,18
 61 -143 61 -143 71.5 -153 c 128,-1,19
 82 -163 82 -163 100 -163 c 0,20,21
 123 -163 123 -163 146 -149 c 1,22,-1
 164 -194 l 1,23,24
 128 -215 128 -215 87 -215 c 256,25,26
 46 -215 46 -215 22 -193.5 c 128,-1,27
 -2 -172 -2 -172 -2 -133 c 0,28,29
 -2 -58 -2 -58 98 9 c 1,30,-1
 98 524 l 1,12,-1
EndSplineSet
Substitution2: "<3,3> Small Caps in Latin lookup 11 subtable" iogonek.sc
EndChar

StartChar: dotlessi
Encoding: 305 305 244
Width: 262
Flags: W
LayerCount: 2
Fore
SplineSet
98 524 m 1,0,-1
 165 524 l 1,1,-1
 165 0 l 1,2,-1
 98 0 l 1,3,-1
 98 524 l 1,0,-1
EndSplineSet
Substitution2: "<3,3> Small Caps in Latin lookup 11 subtable" dotlessi.sc
EndChar

StartChar: kgreenlandic
Encoding: 312 312 251
Width: 563
Flags: W
LayerCount: 2
Fore
SplineSet
471 0 m 1,0,-1
 285 274 l 1,1,-1
 165 151 l 1,2,-1
 165 0 l 1,3,-1
 98 0 l 1,4,-1
 98 524 l 1,5,-1
 165 524 l 1,6,-1
 165 237 l 1,7,-1
 448 524 l 1,8,-1
 528 524 l 1,9,-1
 331 321 l 1,10,-1
 551 0 l 1,11,-1
 471 0 l 1,0,-1
EndSplineSet
Substitution2: "<3,3> Small Caps in Latin lookup 11 subtable" kgreenlandic.sc
EndChar

StartChar: Lslash
Encoding: 321 321 260
Width: 535
Flags: W
LayerCount: 2
Fore
SplineSet
201 62 m 1,0,-1
 509 62 l 1,1,-1
 509 0 l 1,2,-1
 132 0 l 1,3,-1
 132 338 l 1,4,-1
 27 281 l 1,5,-1
 27 327 l 1,6,-1
 132 384 l 1,7,-1
 132 700 l 1,8,-1
 201 700 l 1,9,-1
 201 421 l 1,10,-1
 325 488 l 1,11,-1
 325 442 l 1,12,-1
 201 375 l 1,13,-1
 201 62 l 1,0,-1
EndSplineSet
EndChar

StartChar: lslash
Encoding: 322 322 261
Width: 361
Flags: W
LayerCount: 2
Fore
SplineSet
339 486 m 1,0,-1
 339 435 l 1,1,-1
 224 373 l 1,2,-1
 224 0 l 1,3,-1
 157 0 l 1,4,-1
 157 337 l 1,5,-1
 41 274 l 1,6,-1
 41 325 l 1,7,-1
 157 388 l 1,8,-1
 157 742 l 1,9,-1
 224 742 l 1,10,-1
 224 424 l 1,11,-1
 339 486 l 1,0,-1
EndSplineSet
Substitution2: "<3,3> Small Caps in Latin lookup 11 subtable" lslash.sc
EndChar

StartChar: Eng
Encoding: 330 330 269
Width: 796
Flags: W
LayerCount: 2
Fore
SplineSet
685 699 m 1,0,-1
 685 0 l 2,1,2
 685 -93 685 -93 633 -146.5 c 128,-1,3
 581 -200 581 -200 490 -200 c 0,4,5
 435 -200 435 -200 388 -177 c 128,-1,6
 341 -154 341 -154 305 -111 c 1,7,-1
 340 -59 l 1,8,9
 372 -95 372 -95 410.5 -114 c 128,-1,10
 449 -133 449 -133 489 -133 c 0,11,12
 547 -133 547 -133 580 -99 c 128,-1,13
 613 -65 613 -65 616 0 c 1,14,-1
 612 0 l 1,15,-1
 179 592 l 1,16,-1
 179 0 l 1,17,-1
 110 0 l 1,18,-1
 110 699 l 1,19,-1
 183 699 l 1,20,-1
 617 107 l 1,21,-1
 617 699 l 1,22,-1
 685 699 l 1,0,-1
EndSplineSet
EndChar

StartChar: eng
Encoding: 331 331 270
Width: 654
Flags: W
LayerCount: 2
Fore
SplineSet
519.5 471.5 m 128,-1,1
 573 417 573 417 573 322 c 2,2,-1
 573 -23 l 2,3,4
 573 -107 573 -107 533 -151.5 c 128,-1,5
 493 -196 493 -196 430 -196 c 0,6,7
 371 -196 371 -196 322 -160 c 1,8,-1
 347 -108 l 1,9,10
 365 -121 365 -121 386.5 -128.5 c 128,-1,11
 408 -136 408 -136 428 -136 c 0,12,13
 465 -136 465 -136 485 -109.5 c 128,-1,14
 505 -83 505 -83 505 -30 c 2,15,-1
 505 306 l 2,16,17
 505 380 505 380 464 422 c 128,-1,18
 423 464 423 464 350 464 c 0,19,20
 269 463 269 463 220.5 414 c 128,-1,21
 172 365 172 365 165 282 c 1,22,-1
 165 0 l 1,23,-1
 98 0 l 1,24,-1
 98 524 l 1,25,-1
 165 524 l 1,26,-1
 165 402 l 1,27,28
 192 463 192 463 244.5 494 c 128,-1,29
 297 525 297 525 372 526 c 0,30,0
 466 526 466 526 519.5 471.5 c 128,-1,1
EndSplineSet
Substitution2: "<3,3> Small Caps in Latin lookup 11 subtable" eng.sc
EndChar

StartChar: OE
Encoding: 338 338 277
Width: 1093
Flags: W
LayerCount: 2
Fore
SplineSet
1035 62 m 1,0,-1
 1035 0 l 1,1,-1
 407 0 l 2,2,3
 307 0 307 0 223.5 46.5 c 128,-1,4
 140 93 140 93 91 173.5 c 128,-1,5
 42 254 42 254 42 350 c 0,6,7
 42 445 42 445 91 525.5 c 128,-1,8
 140 606 140 606 223.5 653 c 128,-1,9
 307 700 307 700 407 700 c 2,10,-1
 1022 700 l 1,11,-1
 1022 637 l 1,12,-1
 622 637 l 1,13,-1
 622 387 l 1,14,-1
 979 387 l 1,15,-1
 979 325 l 1,16,-1
 622 325 l 1,17,-1
 622 62 l 1,18,-1
 1035 62 l 1,0,-1
553 60 m 1,19,-1
 553 638 l 1,20,-1
 407 638 l 2,21,22
 326 638 326 638 258.5 599.5 c 128,-1,23
 191 561 191 561 151.5 495 c 128,-1,24
 112 429 112 429 112 349 c 0,25,26
 112 270 112 270 151.5 204 c 128,-1,27
 191 138 191 138 258.5 99.5 c 128,-1,28
 326 61 326 61 407 61 c 2,29,-1
 553 60 l 1,19,-1
EndSplineSet
EndChar

StartChar: oe
Encoding: 339 339 278
Width: 1058
Flags: W
LayerCount: 2
Fore
SplineSet
898 491 m 128,-1,1
 956 456 956 456 987 393.5 c 128,-1,2
 1018 331 1018 331 1017 250 c 1,3,-1
 569 250 l 1,4,5
 574 161 574 161 629.5 107 c 128,-1,6
 685 53 685 53 770 53 c 0,7,8
 820 53 820 53 863 71 c 128,-1,9
 906 89 906 89 937 122 c 1,10,-1
 975 84 l 1,11,12
 937 43 937 43 883 20.5 c 128,-1,13
 829 -2 829 -2 765 -2 c 0,14,15
 686 -2 686 -2 626 36.5 c 128,-1,16
 566 75 566 75 537 143 c 1,17,18
 508 76 508 76 447.5 37 c 128,-1,19
 387 -2 387 -2 308 -2 c 0,20,21
 232 -2 232 -2 171.5 31.5 c 128,-1,22
 111 65 111 65 77 125.5 c 128,-1,23
 43 186 43 186 43 263 c 0,24,25
 43 339 43 339 77 399 c 128,-1,26
 111 459 111 459 171.5 492.5 c 128,-1,27
 232 526 232 526 308 526 c 0,28,29
 388 526 388 526 448 487.5 c 128,-1,30
 508 449 508 449 538 382 c 1,31,32
 567 449 567 449 626.5 487.5 c 128,-1,33
 686 526 686 526 764 526 c 0,34,0
 840 526 840 526 898 491 c 128,-1,1
950 291 m 1,35,36
 945 373 945 373 894.5 424 c 128,-1,37
 844 475 844 475 764 475 c 256,38,39
 684 475 684 475 631 424 c 128,-1,40
 578 373 578 373 570 291 c 1,41,-1
 950 291 l 1,35,36
409.5 81 m 128,-1,43
 454 107 454 107 479 154 c 128,-1,44
 504 201 504 201 504 262 c 0,45,46
 504 322 504 322 479 369 c 128,-1,47
 454 416 454 416 409 442 c 128,-1,48
 364 468 364 468 308 468 c 0,49,50
 251 468 251 468 206 442 c 128,-1,51
 161 416 161 416 136 369 c 128,-1,52
 111 322 111 322 111 262 c 0,53,54
 111 201 111 201 136 154 c 128,-1,55
 161 107 161 107 206 81 c 128,-1,56
 251 55 251 55 308 55 c 256,57,42
 365 55 365 55 409.5 81 c 128,-1,43
EndSplineSet
Substitution2: "<3,3> Small Caps in Latin lookup 11 subtable" oe.sc
EndChar

StartChar: Scedilla
Encoding: 350 350 289
Width: 608
Flags: W
LayerCount: 2
Fore
SplineSet
173 465 m 128,-1,1
 197 438 197 438 232 422.5 c 128,-1,2
 267 407 267 407 328 388 c 0,3,4
 399 367 399 367 442.5 346.5 c 128,-1,5
 486 326 486 326 516.5 287 c 128,-1,6
 547 248 547 248 547 184 c 0,7,8
 547 108 547 108 491 58 c 128,-1,9
 435 8 435 8 340 -3 c 1,10,-1
 324 -53 l 1,11,12
 364 -57 364 -57 384.5 -79 c 128,-1,13
 405 -101 405 -101 405 -130 c 0,14,15
 405 -168 405 -168 376.5 -192 c 128,-1,16
 348 -216 348 -216 302 -216 c 0,17,18
 281 -216 281 -216 258 -210 c 128,-1,19
 235 -204 235 -204 217 -194 c 1,20,-1
 233 -151 l 1,21,22
 246 -158 246 -158 263 -162.5 c 128,-1,23
 280 -167 280 -167 295 -167 c 0,24,25
 321 -167 321 -167 335.5 -154 c 128,-1,26
 350 -141 350 -141 350 -124 c 0,27,28
 350 -108 350 -108 335.5 -96.5 c 128,-1,29
 321 -85 321 -85 296 -85 c 2,30,-1
 266 -85 l 1,31,-1
 290 -5 l 1,32,33
 218 -4 218 -4 150.5 25 c 128,-1,34
 83 54 83 54 34 101 c 1,35,-1
 66 158 l 1,36,37
 113 112 113 112 175 86 c 128,-1,38
 237 60 237 60 297 60 c 0,39,40
 377 60 377 60 424 92.5 c 128,-1,41
 471 125 471 125 471 180 c 0,42,43
 471 224 471 224 447 252 c 128,-1,44
 423 280 423 280 388 295 c 128,-1,45
 353 310 353 310 290 330 c 0,46,47
 219 352 219 352 176 371.5 c 128,-1,48
 133 391 133 391 103 429.5 c 128,-1,49
 73 468 73 468 73 530 c 0,50,51
 73 583 73 583 103 623 c 128,-1,52
 133 663 133 663 187 684.5 c 128,-1,53
 241 706 241 706 312 706 c 0,54,55
 369 706 369 706 426.5 689 c 128,-1,56
 484 672 484 672 528 644 c 1,57,-1
 498 585 l 1,58,59
 455 612 455 612 404 626.5 c 128,-1,60
 353 641 353 641 308 641 c 0,61,62
 236 641 236 641 192.5 612.5 c 128,-1,63
 149 584 149 584 149 535 c 0,64,0
 149 492 149 492 173 465 c 128,-1,1
EndSplineSet
EndChar

StartChar: scedilla
Encoding: 351 351 290
Width: 449
Flags: W
LayerCount: 2
Fore
SplineSet
134.5 349 m 128,-1,1
 151 332 151 332 175.5 321.5 c 128,-1,2
 200 311 200 311 244 298 c 0,3,4
 298 282 298 282 332 266.5 c 128,-1,5
 366 251 366 251 390 221.5 c 128,-1,6
 414 192 414 192 414 144 c 0,7,8
 414 79 414 79 369 42 c 128,-1,9
 324 5 324 5 253 -1 c 1,10,-1
 236 -53 l 1,11,12
 276 -57 276 -57 296.5 -79 c 128,-1,13
 317 -101 317 -101 317 -130 c 0,14,15
 317 -168 317 -168 288.5 -192 c 128,-1,16
 260 -216 260 -216 214 -216 c 0,17,18
 193 -216 193 -216 170 -210 c 128,-1,19
 147 -204 147 -204 129 -194 c 1,20,-1
 145 -151 l 1,21,22
 158 -158 158 -158 175 -162.5 c 128,-1,23
 192 -167 192 -167 207 -167 c 0,24,25
 233 -167 233 -167 247.5 -154 c 128,-1,26
 262 -141 262 -141 262 -124 c 0,27,28
 262 -108 262 -108 247.5 -96.5 c 128,-1,29
 233 -85 233 -85 208 -85 c 2,30,-1
 178 -85 l 1,31,-1
 203 -1 l 1,32,33
 152 2 152 2 105.5 21 c 128,-1,34
 59 40 59 40 26 71 c 1,35,-1
 53 119 l 1,36,37
 87 88 87 88 133.5 70 c 128,-1,38
 180 52 180 52 228 52 c 0,39,40
 281 52 281 52 314.5 74 c 128,-1,41
 348 96 348 96 348 138 c 0,42,43
 348 167 348 167 331 185.5 c 128,-1,44
 314 204 314 204 288.5 214.5 c 128,-1,45
 263 225 263 225 218 239 c 0,46,47
 165 255 165 255 132 270 c 128,-1,48
 99 285 99 285 76 313.5 c 128,-1,49
 53 342 53 342 53 388 c 0,50,51
 53 457 53 457 104.5 492 c 128,-1,52
 156 527 156 527 233 527 c 0,53,54
 278 527 278 527 320 515 c 128,-1,55
 362 503 362 503 395 482 c 1,56,-1
 369 431 l 1,57,58
 339 450 339 450 302 460.5 c 128,-1,59
 265 471 265 471 229 471 c 0,60,61
 179 471 179 471 148.5 451.5 c 128,-1,62
 118 432 118 432 118 393 c 0,63,0
 118 366 118 366 134.5 349 c 128,-1,1
EndSplineSet
Substitution2: "<3,3> Small Caps in Latin lookup 11 subtable" scedilla.sc
EndChar

StartChar: uni0162
Encoding: 354 354 293
Width: 553
Flags: W
LayerCount: 2
Fore
SplineSet
310 0 m 1,0,-1
 293 -53 l 1,1,2
 333 -57 333 -57 353.5 -79 c 128,-1,3
 374 -101 374 -101 374 -130 c 0,4,5
 374 -168 374 -168 345.5 -192 c 128,-1,6
 317 -216 317 -216 271 -216 c 0,7,8
 250 -216 250 -216 227 -210 c 128,-1,9
 204 -204 204 -204 186 -194 c 1,10,-1
 202 -151 l 1,11,12
 215 -158 215 -158 232 -162.5 c 128,-1,13
 249 -167 249 -167 264 -167 c 0,14,15
 290 -167 290 -167 304.5 -154 c 128,-1,16
 319 -141 319 -141 319 -124 c 0,17,18
 319 -108 319 -108 304.5 -96.5 c 128,-1,19
 290 -85 290 -85 265 -85 c 2,20,-1
 235 -85 l 1,21,-1
 261 0 l 1,22,-1
 242 0 l 1,23,-1
 242 637 l 1,24,-1
 11 637 l 1,25,-1
 11 700 l 1,26,-1
 542 700 l 1,27,-1
 542 637 l 1,28,-1
 311 637 l 1,29,-1
 311 0 l 1,30,-1
 310 0 l 1,0,-1
EndSplineSet
EndChar

StartChar: uni0163
Encoding: 355 355 294
Width: 385
Flags: W
LayerCount: 2
Fore
SplineSet
319.5 -79 m 128,-1,1
 340 -101 340 -101 340 -130 c 0,2,3
 340 -168 340 -168 311.5 -192 c 128,-1,4
 283 -216 283 -216 237 -216 c 0,5,6
 216 -216 216 -216 193 -210 c 128,-1,7
 170 -204 170 -204 152 -194 c 1,8,-1
 168 -151 l 1,9,10
 181 -158 181 -158 198 -162.5 c 128,-1,11
 215 -167 215 -167 230 -167 c 0,12,13
 256 -167 256 -167 270.5 -154 c 128,-1,14
 285 -141 285 -141 285 -124 c 0,15,16
 285 -108 285 -108 270.5 -96.5 c 128,-1,17
 256 -85 256 -85 231 -85 c 2,18,-1
 201 -85 l 1,19,-1
 226 -2 l 1,20,21
 175 4 175 4 145.5 41 c 128,-1,22
 116 78 116 78 116 145 c 2,23,-1
 116 457 l 1,24,-1
 41 457 l 1,25,-1
 40 509 l 1,26,-1
 116 509 l 1,27,-1
 116 644 l 1,28,-1
 183 644 l 1,29,-1
 183 509 l 1,30,-1
 353 510 l 1,31,-1
 353 457 l 1,32,-1
 183 457 l 1,33,-1
 183 156 l 2,34,35
 183 59 183 59 255 59 c 0,36,37
 295 59 295 59 342 87 c 1,38,-1
 362 36 l 1,39,40
 322 8 322 8 276 0 c 1,41,-1
 259 -53 l 1,42,0
 299 -57 299 -57 319.5 -79 c 128,-1,1
EndSplineSet
Substitution2: "<3,3> Small Caps in Latin lookup 11 subtable" uni0163.sc
EndChar

StartChar: Tbar
Encoding: 358 358 297
Width: 553
Flags: W
LayerCount: 2
Fore
SplineSet
542 637 m 1,0,-1
 311 637 l 1,1,-1
 311 362 l 1,2,-1
 469 362 l 1,3,-1
 469 318 l 1,4,-1
 311 318 l 1,5,-1
 311 0 l 1,6,-1
 242 0 l 1,7,-1
 242 318 l 1,8,-1
 83 318 l 1,9,-1
 83 362 l 1,10,-1
 242 362 l 1,11,-1
 242 637 l 1,12,-1
 11 637 l 1,13,-1
 11 700 l 1,14,-1
 542 700 l 1,15,-1
 542 637 l 1,0,-1
EndSplineSet
EndChar

StartChar: tbar
Encoding: 359 359 298
Width: 385
Flags: W
LayerCount: 2
Fore
SplineSet
362 36 m 1,0,1
 308 -1 308 -1 246 -3 c 0,2,3
 186 -3 186 -3 151 34 c 128,-1,4
 116 71 116 71 116 145 c 2,5,-1
 116 272 l 1,6,-1
 40 272 l 1,7,-1
 40 325 l 1,8,-1
 116 325 l 1,9,-1
 116 457 l 1,10,-1
 41 457 l 1,11,-1
 41 510 l 1,12,-1
 116 510 l 1,13,-1
 116 644 l 1,14,-1
 183 644 l 1,15,-1
 183 510 l 1,16,-1
 353 510 l 1,17,-1
 353 457 l 1,18,-1
 183 457 l 1,19,-1
 183 325 l 1,20,-1
 352 325 l 1,21,-1
 352 272 l 1,22,-1
 183 272 l 1,23,-1
 183 156 l 2,24,25
 183 59 183 59 255 59 c 0,26,27
 295 59 295 59 342 87 c 1,28,-1
 362 36 l 1,0,1
EndSplineSet
Substitution2: "<3,3> Small Caps in Latin lookup 11 subtable" tbar.sc
EndChar

StartChar: Uogonek
Encoding: 370 370 309
Width: 767
Flags: W
LayerCount: 2
Fore
SplineSet
673 700 m 1,0,-1
 673 284 l 2,1,2
 673 204 673 204 646 143.5 c 128,-1,3
 619 83 619 83 567 46 c 1,4,5
 518 4 518 4 488 -41 c 128,-1,6
 458 -86 458 -86 458 -120 c 0,7,8
 458 -141 458 -141 468.5 -152 c 128,-1,9
 479 -163 479 -163 497 -163 c 0,10,11
 521 -163 521 -163 543 -149 c 1,12,-1
 561 -194 l 1,13,14
 523 -215 523 -215 484 -215 c 0,15,16
 443 -215 443 -215 419 -191 c 128,-1,17
 395 -167 395 -167 395 -126 c 0,18,19
 395 -67 395 -67 458 1 c 1,20,21
 426 -6 426 -6 384 -6 c 0,22,23
 248 -6 248 -6 171 71 c 128,-1,24
 94 148 94 148 94 284 c 2,25,-1
 94 700 l 1,26,-1
 163 700 l 1,27,-1
 163 284 l 2,28,29
 163 176 163 176 221.5 116 c 128,-1,30
 280 56 280 56 384 56 c 256,31,32
 488 56 488 56 546 116 c 128,-1,33
 604 176 604 176 604 284 c 2,34,-1
 604 700 l 1,35,-1
 673 700 l 1,0,-1
EndSplineSet
EndChar

StartChar: uogonek
Encoding: 371 371 310
Width: 645
Flags: W
LayerCount: 2
Fore
SplineSet
468.5 -66.5 m 128,-1,1
 444 -94 444 -94 444 -122 c 0,2,3
 444 -143 444 -143 454.5 -153 c 128,-1,4
 465 -163 465 -163 483 -163 c 0,5,6
 506 -163 506 -163 529 -149 c 1,7,-1
 547 -194 l 1,8,9
 511 -215 511 -215 470 -215 c 256,10,11
 429 -215 429 -215 405 -193.5 c 128,-1,12
 381 -172 381 -172 381 -133 c 0,13,14
 381 -58 381 -58 480 8 c 1,15,-1
 480 125 l 1,16,17
 454 63 454 63 402.5 31 c 128,-1,18
 351 -1 351 -1 278 -2 c 0,19,20
 185 -2 185 -2 132.5 52.5 c 128,-1,21
 80 107 80 107 80 202 c 2,22,-1
 80 524 l 1,23,-1
 148 524 l 1,24,-1
 148 218 l 2,25,26
 148 144 148 144 188.5 102.5 c 128,-1,27
 229 61 229 61 300 61 c 0,28,29
 384 62 384 62 432 118.5 c 128,-1,30
 480 175 480 175 480 267 c 2,31,-1
 480 524 l 1,32,-1
 548 524 l 1,33,-1
 548 0 l 1,34,0
 493 -39 493 -39 468.5 -66.5 c 128,-1,1
EndSplineSet
Substitution2: "<3,3> Small Caps in Latin lookup 11 subtable" uogonek.sc
EndChar

StartChar: uni018F
Encoding: 399 399 322
Width: 785
Flags: W
LayerCount: 2
Fore
SplineSet
210 43 m 128,-1,1
 129 92 129 92 82.5 177 c 128,-1,2
 36 262 36 262 36 366 c 1,3,-1
 675 366 l 1,4,5
 672 442 672 442 633 505.5 c 128,-1,6
 594 569 594 569 530 606 c 128,-1,7
 466 643 466 643 392 643 c 0,8,9
 324 643 324 643 264 614.5 c 128,-1,10
 204 586 204 586 163 535 c 1,11,-1
 114 582 l 1,12,13
 167 641 167 641 236.5 673 c 128,-1,14
 306 705 306 705 391 705 c 0,15,16
 487 705 487 705 568 657.5 c 128,-1,17
 649 610 649 610 696 529 c 128,-1,18
 743 448 743 448 743 351 c 256,19,20
 743 254 743 254 696 172 c 128,-1,21
 649 90 649 90 568 42 c 128,-1,22
 487 -6 487 -6 391 -6 c 0,23,0
 291 -6 291 -6 210 43 c 128,-1,1
522.5 88.5 m 128,-1,25
 583 121 583 121 622.5 177.5 c 128,-1,26
 662 234 662 234 671 303 c 1,27,-1
 111 303 l 1,28,29
 120 234 120 234 159 177.5 c 128,-1,30
 198 121 198 121 259 88.5 c 128,-1,31
 320 56 320 56 392 56 c 0,32,24
 462 56 462 56 522.5 88.5 c 128,-1,25
EndSplineSet
EndChar

StartChar: florin
Encoding: 402 402 323
Width: 341
Flags: W
LayerCount: 2
Fore
SplineSet
237 664.5 m 128,-1,1
 208 634 208 634 201 584 c 2,2,-1
 186 463 l 1,3,-1
 341 463 l 1,4,-1
 335 414 l 1,5,-1
 180 414 l 1,6,-1
 126 -36 l 2,7,8
 116 -112 116 -112 78.5 -154.5 c 128,-1,9
 41 -197 41 -197 -24 -197 c 0,10,11
 -49 -197 -49 -197 -76.5 -186.5 c 128,-1,12
 -104 -176 -104 -176 -124 -159 c 1,13,-1
 -101 -110 l 1,14,15
 -87 -123 -87 -123 -67 -131.5 c 128,-1,16
 -47 -140 -47 -140 -29 -140 c 0,17,18
 45 -140 45 -140 60 -28 c 2,19,-1
 113 414 l 1,20,-1
 47 414 l 1,21,-1
 53 463 l 1,22,-1
 119 463 l 1,23,-1
 135 592 l 2,24,25
 145 665 145 665 189.5 708.5 c 128,-1,26
 234 752 234 752 300 752 c 0,27,28
 329 752 329 752 360.5 741.5 c 128,-1,29
 392 731 392 731 415 714 c 1,30,-1
 388 665 l 1,31,32
 371 678 371 678 349 686.5 c 128,-1,33
 327 695 327 695 307 695 c 0,34,0
 266 695 266 695 237 664.5 c 128,-1,1
EndSplineSet
EndChar

StartChar: Ohorn
Encoding: 416 416 324
Width: 840
Flags: W
LayerCount: 2
Fore
SplineSet
738.5 500.5 m 128,-1,1
 772 431 772 431 772 351 c 0,2,3
 772 254 772 254 723 172 c 128,-1,4
 674 90 674 90 590.5 42 c 128,-1,5
 507 -6 507 -6 407 -6 c 256,6,7
 307 -6 307 -6 223.5 42 c 128,-1,8
 140 90 140 90 91 172 c 128,-1,9
 42 254 42 254 42 351 c 256,10,11
 42 448 42 448 91 529 c 128,-1,12
 140 610 140 610 223.5 657.5 c 128,-1,13
 307 705 307 705 407 705 c 0,14,15
 493 705 493 705 568 669 c 1,16,17
 592 662 592 662 611 662 c 0,18,19
 644 662 644 662 663 684.5 c 128,-1,20
 682 707 682 707 682 740 c 0,21,22
 682 775 682 775 661 805 c 1,23,-1
 718 826 l 1,24,25
 742 784 742 784 742 743 c 0,26,27
 742 698 742 698 715.5 664 c 128,-1,28
 689 630 689 630 645 620 c 1,29,0
 705 570 705 570 738.5 500.5 c 128,-1,1
554.5 95.5 m 128,-1,31
 622 135 622 135 662 203 c 128,-1,32
 702 271 702 271 702 351 c 256,33,34
 702 431 702 431 662 498 c 128,-1,35
 622 565 622 565 554.5 604 c 128,-1,36
 487 643 487 643 408 643 c 0,37,38
 328 643 328 643 260 604 c 128,-1,39
 192 565 192 565 152 498 c 128,-1,40
 112 431 112 431 112 351 c 256,41,42
 112 271 112 271 152 203 c 128,-1,43
 192 135 192 135 260 95.5 c 128,-1,44
 328 56 328 56 408 56 c 0,45,30
 487 56 487 56 554.5 95.5 c 128,-1,31
EndSplineSet
EndChar

StartChar: ohorn
Encoding: 417 417 325
Width: 643
Flags: W
LayerCount: 2
Fore
SplineSet
616 569 m 0,1,2
 616 520 616 520 586 484.5 c 128,-1,3
 556 449 556 449 507 443 c 1,4,5
 538 408 538 408 555 362 c 128,-1,6
 572 316 572 316 572 263 c 0,7,8
 572 186 572 186 538 125.5 c 128,-1,9
 504 65 504 65 444 31.5 c 128,-1,10
 384 -2 384 -2 308 -2 c 256,11,12
 232 -2 232 -2 172 31.5 c 128,-1,13
 112 65 112 65 78 125.5 c 128,-1,14
 44 186 44 186 44 263 c 0,15,16
 44 339 44 339 78 399 c 128,-1,17
 112 459 112 459 172 492.5 c 128,-1,18
 232 526 232 526 308 526 c 0,19,20
 381 526 381 526 440 495 c 0,21,22
 462 487 462 487 485 487 c 0,23,24
 518 487 518 487 537 509.5 c 128,-1,25
 556 532 556 532 556 565 c 0,26,27
 556 600 556 600 535 630 c 1,28,-1
 592 651 l 1,29,0
 616 613 616 613 616 569 c 0,1,2
410 81 m 128,-1,31
 455 107 455 107 480 154 c 128,-1,32
 505 201 505 201 505 262 c 0,33,34
 505 322 505 322 480 369 c 128,-1,35
 455 416 455 416 410 442 c 128,-1,36
 365 468 365 468 308 468 c 256,37,38
 251 468 251 468 206 442 c 128,-1,39
 161 416 161 416 136 369 c 128,-1,40
 111 322 111 322 111 262 c 0,41,42
 111 201 111 201 136 154 c 128,-1,43
 161 107 161 107 206 81 c 128,-1,44
 251 55 251 55 308 55 c 256,45,30
 365 55 365 55 410 81 c 128,-1,31
EndSplineSet
Substitution2: "<3,3> Small Caps in Latin lookup 11 subtable" ohorn.sc
EndChar

StartChar: Uhorn
Encoding: 431 431 326
Width: 786
Flags: W
LayerCount: 2
Fore
SplineSet
765 757 m 0,1,2
 765 717 765 717 741 690.5 c 128,-1,3
 717 664 717 664 673 657 c 1,4,-1
 673 284 l 2,5,6
 673 148 673 148 596.5 71 c 128,-1,7
 520 -6 520 -6 384 -6 c 256,8,9
 248 -6 248 -6 171 71 c 128,-1,10
 94 148 94 148 94 284 c 2,11,-1
 94 700 l 1,12,-1
 163 700 l 1,13,-1
 163 284 l 2,14,15
 163 176 163 176 221.5 116 c 128,-1,16
 280 56 280 56 384 56 c 256,17,18
 488 56 488 56 546 116 c 128,-1,19
 604 176 604 176 604 284 c 2,20,-1
 604 700 l 1,21,-1
 660 700 l 2,22,23
 685 703 685 703 697.5 717.5 c 128,-1,24
 710 732 710 732 710 754 c 0,25,26
 710 778 710 778 696 806 c 1,27,-1
 749 826 l 1,28,0
 765 791 765 791 765 757 c 0,1,2
EndSplineSet
EndChar

StartChar: uhorn
Encoding: 432 432 327
Width: 647
Flags: W
LayerCount: 2
Fore
SplineSet
630 583 m 0,1,2
 630 545 630 545 608.5 519 c 128,-1,3
 587 493 587 493 548 484 c 1,4,-1
 548 0 l 1,5,-1
 480 0 l 1,6,-1
 480 125 l 1,7,8
 454 63 454 63 402.5 31 c 128,-1,9
 351 -1 351 -1 278 -2 c 0,10,11
 185 -2 185 -2 132.5 52.5 c 128,-1,12
 80 107 80 107 80 202 c 2,13,-1
 80 524 l 1,14,-1
 148 524 l 1,15,-1
 148 218 l 2,16,17
 148 144 148 144 188.5 102.5 c 128,-1,18
 229 61 229 61 300 61 c 0,19,20
 384 62 384 62 432 118.5 c 128,-1,21
 480 175 480 175 480 267 c 2,22,-1
 480 524 l 1,23,-1
 509 524 l 2,24,25
 542 524 542 524 558.5 539 c 128,-1,26
 575 554 575 554 575 579 c 0,27,28
 575 603 575 603 561 631 c 1,29,-1
 614 651 l 1,30,0
 630 616 630 616 630 583 c 0,1,2
EndSplineSet
Substitution2: "<3,3> Small Caps in Latin lookup 11 subtable" uhorn.sc
EndChar

StartChar: uni01EA
Encoding: 490 490 339
Width: 814
Flags: W
LayerCount: 2
Fore
SplineSet
514 -43.5 m 128,-1,1
 486 -87 486 -87 486 -120 c 0,2,3
 486 -141 486 -141 496.5 -152 c 128,-1,4
 507 -163 507 -163 525 -163 c 0,5,6
 549 -163 549 -163 571 -149 c 1,7,-1
 589 -194 l 1,8,9
 551 -215 551 -215 512 -215 c 0,10,11
 471 -215 471 -215 447 -191 c 128,-1,12
 423 -167 423 -167 423 -126 c 0,13,14
 423 -65 423 -65 487 3 c 1,15,16
 450 -6 450 -6 407 -6 c 0,17,18
 307 -6 307 -6 223.5 42 c 128,-1,19
 140 90 140 90 91 172 c 128,-1,20
 42 254 42 254 42 351 c 256,21,22
 42 448 42 448 91 529 c 128,-1,23
 140 610 140 610 223.5 657.5 c 128,-1,24
 307 705 307 705 407 705 c 256,25,26
 507 705 507 705 590.5 657.5 c 128,-1,27
 674 610 674 610 723 529 c 128,-1,28
 772 448 772 448 772 351 c 0,29,30
 772 253 772 253 722.5 170.5 c 128,-1,31
 673 88 673 88 590 41 c 1,32,0
 542 0 542 0 514 -43.5 c 128,-1,1
152 203 m 128,-1,34
 192 135 192 135 260 95.5 c 128,-1,35
 328 56 328 56 408 56 c 0,36,37
 487 56 487 56 554.5 95.5 c 128,-1,38
 622 135 622 135 662 203 c 128,-1,39
 702 271 702 271 702 351 c 256,40,41
 702 431 702 431 662 498 c 128,-1,42
 622 565 622 565 554.5 604 c 128,-1,43
 487 643 487 643 408 643 c 0,44,45
 328 643 328 643 260 604 c 128,-1,46
 192 565 192 565 152 498 c 128,-1,47
 112 431 112 431 112 351 c 256,48,33
 112 271 112 271 152 203 c 128,-1,34
EndSplineSet
EndChar

StartChar: uni01EB
Encoding: 491 491 340
Width: 616
Flags: W
LayerCount: 2
Fore
SplineSet
546 141 m 128,-1,1
 520 86 520 86 473 50 c 0,2,3
 422 8 422 8 390.5 -38.5 c 128,-1,4
 359 -85 359 -85 359 -120 c 0,5,6
 359 -141 359 -141 369.5 -152 c 128,-1,7
 380 -163 380 -163 398 -163 c 0,8,9
 422 -163 422 -163 444 -149 c 1,10,-1
 462 -194 l 1,11,12
 424 -215 424 -215 385 -215 c 0,13,14
 344 -215 344 -215 320 -191 c 128,-1,15
 296 -167 296 -167 296 -126 c 0,16,17
 296 -65 296 -65 360 2 c 1,18,19
 337 -2 337 -2 308 -2 c 0,20,21
 232 -2 232 -2 172 31.5 c 128,-1,22
 112 65 112 65 78 125.5 c 128,-1,23
 44 186 44 186 44 263 c 0,24,25
 44 339 44 339 78 399 c 128,-1,26
 112 459 112 459 172 492.5 c 128,-1,27
 232 526 232 526 308 526 c 256,28,29
 384 526 384 526 444 492.5 c 128,-1,30
 504 459 504 459 538 399 c 128,-1,31
 572 339 572 339 572 263 c 0,32,0
 572 196 572 196 546 141 c 128,-1,1
136 154 m 128,-1,34
 161 107 161 107 206 81 c 128,-1,35
 251 55 251 55 308 55 c 256,36,37
 365 55 365 55 410 81 c 128,-1,38
 455 107 455 107 480 154 c 128,-1,39
 505 201 505 201 505 262 c 0,40,41
 505 322 505 322 480 369 c 128,-1,42
 455 416 455 416 410 442 c 128,-1,43
 365 468 365 468 308 468 c 256,44,45
 251 468 251 468 206 442 c 128,-1,46
 161 416 161 416 136 369 c 128,-1,47
 111 322 111 322 111 262 c 0,48,33
 111 201 111 201 136 154 c 128,-1,34
EndSplineSet
Substitution2: "<3,3> Small Caps in Latin lookup 11 subtable" uni01EB.sc
EndChar

StartChar: uni0237
Encoding: 567 567 383
Width: 247
Flags: W
LayerCount: 2
Fore
SplineSet
11 -139 m 0,1,2
 52 -140 52 -140 73.5 -109.5 c 128,-1,3
 95 -79 95 -79 95 -20 c 2,4,-1
 95 524 l 1,5,-1
 162 524 l 1,6,-1
 162 -28 l 2,7,8
 162 -109 162 -109 126.5 -152.5 c 128,-1,9
 91 -196 91 -196 25 -196 c 0,10,11
 -15 -196 -15 -196 -57 -179 c 1,12,-1
 -41 -128 l 1,13,0
 -14 -138 -14 -138 11 -139 c 0,1,2
EndSplineSet
EndChar

StartChar: uni0259
Encoding: 601 601 384
Width: 589
Flags: W
LayerCount: 2
Fore
SplineSet
420 492.5 m 128,-1,1
 479 459 479 459 512.5 399 c 128,-1,2
 546 339 546 339 546 262 c 0,3,4
 546 186 546 186 512.5 125.5 c 128,-1,5
 479 65 479 65 420 31.5 c 128,-1,6
 361 -2 361 -2 287 -2 c 0,7,8
 165 -2 165 -2 101 75.5 c 128,-1,9
 37 153 37 153 42 284 c 1,10,-1
 479 284 l 1,11,12
 472 368 472 368 417 419.5 c 128,-1,13
 362 471 362 471 281 471 c 0,14,15
 231 471 231 471 188 453 c 128,-1,16
 145 435 145 435 114 402 c 1,17,-1
 76 440 l 1,18,19
 114 481 114 481 167.5 503.5 c 128,-1,20
 221 526 221 526 285 526 c 0,21,0
 361 526 361 526 420 492.5 c 128,-1,1
418 102 m 128,-1,23
 471 151 471 151 479 232 c 1,24,-1
 102 232 l 1,25,26
 107 150 107 150 156.5 101.5 c 128,-1,27
 206 53 206 53 286 53 c 0,28,22
 365 53 365 53 418 102 c 128,-1,23
EndSplineSet
Substitution2: "<3,3> Small Caps in Latin lookup 11 subtable" uni0259.sc
EndChar

StartChar: uni02BB
Encoding: 699 699 385
Width: 166
Flags: W
LayerCount: 2
Fore
SplineSet
116 512 m 1,0,-1
 50 527 l 1,1,-1
 69 700 l 1,2,-1
 116 700 l 1,3,-1
 116 512 l 1,0,-1
EndSplineSet
EndChar

StartChar: uni02BC
Encoding: 700 700 386
Width: 121
Flags: W
LayerCount: 2
Fore
SplineSet
35 700 m 1,0,-1
 89 700 l 1,1,-1
 78 440 l 1,2,-1
 33 440 l 1,3,-1
 35 700 l 1,0,-1
EndSplineSet
EndChar

StartChar: uni02BE
Encoding: 702 702 387
Width: 256
Flags: W
LayerCount: 2
Fore
SplineSet
67 599 m 1,0,1
 100 599 100 599 124 622 c 128,-1,2
 148 645 148 645 148 676 c 256,3,4
 148 707 148 707 124 730 c 128,-1,5
 100 753 100 753 67 753 c 1,6,-1
 67 789 l 1,7,8
 98 789 98 789 124.5 773.5 c 128,-1,9
 151 758 151 758 167 732 c 128,-1,10
 183 706 183 706 183 676 c 0,11,12
 183 630 183 630 148.5 597 c 128,-1,13
 114 564 114 564 67 564 c 1,14,-1
 67 599 l 1,0,1
EndSplineSet
EndChar

StartChar: uni02BF
Encoding: 703 703 388
Width: 255
Flags: W
LayerCount: 2
Fore
SplineSet
188 599 m 1,0,1
 155 599 155 599 131.5 621.5 c 128,-1,2
 108 644 108 644 108 676 c 256,3,4
 108 708 108 708 131.5 730.5 c 128,-1,5
 155 753 155 753 188 753 c 1,6,-1
 188 789 l 1,7,8
 157 789 157 789 130.5 773.5 c 128,-1,9
 104 758 104 758 88.5 732 c 128,-1,10
 73 706 73 706 73 676 c 0,11,12
 73 630 73 630 107 597 c 128,-1,13
 141 564 141 564 188 564 c 1,14,-1
 188 599 l 1,0,1
EndSplineSet
EndChar

StartChar: uni02C8
Encoding: 712 712 391
Width: 82
Flags: W
LayerCount: 2
Fore
SplineSet
15 522 m 1,0,-1
 15 700 l 1,1,-1
 67 700 l 1,2,-1
 67 522 l 1,3,-1
 15 522 l 1,0,-1
EndSplineSet
EndChar

StartChar: uni02CC
Encoding: 716 716 395
Width: 81
Flags: W
LayerCount: 2
Fore
SplineSet
15 -208 m 1,0,-1
 15 -31 l 1,1,-1
 66 -31 l 1,2,-1
 66 -208 l 1,3,-1
 15 -208 l 1,0,-1
EndSplineSet
EndChar

StartChar: gravecomb
Encoding: 768 768 402
Width: 0
Flags: W
LayerCount: 2
Fore
SplineSet
-174 747 m 1,0,-1
 -57 624 l 1,1,-1
 -117 617 l 1,2,-1
 -243 717 l 1,3,-1
 -174 747 l 1,0,-1
EndSplineSet
Substitution2: "<3,3> Small Caps in Latin lookup 11 subtable" gravecomb.sc
EndChar

StartChar: acutecomb
Encoding: 769 769 403
Width: 0
Flags: W
LayerCount: 2
Fore
SplineSet
-89 747 m 1,0,-1
 -20 717 l 1,1,-1
 -146 617 l 1,2,-1
 -206 624 l 1,3,-1
 -89 747 l 1,0,-1
EndSplineSet
Substitution2: "<3,3> Small Caps in Latin lookup 11 subtable" acutecomb.sc
EndChar

StartChar: uni0302
Encoding: 770 770 404
Width: 0
Flags: W
LayerCount: 2
Fore
SplineSet
-15 619 m 1,0,-1
 -84 619 l 1,1,-1
 -154 695 l 1,2,-1
 -225 619 l 1,3,-1
 -294 619 l 1,4,-1
 -191 744 l 1,5,-1
 -117 744 l 1,6,-1
 -15 619 l 1,0,-1
EndSplineSet
Substitution2: "<3,3> Small Caps in Latin lookup 11 subtable" uni0302.sc
EndChar

StartChar: tildecomb
Encoding: 771 771 405
Width: 0
Flags: W
LayerCount: 2
Fore
SplineSet
-46.5 646 m 128,-1,1
 -66 616 -66 616 -105 616 c 0,2,3
 -126 616 -126 616 -142.5 624.5 c 128,-1,4
 -159 633 -159 633 -181 648 c 0,5,6
 -201 662 -201 662 -211.5 667.5 c 128,-1,7
 -222 673 -222 673 -234 673 c 0,8,9
 -253 673 -253 673 -262.5 659 c 128,-1,10
 -272 645 -272 645 -272 620 c 1,11,-1
 -321 620 l 1,12,13
 -321 667 -321 667 -301.5 697 c 128,-1,14
 -282 727 -282 727 -243 727 c 0,15,16
 -222 727 -222 727 -205 718.5 c 128,-1,17
 -188 710 -188 710 -167 694 c 0,18,19
 -147 680 -147 680 -136.5 674.5 c 128,-1,20
 -126 669 -126 669 -114 669 c 0,21,22
 -76 669 -76 669 -76 723 c 1,23,-1
 -27 723 l 1,24,0
 -27 676 -27 676 -46.5 646 c 128,-1,1
EndSplineSet
Substitution2: "<3,3> Small Caps in Latin lookup 11 subtable" tildecomb.sc
EndChar

StartChar: uni0304
Encoding: 772 772 406
Width: 0
Flags: W
LayerCount: 2
Fore
SplineSet
-276 697 m 1,0,-1
 0 697 l 1,1,-1
 0 651 l 1,2,-1
 -276 651 l 1,3,-1
 -276 697 l 1,0,-1
EndSplineSet
Substitution2: "<3,3> Small Caps in Latin lookup 11 subtable" uni0304.sc
EndChar

StartChar: uni0306
Encoding: 774 774 407
Width: 0
Flags: W
LayerCount: 2
Fore
SplineSet
-201.5 683.5 m 128,-1,1
 -181 662 -181 662 -150 662 c 256,2,3
 -119 662 -119 662 -98.5 683.5 c 128,-1,4
 -78 705 -78 705 -76 737 c 1,5,-1
 -27 737 l 1,6,7
 -28 683 -28 683 -63 648.5 c 128,-1,8
 -98 614 -98 614 -150 614 c 0,9,10
 -201 614 -201 614 -236 648.5 c 128,-1,11
 -271 683 -271 683 -273 737 c 1,12,-1
 -224 737 l 1,13,0
 -222 705 -222 705 -201.5 683.5 c 128,-1,1
EndSplineSet
Substitution2: "<3,3> Small Caps in Latin lookup 11 subtable" uni0306.sc
EndChar

StartChar: uni0307
Encoding: 775 775 408
Width: 0
Flags: W
LayerCount: 2
Fore
SplineSet
-63 708.5 m 128,-1,1
 -50 695 -50 695 -50 675 c 256,2,3
 -50 655 -50 655 -63.5 641 c 128,-1,4
 -77 627 -77 627 -96 627 c 0,5,6
 -116 627 -116 627 -129.5 641 c 128,-1,7
 -143 655 -143 655 -143 675 c 256,8,9
 -143 695 -143 695 -129.5 708.5 c 128,-1,10
 -116 722 -116 722 -96 722 c 256,11,0
 -76 722 -76 722 -63 708.5 c 128,-1,1
EndSplineSet
Substitution2: "<3,3> Small Caps in Latin lookup 11 subtable" uni0307.sc
EndChar

StartChar: uni0308
Encoding: 776 776 409
Width: 0
Flags: W
LayerCount: 2
Fore
SplineSet
-225.5 705.5 m 128,-1,1
 -213 693 -213 693 -213 674 c 0,2,3
 -213 656 -213 656 -225.5 643 c 128,-1,4
 -238 630 -238 630 -256 630 c 256,5,6
 -274 630 -274 630 -286.5 643 c 128,-1,7
 -299 656 -299 656 -299 674 c 0,8,9
 -299 693 -299 693 -286.5 705.5 c 128,-1,10
 -274 718 -274 718 -256 718 c 256,11,0
 -238 718 -238 718 -225.5 705.5 c 128,-1,1
-61.5 705.5 m 128,-1,13
 -49 693 -49 693 -49 674 c 0,14,15
 -49 656 -49 656 -61.5 643 c 128,-1,16
 -74 630 -74 630 -92 630 c 256,17,18
 -110 630 -110 630 -122.5 643 c 128,-1,19
 -135 656 -135 656 -135 674 c 0,20,21
 -135 693 -135 693 -122.5 705.5 c 128,-1,22
 -110 718 -110 718 -92 718 c 256,23,12
 -74 718 -74 718 -61.5 705.5 c 128,-1,13
EndSplineSet
Substitution2: "<3,3> Small Caps in Latin lookup 11 subtable" uni0308.sc
EndChar

StartChar: hookabovecomb
Encoding: 777 777 410
Width: 0
Flags: W
LayerCount: 2
Fore
SplineSet
-58 747.5 m 128,-1,1
 -34 727 -34 727 -34 692 c 0,2,3
 -34 665 -34 665 -52 635.5 c 128,-1,4
 -70 606 -70 606 -99 582 c 1,5,-1
 -140 600 l 1,6,7
 -118 618 -118 618 -105 640.5 c 128,-1,8
 -92 663 -92 663 -92 682 c 0,9,10
 -92 698 -92 698 -103.5 709 c 128,-1,11
 -115 720 -115 720 -133 720 c 0,12,13
 -155 720 -155 720 -177 705 c 1,14,-1
 -201 743 l 1,15,16
 -164 768 -164 768 -121 768 c 0,17,0
 -82 768 -82 768 -58 747.5 c 128,-1,1
EndSplineSet
Substitution2: "<3,3> Small Caps in Latin lookup 11 subtable" hookabovecomb.sc
EndChar

StartChar: uni030A
Encoding: 778 778 411
Width: 0
Flags: W
LayerCount: 2
Fore
SplineSet
-105.5 747.5 m 128,-1,1
 -76 718 -76 718 -76 678 c 256,2,3
 -76 638 -76 638 -105.5 609 c 128,-1,4
 -135 580 -135 580 -176 580 c 256,5,6
 -217 580 -217 580 -246.5 609 c 128,-1,7
 -276 638 -276 638 -276 678 c 256,8,9
 -276 718 -276 718 -246.5 747.5 c 128,-1,10
 -217 777 -217 777 -176 777 c 256,11,0
 -135 777 -135 777 -105.5 747.5 c 128,-1,1
-220 720.5 m 128,-1,13
 -238 703 -238 703 -238 678 c 0,14,15
 -238 654 -238 654 -219.5 636.5 c 128,-1,16
 -201 619 -201 619 -176 619 c 256,17,18
 -151 619 -151 619 -132.5 636.5 c 128,-1,19
 -114 654 -114 654 -114 678 c 0,20,21
 -114 703 -114 703 -132.5 720.5 c 128,-1,22
 -151 738 -151 738 -176 738 c 0,23,12
 -202 738 -202 738 -220 720.5 c 128,-1,13
EndSplineSet
EndChar

StartChar: uni030B
Encoding: 779 779 412
Width: 0
Flags: W
LayerCount: 2
Fore
SplineSet
-248 751 m 1,0,-1
 -190 723 l 1,1,-1
 -283 617 l 1,2,-1
 -336 624 l 1,3,-1
 -248 751 l 1,0,-1
-106 751 m 1,4,-1
 -48 723 l 1,5,-1
 -141 617 l 1,6,-1
 -194 624 l 1,7,-1
 -106 751 l 1,4,-1
EndSplineSet
Substitution2: "<3,3> Small Caps in Latin lookup 11 subtable" uni030B.sc
EndChar

StartChar: uni030C
Encoding: 780 780 413
Width: 0
Flags: W
LayerCount: 2
Fore
SplineSet
-99 744 m 1,0,-1
 -30 744 l 1,1,-1
 -133 619 l 1,2,-1
 -207 619 l 1,3,-1
 -309 744 l 1,4,-1
 -240 744 l 1,5,-1
 -170 668 l 1,6,-1
 -99 744 l 1,0,-1
EndSplineSet
Substitution2: "<3,3> Small Caps in Latin lookup 11 subtable" uni030C.sc
EndChar

StartChar: uni030F
Encoding: 783 783 414
Width: 0
Flags: W
LayerCount: 2
Fore
SplineSet
-285 751 m 1,0,-1
 -196 624 l 1,1,-1
 -250 617 l 1,2,-1
 -343 723 l 1,3,-1
 -285 751 l 1,0,-1
-143 751 m 1,4,-1
 -54 624 l 1,5,-1
 -108 617 l 1,6,-1
 -201 723 l 1,7,-1
 -143 751 l 1,4,-1
EndSplineSet
Substitution2: "<3,3> Small Caps in Latin lookup 11 subtable" uni030F.sc
EndChar

StartChar: uni0311
Encoding: 785 785 415
Width: 0
Flags: W
LayerCount: 2
Fore
SplineSet
-273 614 m 1,0,1
 -271 668 -271 668 -236 702.5 c 128,-1,2
 -201 737 -201 737 -150 737 c 0,3,4
 -98 737 -98 737 -63 702.5 c 128,-1,5
 -28 668 -28 668 -27 614 c 1,6,-1
 -76 614 l 1,7,8
 -78 647 -78 647 -98.5 668.5 c 128,-1,9
 -119 690 -119 690 -150 690 c 256,10,11
 -181 690 -181 690 -201.5 668.5 c 128,-1,12
 -222 647 -222 647 -224 614 c 1,13,-1
 -273 614 l 1,0,1
EndSplineSet
Substitution2: "<3,3> Small Caps in Latin lookup 11 subtable" uni0311.sc
EndChar

StartChar: uni0312
Encoding: 786 786 416
Width: 0
Flags: W
LayerCount: 2
Fore
SplineSet
-77 614 m 1,0,-1
 -141 614 l 1,1,-1
 -90 770 l 1,2,-1
 -40 770 l 1,3,-1
 -77 614 l 1,0,-1
EndSplineSet
EndChar

StartChar: uni031B
Encoding: 795 795 417
Width: 0
Flags: W
LayerCount: 2
Fore
SplineSet
-28 582 m 0,1,2
 -28 536 -28 536 -60 508 c 128,-1,3
 -92 480 -92 480 -149 480 c 1,4,-1
 -149 524 l 1,5,6
 -116 524 -116 524 -99.5 539 c 128,-1,7
 -83 554 -83 554 -83 579 c 0,8,9
 -83 603 -83 603 -97 631 c 1,10,-1
 -44 651 l 1,11,0
 -28 616 -28 616 -28 582 c 0,1,2
EndSplineSet
EndChar

StartChar: dotbelowcomb
Encoding: 803 803 418
Width: 0
Flags: W
LayerCount: 2
Fore
SplineSet
-63 -89.5 m 128,-1,1
 -50 -103 -50 -103 -50 -123 c 256,2,3
 -50 -143 -50 -143 -63.5 -157 c 128,-1,4
 -77 -171 -77 -171 -96 -171 c 0,5,6
 -116 -171 -116 -171 -129.5 -157 c 128,-1,7
 -143 -143 -143 -143 -143 -123 c 256,8,9
 -143 -103 -143 -103 -129.5 -89.5 c 128,-1,10
 -116 -76 -116 -76 -96 -76 c 256,11,0
 -76 -76 -76 -76 -63 -89.5 c 128,-1,1
EndSplineSet
Substitution2: "<3,3> Small Caps in Latin lookup 11 subtable" dotbelowcomb.sc
EndChar

StartChar: uni0324
Encoding: 804 804 419
Width: 0
Flags: W
LayerCount: 2
Fore
SplineSet
-214.5 -86.5 m 128,-1,1
 -202 -99 -202 -99 -202 -118 c 0,2,3
 -202 -136 -202 -136 -214.5 -149 c 128,-1,4
 -227 -162 -227 -162 -245 -162 c 256,5,6
 -263 -162 -263 -162 -275.5 -149 c 128,-1,7
 -288 -136 -288 -136 -288 -118 c 0,8,9
 -288 -99 -288 -99 -275.5 -86.5 c 128,-1,10
 -263 -74 -263 -74 -245 -74 c 256,11,0
 -227 -74 -227 -74 -214.5 -86.5 c 128,-1,1
-50.5 -86.5 m 128,-1,13
 -38 -99 -38 -99 -38 -118 c 0,14,15
 -38 -136 -38 -136 -50.5 -149 c 128,-1,16
 -63 -162 -63 -162 -81 -162 c 256,17,18
 -99 -162 -99 -162 -111.5 -149 c 128,-1,19
 -124 -136 -124 -136 -124 -118 c 0,20,21
 -124 -99 -124 -99 -111.5 -86.5 c 128,-1,22
 -99 -74 -99 -74 -81 -74 c 256,23,12
 -63 -74 -63 -74 -50.5 -86.5 c 128,-1,13
EndSplineSet
Substitution2: "<3,3> Small Caps in Latin lookup 11 subtable" uni0324.sc
EndChar

StartChar: uni0326
Encoding: 806 806 420
Width: 0
Flags: W
LayerCount: 2
Fore
SplineSet
-118 -61 m 1,0,-1
 -54 -61 l 1,1,-1
 -105 -217 l 1,2,-1
 -155 -217 l 1,3,-1
 -118 -61 l 1,0,-1
EndSplineSet
EndChar

StartChar: uni0327
Encoding: 807 807 421
Width: 0
Flags: W
LayerCount: 2
Fore
SplineSet
-104 0 m 1,0,-1
 -121 -53 l 1,1,2
 -81 -57 -81 -57 -60.5 -79 c 128,-1,3
 -40 -101 -40 -101 -40 -130 c 0,4,5
 -40 -168 -40 -168 -68.5 -192 c 128,-1,6
 -97 -216 -97 -216 -143 -216 c 0,7,8
 -164 -216 -164 -216 -187 -210 c 128,-1,9
 -210 -204 -210 -204 -228 -194 c 1,10,-1
 -212 -151 l 1,11,12
 -199 -158 -199 -158 -182 -162.5 c 128,-1,13
 -165 -167 -165 -167 -150 -167 c 0,14,15
 -124 -167 -124 -167 -109.5 -154 c 128,-1,16
 -95 -141 -95 -141 -95 -124 c 0,17,18
 -95 -108 -95 -108 -109.5 -96.5 c 128,-1,19
 -124 -85 -124 -85 -149 -85 c 2,20,-1
 -179 -85 l 1,21,-1
 -151 7 l 1,22,-1
 -104 0 l 1,0,-1
EndSplineSet
Substitution2: "<3,3> Small Caps in Latin lookup 11 subtable" uni0327.sc
EndChar

StartChar: uni0328
Encoding: 808 808 422
Width: 0
Flags: W
LayerCount: 2
Fore
SplineSet
-32 0 m 1,0,1
 -87 -39 -87 -39 -111.5 -66.5 c 128,-1,2
 -136 -94 -136 -94 -136 -122 c 0,3,4
 -136 -143 -136 -143 -125.5 -153 c 128,-1,5
 -115 -163 -115 -163 -97 -163 c 0,6,7
 -74 -163 -74 -163 -51 -149 c 1,8,-1
 -33 -194 l 1,9,10
 -69 -215 -69 -215 -110 -215 c 256,11,12
 -151 -215 -151 -215 -175 -193.5 c 128,-1,13
 -199 -172 -199 -172 -199 -133 c 0,14,15
 -199 -91 -199 -91 -168.5 -52 c 128,-1,16
 -138 -13 -138 -13 -72 26 c 1,17,-1
 -32 0 l 1,0,1
EndSplineSet
EndChar

StartChar: uni032E
Encoding: 814 814 423
Width: 0
Flags: W
LayerCount: 2
Fore
SplineSet
-201.5 -103.5 m 128,-1,1
 -181 -125 -181 -125 -150 -125 c 256,2,3
 -119 -125 -119 -125 -98.5 -103.5 c 128,-1,4
 -78 -82 -78 -82 -76 -50 c 1,5,-1
 -27 -50 l 1,6,7
 -28 -104 -28 -104 -63 -138.5 c 128,-1,8
 -98 -173 -98 -173 -150 -173 c 0,9,10
 -201 -173 -201 -173 -236 -138.5 c 128,-1,11
 -271 -104 -271 -104 -273 -50 c 1,12,-1
 -224 -50 l 1,13,0
 -222 -82 -222 -82 -201.5 -103.5 c 128,-1,1
EndSplineSet
EndChar

StartChar: uni0331
Encoding: 817 817 424
Width: 0
Flags: W
LayerCount: 2
Fore
SplineSet
-306 -86 m 1,0,-1
 -30 -86 l 1,1,-1
 -30 -132 l 1,2,-1
 -306 -132 l 1,3,-1
 -306 -86 l 1,0,-1
EndSplineSet
EndChar

StartChar: uni0335
Encoding: 821 821 425
Width: 0
Flags: W
LayerCount: 2
Fore
SplineSet
-317 463 m 1,0,-1
 -5 463 l 1,1,-1
 -5 419 l 1,2,-1
 -317 419 l 1,3,-1
 -317 463 l 1,0,-1
EndSplineSet
EndChar

StartChar: uni0336
Encoding: 822 822 426
Width: 0
Flags: W
LayerCount: 2
Fore
SplineSet
-495 463 m 1,0,-1
 -109 463 l 1,1,-1
 -109 419 l 1,2,-1
 -495 419 l 1,3,-1
 -495 463 l 1,0,-1
EndSplineSet
EndChar

StartChar: uni0337
Encoding: 823 823 427
Width: 0
Flags: W
LayerCount: 2
Fore
SplineSet
-37 559 m 1,0,-1
 -193 86 l 1,1,-1
 -252 86 l 1,2,-1
 -96 559 l 1,3,-1
 -37 559 l 1,0,-1
EndSplineSet
EndChar

StartChar: uni0338
Encoding: 824 824 428
Width: 0
Flags: W
LayerCount: 2
Fore
SplineSet
-280 0 m 1,0,-1
 -36 742 l 1,1,-1
 24 742 l 1,2,-1
 -221 0 l 1,3,-1
 -280 0 l 1,0,-1
EndSplineSet
EndChar

StartChar: uni0394
Encoding: 916 916 429
Width: 712
Flags: W
LayerCount: 2
Fore
SplineSet
392 699 m 1,0,-1
 707 0 l 1,1,-1
 5 0 l 1,2,-1
 320 699 l 1,3,-1
 392 699 l 1,0,-1
103 55 m 1,4,-1
 608 55 l 1,5,-1
 354 626 l 1,6,-1
 103 55 l 1,4,-1
EndSplineSet
EndChar

StartChar: uni03A9
Encoding: 937 937 430
Width: 904
Flags: W
LayerCount: 2
Fore
SplineSet
702 186.5 m 128,-1,1
 749 267 749 267 749 354 c 0,2,3
 749 433 749 433 712 498.5 c 128,-1,4
 675 564 675 564 607.5 602.5 c 128,-1,5
 540 641 540 641 452 641 c 0,6,7
 365 641 365 641 297.5 602.5 c 128,-1,8
 230 564 230 564 193 499 c 128,-1,9
 156 434 156 434 156 355 c 0,10,11
 156 267 156 267 203 186.5 c 128,-1,12
 250 106 250 106 330 62 c 1,13,-1
 330 0 l 1,14,-1
 11 0 l 1,15,-1
 11 59 l 1,16,-1
 249 59 l 1,17,18
 180 108 180 108 136.5 192.5 c 128,-1,19
 93 277 93 277 93 362 c 0,20,21
 93 458 93 458 139.5 535.5 c 128,-1,22
 186 613 186 613 268 657.5 c 128,-1,23
 350 702 350 702 452 702 c 256,24,25
 554 702 554 702 636 658 c 128,-1,26
 718 614 718 614 765 536 c 128,-1,27
 812 458 812 458 812 362 c 0,28,29
 812 277 812 277 768 192 c 128,-1,30
 724 107 724 107 656 59 c 1,31,-1
 893 59 l 1,32,-1
 893 0 l 1,33,-1
 575 0 l 1,34,-1
 575 62 l 1,35,0
 655 106 655 106 702 186.5 c 128,-1,1
EndSplineSet
EndChar

StartChar: uni03BC
Encoding: 956 956 431
Width: 668
Flags: W
LayerCount: 2
Fore
SplineSet
571 524 m 1,0,-1
 571 0 l 1,1,-1
 503 0 l 1,2,-1
 503 125 l 1,3,4
 477 63 477 63 425.5 31 c 128,-1,5
 374 -1 374 -1 301 -2 c 0,6,7
 222 -2 222 -2 171 38 c 1,8,-1
 171 -194 l 1,9,-1
 103 -194 l 1,10,-1
 103 524 l 1,11,-1
 171 524 l 1,12,-1
 171 218 l 2,13,14
 171 144 171 144 211.5 102.5 c 128,-1,15
 252 61 252 61 323 61 c 0,16,17
 407 62 407 62 455 118.5 c 128,-1,18
 503 175 503 175 503 267 c 2,19,-1
 503 524 l 1,20,-1
 571 524 l 1,0,-1
EndSplineSet
EndChar

StartChar: pi
Encoding: 960 960 432
Width: 722
Flags: W
LayerCount: 2
Fore
SplineSet
713 471 m 1,0,-1
 549 471 l 1,1,-1
 549 0 l 1,2,-1
 491 0 l 1,3,-1
 491 471 l 1,4,-1
 296 471 l 1,5,-1
 242 0 l 1,6,-1
 184 0 l 1,7,-1
 238 471 l 1,8,-1
 170 471 l 2,9,10
 118 471 118 471 84 441 c 128,-1,11
 50 411 50 411 51 366 c 0,12,13
 51 324 51 324 80 282 c 1,14,-1
 32 261 l 1,15,16
 15 285 15 285 5 316.5 c 128,-1,17
 -5 348 -5 348 -5 377 c 0,18,19
 -5 418 -5 418 17 451.5 c 128,-1,20
 39 485 39 485 77.5 504.5 c 128,-1,21
 116 524 116 524 163 524 c 2,22,-1
 714 524 l 1,23,-1
 713 471 l 1,0,-1
EndSplineSet
EndChar

StartChar: uni1E08
Encoding: 7688 7688 433
Width: 701
Flags: W
LayerCount: 2
Fore
SplineSet
521 867 m 1,0,-1
 395 767 l 1,1,-1
 335 774 l 1,2,-1
 452 897 l 1,3,-1
 521 867 l 1,0,-1
467.5 -79 m 128,-1,5
 488 -101 488 -101 488 -130 c 0,6,7
 488 -168 488 -168 459.5 -192 c 128,-1,8
 431 -216 431 -216 385 -216 c 0,9,10
 364 -216 364 -216 341 -210 c 128,-1,11
 318 -204 318 -204 300 -194 c 1,12,-1
 316 -151 l 1,13,14
 329 -158 329 -158 346 -162.5 c 128,-1,15
 363 -167 363 -167 378 -167 c 0,16,17
 404 -167 404 -167 418.5 -154 c 128,-1,18
 433 -141 433 -141 433 -124 c 0,19,20
 433 -108 433 -108 418.5 -96.5 c 128,-1,21
 404 -85 404 -85 379 -85 c 2,22,-1
 349 -85 l 1,23,-1
 373 -5 l 1,24,25
 281 2 281 2 205.5 51.5 c 128,-1,26
 130 101 130 101 86 180 c 128,-1,27
 42 259 42 259 42 351 c 0,28,29
 42 448 42 448 91 529 c 128,-1,30
 140 610 140 610 223.5 657.5 c 128,-1,31
 307 705 307 705 406 705 c 0,32,33
 477 705 477 705 543 678.5 c 128,-1,34
 609 652 609 652 659 605 c 1,35,-1
 618 557 l 1,36,37
 576 598 576 598 521 621 c 128,-1,38
 466 644 466 644 407 644 c 0,39,40
 326 644 326 644 258.5 605 c 128,-1,41
 191 566 191 566 151.5 498.5 c 128,-1,42
 112 431 112 431 112 351 c 256,43,44
 112 271 112 271 151.5 204 c 128,-1,45
 191 137 191 137 258.5 97.5 c 128,-1,46
 326 58 326 58 407 58 c 0,47,48
 465 58 465 58 520 80.5 c 128,-1,49
 575 103 575 103 618 143 c 1,50,-1
 660 98 l 1,51,52
 611 53 611 53 549 25.5 c 128,-1,53
 487 -2 487 -2 422 -5 c 1,54,-1
 407 -53 l 1,55,4
 447 -57 447 -57 467.5 -79 c 128,-1,5
EndSplineSet
EndChar

StartChar: uni1E09
Encoding: 7689 7689 434
Width: 561
Flags: W
LayerCount: 2
Fore
SplineSet
426 741 m 1,0,-1
 300 641 l 1,1,-1
 240 648 l 1,2,-1
 357 771 l 1,3,-1
 426 741 l 1,0,-1
427.5 24 m 128,-1,5
 379 1 379 1 319 -2 c 1,6,-1
 303 -53 l 1,7,8
 343 -57 343 -57 363.5 -79 c 128,-1,9
 384 -101 384 -101 384 -130 c 0,10,11
 384 -168 384 -168 355.5 -192 c 128,-1,12
 327 -216 327 -216 281 -216 c 0,13,14
 260 -216 260 -216 237 -210 c 128,-1,15
 214 -204 214 -204 196 -194 c 1,16,-1
 212 -151 l 1,17,18
 225 -158 225 -158 242 -162.5 c 128,-1,19
 259 -167 259 -167 274 -167 c 0,20,21
 300 -167 300 -167 314.5 -154 c 128,-1,22
 329 -141 329 -141 329 -124 c 0,23,24
 329 -108 329 -108 314.5 -96.5 c 128,-1,25
 300 -85 300 -85 275 -85 c 2,26,-1
 245 -85 l 1,27,-1
 271 0 l 1,28,29
 204 7 204 7 152.5 42 c 128,-1,30
 101 77 101 77 72 134 c 128,-1,31
 43 191 43 191 43 262 c 0,32,33
 43 338 43 338 76.5 398.5 c 128,-1,34
 110 459 110 459 169 492.5 c 128,-1,35
 228 526 228 526 303 526 c 0,36,37
 364 526 364 526 414.5 506 c 128,-1,38
 465 486 465 486 501 450 c 1,39,-1
 463 405 l 1,40,41
 399 467 399 467 306 467 c 0,42,43
 250 467 250 467 205 441 c 128,-1,44
 160 415 160 415 135 368.5 c 128,-1,45
 110 322 110 322 110 262 c 256,46,47
 110 202 110 202 135 155 c 128,-1,48
 160 108 160 108 205 82 c 128,-1,49
 250 56 250 56 306 56 c 0,50,51
 357 56 357 56 399.5 74 c 128,-1,52
 442 92 442 92 471 126 c 1,53,-1
 509 86 l 1,54,4
 476 47 476 47 427.5 24 c 128,-1,5
EndSplineSet
Substitution2: "<3,3> Small Caps in Latin lookup 11 subtable" uni1E09.sc
EndChar

StartChar: uni1E1C
Encoding: 7708 7708 443
Width: 650
Flags: W
LayerCount: 2
Fore
SplineSet
253 801.5 m 128,-1,1
 218 836 218 836 216 890 c 1,2,-1
 265 890 l 1,3,4
 267 858 267 858 287.5 836.5 c 128,-1,5
 308 815 308 815 339 815 c 256,6,7
 370 815 370 815 390.5 836.5 c 128,-1,8
 411 858 411 858 413 890 c 1,9,-1
 462 890 l 1,10,11
 461 836 461 836 426 801.5 c 128,-1,12
 391 767 391 767 339 767 c 0,13,0
 288 767 288 767 253 801.5 c 128,-1,1
385 0 m 1,14,-1
 368 -53 l 1,15,16
 408 -57 408 -57 428.5 -79 c 128,-1,17
 449 -101 449 -101 449 -130 c 0,18,19
 449 -168 449 -168 420.5 -192 c 128,-1,20
 392 -216 392 -216 346 -216 c 0,21,22
 325 -216 325 -216 302 -210 c 128,-1,23
 279 -204 279 -204 261 -194 c 1,24,-1
 277 -151 l 1,25,26
 290 -158 290 -158 307 -162.5 c 128,-1,27
 324 -167 324 -167 339 -167 c 0,28,29
 365 -167 365 -167 379.5 -154 c 128,-1,30
 394 -141 394 -141 394 -124 c 0,31,32
 394 -108 394 -108 379.5 -96.5 c 128,-1,33
 365 -85 365 -85 340 -85 c 2,34,-1
 310 -85 l 1,35,-1
 336 0 l 1,36,-1
 110 0 l 1,37,-1
 110 699 l 1,38,-1
 578 699 l 1,39,-1
 578 637 l 1,40,-1
 179 637 l 1,41,-1
 179 387 l 1,42,-1
 536 387 l 1,43,-1
 536 325 l 1,44,-1
 179 325 l 1,45,-1
 179 62 l 1,46,-1
 591 62 l 1,47,-1
 591 0 l 1,48,-1
 385 0 l 1,14,-1
EndSplineSet
EndChar

StartChar: uni1E1D
Encoding: 7709 7709 444
Width: 589
Flags: W
LayerCount: 2
Fore
SplineSet
206 672.5 m 128,-1,1
 171 707 171 707 169 761 c 1,2,-1
 218 761 l 1,3,4
 220 729 220 729 240.5 707.5 c 128,-1,5
 261 686 261 686 292 686 c 256,6,7
 323 686 323 686 343.5 707.5 c 128,-1,8
 364 729 364 729 366 761 c 1,9,-1
 415 761 l 1,10,11
 414 707 414 707 379 672.5 c 128,-1,12
 344 638 344 638 292 638 c 0,13,0
 241 638 241 638 206 672.5 c 128,-1,1
488 448.5 m 128,-1,15
 552 371 552 371 547 240 c 1,16,-1
 110 240 l 1,17,18
 117 156 117 156 172 104.5 c 128,-1,19
 227 53 227 53 308 53 c 0,20,21
 358 53 358 53 401 71 c 128,-1,22
 444 89 444 89 475 122 c 1,23,-1
 513 84 l 1,24,25
 479 47 479 47 432 25 c 128,-1,26
 385 3 385 3 329 -1 c 1,27,-1
 312 -53 l 1,28,29
 352 -57 352 -57 372.5 -79 c 128,-1,30
 393 -101 393 -101 393 -130 c 0,31,32
 393 -168 393 -168 364.5 -192 c 128,-1,33
 336 -216 336 -216 290 -216 c 0,34,35
 269 -216 269 -216 246 -210 c 128,-1,36
 223 -204 223 -204 205 -194 c 1,37,-1
 221 -151 l 1,38,39
 234 -158 234 -158 251 -162.5 c 128,-1,40
 268 -167 268 -167 283 -167 c 0,41,42
 309 -167 309 -167 323.5 -154 c 128,-1,43
 338 -141 338 -141 338 -124 c 0,44,45
 338 -108 338 -108 323.5 -96.5 c 128,-1,46
 309 -85 309 -85 284 -85 c 2,47,-1
 254 -85 l 1,48,-1
 280 -1 l 1,49,50
 211 4 211 4 157 39 c 128,-1,51
 103 74 103 74 73 131.5 c 128,-1,52
 43 189 43 189 43 262 c 0,53,54
 43 338 43 338 76.5 398.5 c 128,-1,55
 110 459 110 459 169 492.5 c 128,-1,56
 228 526 228 526 302 526 c 0,57,14
 424 526 424 526 488 448.5 c 128,-1,15
487 292 m 1,58,59
 482 374 482 374 432.5 422.5 c 128,-1,60
 383 471 383 471 303 471 c 0,61,62
 224 471 224 471 171 422 c 128,-1,63
 118 373 118 373 110 292 c 1,64,-1
 487 292 l 1,58,59
EndSplineSet
Substitution2: "<3,3> Small Caps in Latin lookup 11 subtable" uni1E1D.sc
EndChar

StartChar: uni1E9E
Encoding: 7838 7838 506
Width: 674
Flags: W
LayerCount: 2
Fore
SplineSet
577.5 332 m 128,-1,1
 628 280 628 280 628 201 c 0,2,3
 628 108 628 108 563.5 54 c 128,-1,4
 499 0 499 0 388 0 c 2,5,-1
 305 0 l 1,6,-1
 305 62 l 1,7,-1
 388 62 l 2,8,9
 466 62 466 62 512 99.5 c 128,-1,10
 558 137 558 137 558 201 c 0,11,12
 558 264 558 264 512.5 300 c 128,-1,13
 467 336 467 336 384 336 c 2,14,-1
 359 336 l 1,15,-1
 359 398 l 1,16,-1
 526 599 l 1,17,18
 459 640 459 640 366 640 c 0,19,20
 270 640 270 640 214.5 588 c 128,-1,21
 159 536 159 536 159 441 c 2,22,-1
 159 0 l 1,23,-1
 90 0 l 1,24,-1
 90 441 l 2,25,26
 90 565 90 565 163.5 633.5 c 128,-1,27
 237 702 237 702 365 702 c 0,28,29
 491 702 491 702 584 633 c 1,30,-1
 584 574 l 1,31,-1
 434 395 l 1,32,0
 527 384 527 384 577.5 332 c 128,-1,1
EndSplineSet
EndChar

StartChar: figuredash
Encoding: 8210 8210 603
Width: 617
Flags: W
LayerCount: 2
Fore
SplineSet
0 326 m 1,0,-1
 617 326 l 1,1,-1
 617 277 l 1,2,-1
 0 277 l 1,3,-1
 0 326 l 1,0,-1
EndSplineSet
EndChar

StartChar: endash
Encoding: 8211 8211 604
Width: 403
Flags: W
LayerCount: 2
Fore
SplineSet
0 326 m 1,0,-1
 403 326 l 1,1,-1
 403 277 l 1,2,-1
 0 277 l 1,3,-1
 0 326 l 1,0,-1
EndSplineSet
EndChar

StartChar: emdash
Encoding: 8212 8212 605
Width: 726
Flags: W
LayerCount: 2
Fore
SplineSet
0 326 m 1,0,-1
 726 326 l 1,1,-1
 726 277 l 1,2,-1
 0 277 l 1,3,-1
 0 326 l 1,0,-1
EndSplineSet
EndChar

StartChar: quoteleft
Encoding: 8216 8216 607
Width: 192
Flags: W
LayerCount: 2
Fore
SplineSet
121.5 618 m 128,-1,1
 128 607 128 607 128 595 c 0,2,3
 128 576 128 576 115.5 563 c 128,-1,4
 103 550 103 550 84 550 c 0,5,6
 66 550 66 550 53.5 562.5 c 128,-1,7
 41 575 41 575 41 595 c 0,8,9
 41 609 41 609 52 633 c 2,10,-1
 102 747 l 1,11,-1
 142 747 l 1,12,-1
 103 634 l 1,13,0
 115 629 115 629 121.5 618 c 128,-1,1
EndSplineSet
Substitution2: "<3,3> Small Caps in Latin lookup 11 subtable" quoteleft.sc
EndChar

StartChar: quoteright
Encoding: 8217 8217 608
Width: 192
Flags: W
LayerCount: 2
Fore
SplineSet
128.5 729.5 m 128,-1,1
 141 717 141 717 141 697 c 0,2,3
 141 683 141 683 130 659 c 2,4,-1
 80 545 l 1,5,-1
 40 545 l 1,6,-1
 79 658 l 1,7,8
 67 663 67 663 60.5 674 c 128,-1,9
 54 685 54 685 54 697 c 0,10,11
 54 716 54 716 66.5 729 c 128,-1,12
 79 742 79 742 98 742 c 0,13,0
 116 742 116 742 128.5 729.5 c 128,-1,1
EndSplineSet
Substitution2: "<3,3> Small Caps in Latin lookup 11 subtable" quoteright.sc
EndChar

StartChar: quotesinglbase
Encoding: 8218 8218 609
Width: 192
Flags: W
LayerCount: 2
Fore
SplineSet
128.5 69.5 m 128,-1,1
 141 57 141 57 141 37 c 0,2,3
 141 23 141 23 130 -1 c 2,4,-1
 80 -115 l 1,5,-1
 40 -115 l 1,6,-1
 79 -2 l 1,7,8
 67 3 67 3 60.5 14 c 128,-1,9
 54 25 54 25 54 37 c 0,10,11
 54 56 54 56 66.5 69 c 128,-1,12
 79 82 79 82 98 82 c 0,13,0
 116 82 116 82 128.5 69.5 c 128,-1,1
EndSplineSet
EndChar

StartChar: dagger
Encoding: 8224 8224 613
Width: 508
Flags: W
LayerCount: 2
Fore
SplineSet
221 699 m 1,0,-1
 286 699 l 1,1,-1
 286 474 l 1,2,-1
 496 474 l 1,3,-1
 496 411 l 1,4,-1
 286 411 l 1,5,-1
 286 -192 l 1,6,-1
 221 -192 l 1,7,-1
 221 411 l 1,8,-1
 13 411 l 1,9,-1
 13 474 l 1,10,-1
 221 474 l 1,11,-1
 221 699 l 1,0,-1
EndSplineSet
EndChar

StartChar: daggerdbl
Encoding: 8225 8225 614
Width: 508
Flags: W
LayerCount: 2
Fore
SplineSet
496 411 m 1,0,-1
 286 411 l 1,1,-1
 286 125 l 1,2,-1
 496 125 l 1,3,-1
 496 63 l 1,4,-1
 286 63 l 1,5,-1
 286 -192 l 1,6,-1
 221 -192 l 1,7,-1
 221 63 l 1,8,-1
 13 63 l 1,9,-1
 13 125 l 1,10,-1
 221 125 l 1,11,-1
 221 411 l 1,12,-1
 13 411 l 1,13,-1
 13 474 l 1,14,-1
 221 474 l 1,15,-1
 221 699 l 1,16,-1
 286 699 l 1,17,-1
 286 474 l 1,18,-1
 496 474 l 1,19,-1
 496 411 l 1,0,-1
EndSplineSet
EndChar

StartChar: bullet
Encoding: 8226 8226 615
Width: 239
Flags: W
LayerCount: 2
Fore
SplineSet
167 316.5 m 128,-1,1
 186 297 186 297 186 268 c 256,2,3
 186 239 186 239 166.5 219.5 c 128,-1,4
 147 200 147 200 119 200 c 256,5,6
 91 200 91 200 72 219.5 c 128,-1,7
 53 239 53 239 53 268 c 256,8,9
 53 297 53 297 72 316.5 c 128,-1,10
 91 336 91 336 119 336 c 0,11,0
 148 336 148 336 167 316.5 c 128,-1,1
EndSplineSet
EndChar

StartChar: ellipsis
Encoding: 8230 8230 616
Width: 549
Flags: W
LayerCount: 2
Fore
SplineSet
127 68.5 m 128,-1,1
 140 56 140 56 140 37 c 256,2,3
 140 18 140 18 127 5 c 128,-1,4
 114 -8 114 -8 96 -8 c 0,5,6
 77 -8 77 -8 65 5 c 128,-1,7
 53 18 53 18 53 37 c 256,8,9
 53 56 53 56 65 68.5 c 128,-1,10
 77 81 77 81 96 81 c 0,11,0
 114 81 114 81 127 68.5 c 128,-1,1
306 68.5 m 128,-1,13
 319 56 319 56 319 37 c 256,14,15
 319 18 319 18 306 5 c 128,-1,16
 293 -8 293 -8 275 -8 c 0,17,18
 256 -8 256 -8 244 5 c 128,-1,19
 232 18 232 18 232 37 c 256,20,21
 232 56 232 56 244 68.5 c 128,-1,22
 256 81 256 81 275 81 c 0,23,12
 293 81 293 81 306 68.5 c 128,-1,13
485 68.5 m 128,-1,25
 498 56 498 56 498 37 c 256,26,27
 498 18 498 18 485 5 c 128,-1,28
 472 -8 472 -8 454 -8 c 0,29,30
 435 -8 435 -8 423 5 c 128,-1,31
 411 18 411 18 411 37 c 256,32,33
 411 56 411 56 423 68.5 c 128,-1,34
 435 81 435 81 454 81 c 0,35,24
 472 81 472 81 485 68.5 c 128,-1,25
EndSplineSet
EndChar

StartChar: minute
Encoding: 8242 8242 618
Width: 162
Flags: W
LayerCount: 2
Fore
SplineSet
53 700 m 1,0,-1
 117 700 l 1,1,-1
 83 460 l 1,2,-1
 36 460 l 1,3,-1
 53 700 l 1,0,-1
EndSplineSet
EndChar

StartChar: guilsinglleft
Encoding: 8249 8249 620
Width: 272
Flags: W
LayerCount: 2
Fore
SplineSet
153 418 m 1,0,-1
 213 418 l 1,1,-1
 106 253 l 1,2,-1
 213 90 l 1,3,-1
 153 90 l 1,4,-1
 41 253 l 1,5,-1
 153 418 l 1,0,-1
EndSplineSet
Substitution2: "<3,3> Small Caps in Latin lookup 11 subtable" guilsinglleft.sc
Substitution2: "'rtla' Right to Left Alternates in Latin lookup 0 subtable" guilsinglright
EndChar

StartChar: guilsinglright
Encoding: 8250 8250 621
Width: 272
Flags: W
LayerCount: 2
Fore
SplineSet
119 90 m 1,0,-1
 59 90 l 1,1,-1
 166 255 l 1,2,-1
 59 418 l 1,3,-1
 119 418 l 1,4,-1
 231 255 l 1,5,-1
 119 90 l 1,0,-1
EndSplineSet
Substitution2: "<3,3> Small Caps in Latin lookup 11 subtable" guilsinglright.sc
Substitution2: "'rtla' Right to Left Alternates in Latin lookup 0 subtable" guilsinglleft
EndChar

StartChar: fraction
Encoding: 8260 8260 622
Width: 50
Flags: W
LayerCount: 2
Fore
SplineSet
253 700 m 1,0,-1
 311 700 l 1,1,-1
 -215 0 l 1,2,-1
 -274 0 l 1,3,-1
 253 700 l 1,0,-1
EndSplineSet
EndChar

StartChar: colonmonetary
Encoding: 8353 8353 640
Width: 701
Flags: W
LayerCount: 2
Fore
SplineSet
489 5 m 1,1,-1
 469 -130 l 1,2,-1
 415 -130 l 1,3,-1
 433 -5 l 1,4,5
 424 -6 424 -6 404 -6 c 0,6,7
 381 -6 381 -6 358 -3 c 1,8,-1
 340 -130 l 1,9,-1
 286 -130 l 1,10,-1
 306 7 l 1,11,12
 230 28 230 28 170 78 c 128,-1,13
 110 128 110 128 76 199 c 128,-1,14
 42 270 42 270 42 351 c 0,15,16
 42 433 42 433 77.5 504.5 c 128,-1,17
 113 576 113 576 175.5 625.5 c 128,-1,18
 238 675 238 675 317 694 c 1,19,-1
 336 818 l 1,20,-1
 390 818 l 1,21,-1
 372 704 l 1,22,-1
 406 705 l 2,23,24
 419 705 419 705 447 703 c 1,25,-1
 465 818 l 1,26,-1
 519 818 l 1,27,-1
 499 693 l 1,28,29
 590 669 590 669 659 605 c 1,30,-1
 618 557 l 1,31,32
 576 598 576 598 521 621 c 128,-1,33
 466 644 466 644 407 644 c 0,34,35
 326 644 326 644 258.5 605 c 128,-1,36
 191 566 191 566 151.5 498.5 c 128,-1,37
 112 431 112 431 112 351 c 256,38,39
 112 271 112 271 151.5 204 c 128,-1,40
 191 137 191 137 258.5 97.5 c 128,-1,41
 326 58 326 58 407 58 c 0,42,43
 465 58 465 58 520 80.5 c 128,-1,44
 575 103 575 103 618 143 c 1,45,-1
 660 98 l 1,46,0
 585 29 585 29 489 5 c 1,1,-1
EndSplineSet
EndChar

StartChar: franc
Encoding: 8355 8355 641
Width: 559
Flags: W
LayerCount: 2
Fore
SplineSet
547 637 m 1,0,-1
 178 637 l 1,1,-1
 178 368 l 1,2,-1
 508 368 l 1,3,-1
 508 306 l 1,4,-1
 178 306 l 1,5,-1
 178 180 l 1,6,-1
 409 180 l 1,7,-1
 409 139 l 1,8,-1
 178 139 l 1,9,-1
 178 0 l 1,10,-1
 109 0 l 1,11,-1
 109 139 l 1,12,-1
 24 139 l 1,13,-1
 24 180 l 1,14,-1
 109 180 l 1,15,-1
 109 700 l 1,16,-1
 548 700 l 1,17,-1
 547 637 l 1,0,-1
EndSplineSet
EndChar

StartChar: lira
Encoding: 8356 8356 642
Width: 540
Flags: W
LayerCount: 2
Fore
SplineSet
500 57 m 1,0,-1
 500 0 l 1,1,-1
 45 0 l 1,2,-1
 45 57 l 1,3,-1
 133 57 l 1,4,-1
 133 264 l 1,5,-1
 45 264 l 1,6,-1
 45 305 l 1,7,-1
 133 305 l 1,8,-1
 133 380 l 1,9,-1
 45 380 l 1,10,-1
 45 421 l 1,11,-1
 133 421 l 1,12,-1
 133 493 l 2,13,14
 133 594 133 594 183 648 c 128,-1,15
 233 702 233 702 326 702 c 0,16,17
 380 702 380 702 428 677.5 c 128,-1,18
 476 653 476 653 512 608 c 1,19,-1
 481 556 l 1,20,21
 450 597 450 597 412 618.5 c 128,-1,22
 374 640 374 640 332 640 c 0,23,24
 269 640 269 640 235.5 602 c 128,-1,25
 202 564 202 564 202 492 c 2,26,-1
 202 421 l 1,27,-1
 386 421 l 1,28,-1
 386 380 l 1,29,-1
 202 380 l 1,30,-1
 202 305 l 1,31,-1
 386 305 l 1,32,-1
 386 264 l 1,33,-1
 202 264 l 1,34,-1
 202 57 l 1,35,-1
 500 57 l 1,0,-1
EndSplineSet
EndChar

StartChar: uni20A6
Encoding: 8358 8358 643
Width: 770
Flags: W
LayerCount: 2
Fore
SplineSet
745 380 m 1,0,-1
 660 380 l 1,1,-1
 660 305 l 1,2,-1
 745 305 l 1,3,-1
 745 264 l 1,4,-1
 660 264 l 1,5,-1
 660 0 l 1,6,-1
 587 0 l 1,7,-1
 405 264 l 1,8,-1
 179 264 l 1,9,-1
 179 0 l 1,10,-1
 110 0 l 1,11,-1
 110 264 l 1,12,-1
 19 264 l 1,13,-1
 19 305 l 1,14,-1
 110 305 l 1,15,-1
 110 380 l 1,16,-1
 19 380 l 1,17,-1
 19 421 l 1,18,-1
 110 421 l 1,19,-1
 110 700 l 1,20,-1
 183 700 l 1,21,-1
 375 421 l 1,22,-1
 592 421 l 1,23,-1
 592 700 l 1,24,-1
 660 700 l 1,25,-1
 660 421 l 1,26,-1
 745 421 l 1,27,-1
 745 380 l 1,0,-1
296 421 m 1,28,-1
 179 591 l 1,29,-1
 179 421 l 1,30,-1
 296 421 l 1,28,-1
179 305 m 1,31,-1
 376 305 l 1,32,-1
 325 380 l 1,33,-1
 179 380 l 1,34,-1
 179 305 l 1,31,-1
592 380 m 1,35,-1
 404 380 l 1,36,-1
 455 305 l 1,37,-1
 592 305 l 1,38,-1
 592 380 l 1,35,-1
484 264 m 1,39,-1
 592 107 l 1,40,-1
 592 264 l 1,41,-1
 484 264 l 1,39,-1
EndSplineSet
EndChar

StartChar: peseta
Encoding: 8359 8359 644
Width: 1431
Flags: W
LayerCount: 2
Fore
SplineSet
535.5 638.5 m 128,-1,1
 607 577 607 577 607 467 c 0,2,3
 607 352 607 352 536 289 c 128,-1,4
 465 226 465 226 335 226 c 2,5,-1
 179 226 l 1,6,-1
 179 0 l 1,7,-1
 110 0 l 1,8,-1
 110 700 l 1,9,-1
 335 700 l 2,10,0
 464 700 464 700 535.5 638.5 c 128,-1,1
956 87 m 1,12,-1
 976 36 l 1,13,14
 922 -1 922 -1 860 -3 c 0,15,16
 800 -3 800 -3 765 34 c 128,-1,17
 730 71 730 71 730 145 c 2,18,-1
 730 457 l 1,19,-1
 655 457 l 1,20,-1
 655 510 l 1,21,-1
 730 510 l 1,22,-1
 730 644 l 1,23,-1
 797 644 l 1,24,-1
 797 510 l 1,25,-1
 962 510 l 1,26,-1
 962 457 l 1,27,-1
 797 457 l 1,28,-1
 797 156 l 2,29,30
 797 59 797 59 869 59 c 0,31,11
 909 59 909 59 956 87 c 1,12,-1
487 333.5 m 128,-1,33
 541 379 541 379 541 465 c 0,34,35
 541 549 541 549 487 593 c 128,-1,36
 433 637 433 637 333 637 c 2,37,-1
 179 637 l 1,38,-1
 179 288 l 1,39,-1
 333 288 l 2,40,32
 433 288 433 288 487 333.5 c 128,-1,33
1116.5 349 m 128,-1,42
 1133 332 1133 332 1157.5 321.5 c 128,-1,43
 1182 311 1182 311 1226 298 c 0,44,45
 1280 282 1280 282 1314 266.5 c 128,-1,46
 1348 251 1348 251 1372 221.5 c 128,-1,47
 1396 192 1396 192 1396 144 c 0,48,49
 1396 73 1396 73 1342 35.5 c 128,-1,50
 1288 -2 1288 -2 1207 -2 c 0,51,52
 1150 -2 1150 -2 1097 17 c 128,-1,53
 1044 36 1044 36 1008 71 c 1,54,-1
 1035 119 l 1,55,56
 1069 88 1069 88 1115.5 70 c 128,-1,57
 1162 52 1162 52 1210 52 c 0,58,59
 1263 52 1263 52 1296.5 74 c 128,-1,60
 1330 96 1330 96 1330 138 c 0,61,62
 1330 167 1330 167 1313 185.5 c 128,-1,63
 1296 204 1296 204 1270.5 214.5 c 128,-1,64
 1245 225 1245 225 1200 239 c 0,65,66
 1147 255 1147 255 1114 270 c 128,-1,67
 1081 285 1081 285 1058 313.5 c 128,-1,68
 1035 342 1035 342 1035 388 c 0,69,70
 1035 457 1035 457 1086.5 492 c 128,-1,71
 1138 527 1138 527 1215 527 c 0,72,73
 1260 527 1260 527 1302 515 c 128,-1,74
 1344 503 1344 503 1377 482 c 1,75,-1
 1351 431 l 1,76,77
 1321 450 1321 450 1284 460.5 c 128,-1,78
 1247 471 1247 471 1211 471 c 0,79,80
 1161 471 1161 471 1130.5 451.5 c 128,-1,81
 1100 432 1100 432 1100 393 c 0,82,41
 1100 366 1100 366 1116.5 349 c 128,-1,42
EndSplineSet
EndChar

StartChar: uni20A9
Encoding: 8361 8361 645
Width: 927
Flags: W
LayerCount: 2
Fore
SplineSet
917 380 m 1,0,-1
 820 380 l 1,1,-1
 798 305 l 1,2,-1
 907 305 l 1,3,-1
 907 264 l 1,4,-1
 786 264 l 1,5,-1
 708 0 l 1,6,-1
 637 0 l 1,7,-1
 562 264 l 1,8,-1
 366 264 l 1,9,-1
 291 0 l 1,10,-1
 220 0 l 1,11,-1
 142 264 l 1,12,-1
 20 264 l 1,13,-1
 20 305 l 1,14,-1
 130 305 l 1,15,-1
 108 380 l 1,16,-1
 10 380 l 1,17,-1
 10 421 l 1,18,-1
 96 421 l 1,19,-1
 14 700 l 1,20,-1
 88 700 l 1,21,-1
 164 421 l 1,22,-1
 353 421 l 1,23,-1
 431 700 l 1,24,-1
 500 700 l 1,25,-1
 578 421 l 1,26,-1
 767 421 l 1,27,-1
 843 700 l 1,28,-1
 914 700 l 1,29,-1
 832 421 l 1,30,-1
 917 421 l 1,31,-1
 917 380 l 1,0,-1
465 609 m 1,32,-1
 411 421 l 1,33,-1
 518 421 l 1,34,-1
 465 609 l 1,32,-1
175 380 m 1,35,-1
 196 305 l 1,36,-1
 321 305 l 1,37,-1
 342 380 l 1,38,-1
 175 380 l 1,35,-1
378 305 m 1,39,-1
 551 305 l 1,40,-1
 530 380 l 1,41,-1
 400 380 l 1,42,-1
 378 305 l 1,39,-1
736 305 m 1,43,-1
 756 380 l 1,44,-1
 589 380 l 1,45,-1
 610 305 l 1,46,-1
 736 305 l 1,43,-1
258 78 m 1,47,-1
 310 264 l 1,48,-1
 207 264 l 1,49,-1
 258 78 l 1,47,-1
674 78 m 1,50,-1
 725 264 l 1,51,-1
 622 264 l 1,52,-1
 674 78 l 1,50,-1
EndSplineSet
EndChar

StartChar: dong
Encoding: 8363 8363 646
Width: 675
Flags: W
LayerCount: 2
Fore
SplineSet
648 591 m 1,0,-1
 575 591 l 1,1,-1
 575 0 l 1,2,-1
 508 0 l 1,3,-1
 508 120 l 1,4,5
 478 61 478 61 424 28.5 c 128,-1,6
 370 -4 370 -4 298 -4 c 0,7,8
 224 -4 224 -4 166 30 c 128,-1,9
 108 64 108 64 76 125 c 128,-1,10
 44 186 44 186 44 263 c 256,11,12
 44 340 44 340 76.5 400 c 128,-1,13
 109 460 109 460 166.5 494 c 128,-1,14
 224 528 224 528 297 528 c 0,15,16
 369 528 369 528 423.5 495 c 128,-1,17
 478 462 478 462 508 403 c 1,18,-1
 508 591 l 1,19,-1
 357 591 l 1,20,-1
 357 632 l 1,21,-1
 508 632 l 1,22,-1
 508 742 l 1,23,-1
 575 742 l 1,24,-1
 575 632 l 1,25,-1
 648 632 l 1,26,-1
 648 591 l 1,0,-1
412 80.5 m 128,-1,28
 457 107 457 107 482.5 154 c 128,-1,29
 508 201 508 201 508 261 c 256,30,31
 508 321 508 321 482.5 368.5 c 128,-1,32
 457 416 457 416 412 443 c 128,-1,33
 367 470 367 470 310 470 c 256,34,35
 253 470 253 470 208 443 c 128,-1,36
 163 416 163 416 137 368.5 c 128,-1,37
 111 321 111 321 111 261 c 256,38,39
 111 201 111 201 136.5 154 c 128,-1,40
 162 107 162 107 207.5 80.5 c 128,-1,41
 253 54 253 54 310 54 c 256,42,27
 367 54 367 54 412 80.5 c 128,-1,28
119 -110 m 1,43,-1
 119 -70 l 1,44,-1
 533 -70 l 1,45,-1
 533 -110 l 1,46,-1
 119 -110 l 1,43,-1
EndSplineSet
EndChar

StartChar: Euro
Encoding: 8364 8364 647
Width: 794
Flags: W
LayerCount: 2
Fore
SplineSet
752 100 m 1,0,1
 700 52 700 52 633 24.5 c 128,-1,2
 566 -3 566 -3 496 -3 c 0,3,4
 412 -3 412 -3 339.5 31.5 c 128,-1,5
 267 66 267 66 216 126.5 c 128,-1,6
 165 187 165 187 146 264 c 1,7,-1
 45 264 l 1,8,-1
 45 305 l 1,9,-1
 138 305 l 1,10,11
 135 328 135 328 135 351 c 0,12,13
 135 370 135 370 136 380 c 1,14,-1
 45 380 l 1,15,-1
 45 421 l 1,16,-1
 142 421 l 1,17,18
 158 501 158 501 209 565 c 128,-1,19
 260 629 260 629 335.5 665 c 128,-1,20
 411 701 411 701 499 701 c 0,21,22
 569 701 569 701 635.5 674.5 c 128,-1,23
 702 648 702 648 751 602 c 1,24,-1
 711 554 l 1,25,26
 669 595 669 595 613.5 617.5 c 128,-1,27
 558 640 558 640 499 640 c 0,28,29
 431 640 431 640 371 612 c 128,-1,30
 311 584 311 584 269.5 534 c 128,-1,31
 228 484 228 484 213 421 c 1,32,-1
 506 421 l 1,33,-1
 506 380 l 1,34,-1
 205 380 l 1,35,36
 204 370 204 370 204 351 c 0,37,38
 204 325 204 325 208 305 c 1,39,-1
 506 305 l 1,40,-1
 506 264 l 1,41,-1
 217 264 l 1,42,43
 236 205 236 205 277.5 159 c 128,-1,44
 319 113 319 113 376.5 87 c 128,-1,45
 434 61 434 61 499 61 c 0,46,47
 557 61 557 61 612.5 83 c 128,-1,48
 668 105 668 105 711 145 c 1,49,-1
 752 100 l 1,0,1
EndSplineSet
EndChar

StartChar: uni20AD
Encoding: 8365 8365 648
Width: 641
Flags: W
LayerCount: 2
Fore
SplineSet
618 0 m 1,0,-1
 530 0 l 1,1,-1
 150 330 l 1,2,-1
 150 0 l 1,3,-1
 81 0 l 1,4,-1
 81 331 l 1,5,-1
 -5 331 l 1,6,-1
 -5 371 l 1,7,-1
 81 371 l 1,8,-1
 81 700 l 1,9,-1
 150 700 l 1,10,-1
 150 371 l 1,11,-1
 152 371 l 1,12,-1
 512 700 l 1,13,-1
 598 700 l 1,14,-1
 234 371 l 1,15,-1
 519 371 l 1,16,-1
 519 331 l 1,17,-1
 233 331 l 1,18,-1
 618 0 l 1,0,-1
EndSplineSet
EndChar

StartChar: uni20B1
Encoding: 8369 8369 649
Width: 752
Flags: W
LayerCount: 2
Fore
SplineSet
728 501 m 1,0,-1
 646 501 l 1,1,2
 648 479 648 479 648 467 c 0,3,4
 648 446 648 446 645 426 c 1,5,-1
 728 426 l 1,6,-1
 728 386 l 1,7,-1
 637 386 l 1,8,9
 614 308 614 308 547.5 267 c 128,-1,10
 481 226 481 226 376 226 c 2,11,-1
 187 226 l 1,12,-1
 187 0 l 1,13,-1
 118 0 l 1,14,-1
 118 386 l 1,15,-1
 33 386 l 1,16,-1
 33 426 l 1,17,-1
 118 426 l 1,18,-1
 118 501 l 1,19,-1
 33 501 l 1,20,-1
 33 542 l 1,21,-1
 118 542 l 1,22,-1
 118 700 l 1,23,-1
 376 700 l 2,24,25
 481 700 481 700 548.5 659 c 128,-1,26
 616 618 616 618 638 542 c 1,27,-1
 728 542 l 1,28,-1
 728 501 l 1,0,-1
187 542 m 1,29,-1
 567 542 l 1,30,31
 546 589 546 589 497 613 c 128,-1,32
 448 637 448 637 374 637 c 2,33,-1
 187 637 l 1,34,-1
 187 542 l 1,29,-1
579 501 m 1,36,-1
 187 501 l 1,37,-1
 187 426 l 1,38,-1
 579 426 l 1,39,40
 582 444 582 444 582 465 c 0,41,35
 582 485 582 485 579 501 c 1,36,-1
497 313 m 128,-1,43
 546 338 546 338 567 386 c 1,44,-1
 187 386 l 1,45,-1
 187 288 l 1,46,-1
 374 288 l 2,47,42
 448 288 448 288 497 313 c 128,-1,43
EndSplineSet
EndChar

StartChar: uni20B2
Encoding: 8370 8370 650
Width: 727
Flags: W
LayerCount: 2
Fore
SplineSet
601 342 m 1,0,-1
 662 342 l 1,1,-1
 662 86 l 1,2,3
 616 47 616 47 555 23 c 128,-1,4
 494 -1 494 -1 430 -5 c 1,5,-1
 430 -130 l 1,6,-1
 376 -130 l 1,7,-1
 376 -5 l 1,8,9
 283 2 283 2 206.5 51.5 c 128,-1,10
 130 101 130 101 86 180 c 128,-1,11
 42 259 42 259 42 351 c 0,12,13
 42 442 42 442 86 520 c 128,-1,14
 130 598 130 598 206.5 647 c 128,-1,15
 283 696 283 696 376 704 c 1,16,-1
 376 818 l 1,17,-1
 430 818 l 1,18,-1
 430 704 l 1,19,20
 495 701 495 701 556 676.5 c 128,-1,21
 617 652 617 652 664 610 c 1,22,-1
 624 561 l 1,23,24
 581 601 581 601 525 622.5 c 128,-1,25
 469 644 469 644 409 644 c 0,26,27
 328 644 328 644 260 604.5 c 128,-1,28
 192 565 192 565 152 498 c 128,-1,29
 112 431 112 431 112 351 c 0,30,31
 112 270 112 270 152 202.5 c 128,-1,32
 192 135 192 135 260.5 95.5 c 128,-1,33
 329 56 329 56 410 56 c 0,34,35
 460 56 460 56 509.5 72.5 c 128,-1,36
 559 89 559 89 601 119 c 1,37,-1
 601 342 l 1,0,-1
EndSplineSet
EndChar

StartChar: uni20B5
Encoding: 8373 8373 651
Width: 701
Flags: W
LayerCount: 2
Fore
SplineSet
551 26 m 128,-1,1
 490 -1 490 -1 425 -5 c 1,2,-1
 425 -130 l 1,3,-1
 371 -130 l 1,4,-1
 371 -5 l 1,5,6
 280 3 280 3 204.5 52.5 c 128,-1,7
 129 102 129 102 85.5 180.5 c 128,-1,8
 42 259 42 259 42 351 c 0,9,10
 42 442 42 442 85.5 519.5 c 128,-1,11
 129 597 129 597 204.5 646 c 128,-1,12
 280 695 280 695 371 703 c 1,13,-1
 371 818 l 1,14,-1
 425 818 l 1,15,-1
 425 704 l 1,16,17
 490 701 490 701 551 675 c 128,-1,18
 612 649 612 649 659 605 c 1,19,-1
 618 557 l 1,20,21
 576 598 576 598 521 621 c 128,-1,22
 466 644 466 644 407 644 c 0,23,24
 326 644 326 644 258.5 605 c 128,-1,25
 191 566 191 566 151.5 498.5 c 128,-1,26
 112 431 112 431 112 351 c 256,27,28
 112 271 112 271 151.5 204 c 128,-1,29
 191 137 191 137 258.5 97.5 c 128,-1,30
 326 58 326 58 407 58 c 0,31,32
 465 58 465 58 520 80.5 c 128,-1,33
 575 103 575 103 618 143 c 1,34,-1
 660 98 l 1,35,0
 612 53 612 53 551 26 c 128,-1,1
EndSplineSet
EndChar

StartChar: uni20B9
Encoding: 8377 8377 652
Width: 608
Flags: W
LayerCount: 2
Fore
SplineSet
591 638 m 1,0,-1
 441 638 l 1,1,2
 509 584 509 584 515 484 c 1,3,-1
 591 484 l 1,4,-1
 591 443 l 1,5,-1
 514 443 l 1,6,7
 510 377 510 377 479 330 c 128,-1,8
 448 283 448 283 394 257 c 1,9,-1
 591 0 l 1,10,-1
 511 0 l 1,11,-1
 331 235 l 1,12,13
 290 226 290 226 241 226 c 2,14,-1
 35 226 l 1,15,-1
 35 288 l 1,16,-1
 241 288 l 2,17,18
 334 288 334 288 387.5 328 c 128,-1,19
 441 368 441 368 448 443 c 1,20,-1
 35 443 l 1,21,-1
 35 484 l 1,22,-1
 448 484 l 1,23,24
 442 559 442 559 388.5 598 c 128,-1,25
 335 637 335 637 241 637 c 2,26,-1
 35 637 l 1,27,-1
 35 700 l 1,28,-1
 591 700 l 1,29,-1
 591 638 l 1,0,-1
EndSplineSet
EndChar

StartChar: uni20BA
Encoding: 8378 8378 653
Width: 659
Flags: W
LayerCount: 2
Fore
SplineSet
634 350 m 1,0,1
 634 244 634 244 590 165 c 128,-1,2
 546 86 546 86 464 43 c 128,-1,3
 382 0 382 0 273 0 c 2,4,-1
 128 0 l 1,5,-1
 128 343 l 1,6,-1
 39 318 l 1,7,-1
 39 362 l 1,8,-1
 128 387 l 1,9,-1
 128 475 l 1,10,-1
 39 450 l 1,11,-1
 39 494 l 1,12,-1
 128 519 l 1,13,-1
 128 700 l 1,14,-1
 197 700 l 1,15,-1
 197 538 l 1,16,-1
 548 637 l 1,17,-1
 548 593 l 1,18,-1
 197 494 l 1,19,-1
 197 406 l 1,20,-1
 548 505 l 1,21,-1
 548 461 l 1,22,-1
 197 362 l 1,23,-1
 197 62 l 1,24,-1
 276 62 l 2,25,26
 363 62 363 62 428.5 97 c 128,-1,27
 494 132 494 132 529.5 196.5 c 128,-1,28
 565 261 565 261 565 349 c 1,29,-1
 634 350 l 1,0,1
EndSplineSet
EndChar

StartChar: uni20BC
Encoding: 8380 8380 654
Width: 730
Flags: W
LayerCount: 2
Fore
SplineSet
553.5 554 m 128,-1,1
 621 508 621 508 658 434 c 128,-1,2
 695 360 695 360 695 269 c 2,3,-1
 695 0 l 1,4,-1
 625 0 l 1,5,-1
 625 269 l 2,6,7
 625 342 625 342 596.5 402.5 c 128,-1,8
 568 463 568 463 517 500.5 c 128,-1,9
 466 538 466 538 400 546 c 1,10,-1
 400 0 l 1,11,-1
 330 0 l 1,12,-1
 330 546 l 1,13,14
 264 538 264 538 213 500 c 128,-1,15
 162 462 162 462 133.5 402 c 128,-1,16
 105 342 105 342 105 269 c 2,17,-1
 105 0 l 1,18,-1
 35 0 l 1,19,-1
 35 269 l 2,20,21
 35 359 35 359 72.5 433.5 c 128,-1,22
 110 508 110 508 177 554 c 128,-1,23
 244 600 244 600 330 608 c 1,24,-1
 330 700 l 1,25,-1
 400 700 l 1,26,-1
 400 608 l 1,27,0
 486 600 486 600 553.5 554 c 128,-1,1
EndSplineSet
EndChar

StartChar: uni20BD
Encoding: 8381 8381 655
Width: 668
Flags: W
LayerCount: 2
Fore
SplineSet
179 238 m 1,0,-1
 179 163 l 1,1,-1
 440 163 l 1,2,-1
 440 122 l 1,3,-1
 179 122 l 1,4,-1
 179 0 l 1,5,-1
 110 0 l 1,6,-1
 110 122 l 1,7,-1
 25 122 l 1,8,-1
 25 163 l 1,9,-1
 110 163 l 1,10,-1
 110 700 l 1,11,-1
 368 700 l 2,12,13
 498 700 498 700 569 640.5 c 128,-1,14
 640 581 640 581 640 473 c 0,15,16
 640 361 640 361 569 299.5 c 128,-1,17
 498 238 498 238 368 238 c 2,18,-1
 179 238 l 1,0,-1
520 594.5 m 128,-1,20
 466 637 466 637 366 637 c 2,21,-1
 179 637 l 1,22,-1
 179 300 l 1,23,-1
 366 300 l 2,24,25
 466 300 466 300 520 344 c 128,-1,26
 574 388 574 388 574 471 c 0,27,19
 574 552 574 552 520 594.5 c 128,-1,20
EndSplineSet
EndChar

StartChar: uni2113
Encoding: 8467 8467 656
Width: 465
Flags: W
LayerCount: 2
Fore
SplineSet
227.5 658 m 128,-1,1
 269 703 269 703 324 703 c 0,2,3
 368 703 368 703 396.5 673.5 c 128,-1,4
 425 644 425 644 425 589 c 0,5,6
 425 504 425 504 357.5 408.5 c 128,-1,7
 290 313 290 313 172 218 c 1,8,9
 165 179 165 179 165 145 c 0,10,11
 165 98 165 98 183.5 74.5 c 128,-1,12
 202 51 202 51 242 51 c 0,13,14
 284 51 284 51 321.5 74.5 c 128,-1,15
 359 98 359 98 397 143 c 1,16,-1
 424 114 l 1,17,18
 338 -2 338 -2 229 -2 c 0,19,20
 166 -2 166 -2 139 35.5 c 128,-1,21
 112 73 112 73 112 144 c 0,22,23
 112 168 112 168 113 180 c 1,24,-1
 56 137 l 1,25,-1
 40 172 l 1,26,-1
 121 233 l 1,27,-1
 169 527 l 2,28,0
 186 613 186 613 227.5 658 c 128,-1,1
327 439.5 m 128,-1,30
 380 523 380 523 380 588 c 0,31,32
 380 623 380 623 364 641 c 128,-1,33
 348 659 348 659 323 659 c 0,34,35
 290 659 290 659 263 626.5 c 128,-1,36
 236 594 236 594 224 529 c 2,37,-1
 182 280 l 1,38,29
 274 356 274 356 327 439.5 c 128,-1,30
EndSplineSet
EndChar

StartChar: trademark
Encoding: 8482 8482 658
Width: 872
Flags: W
LayerCount: 2
Fore
SplineSet
-3 700 m 1,0,-1
 314 700 l 1,1,-1
 314 653 l 1,2,-1
 182 653 l 1,3,-1
 182 280 l 1,4,-1
 129 280 l 1,5,-1
 129 653 l 1,6,-1
 -3 653 l 1,7,-1
 -3 700 l 1,0,-1
382 700 m 1,8,-1
 447 700 l 1,9,-1
 597 395 l 1,10,-1
 745 700 l 1,11,-1
 811 700 l 1,12,-1
 811 280 l 1,13,-1
 762 280 l 1,14,-1
 762 630 l 1,15,-1
 613 324 l 1,16,-1
 580 324 l 1,17,-1
 431 630 l 1,18,-1
 431 280 l 1,19,-1
 382 280 l 1,20,-1
 382 700 l 1,8,-1
EndSplineSet
EndChar

StartChar: estimated
Encoding: 8494 8494 660
Width: 809
Flags: W
LayerCount: 2
Fore
SplineSet
192 308 m 2,1,-1
 192 144 l 2,2,3
 192 135 192 135 200 125 c 0,4,5
 239 83 239 83 292.5 59.5 c 128,-1,6
 346 36 346 36 406 36 c 0,7,8
 469 36 469 36 525.5 62.5 c 128,-1,9
 582 89 582 89 621 135 c 1,10,-1
 670 135 l 1,11,12
 624 81 624 81 554 49.5 c 128,-1,13
 484 18 484 18 405 18 c 0,14,15
 314 18 314 18 237 58.5 c 128,-1,16
 160 99 160 99 115 168 c 128,-1,17
 70 237 70 237 70 319 c 256,18,19
 70 401 70 401 115 470.5 c 128,-1,20
 160 540 160 540 237 580.5 c 128,-1,21
 314 621 314 621 405 621 c 256,22,23
 496 621 496 621 573 580.5 c 128,-1,24
 650 540 650 540 695 470.5 c 128,-1,25
 740 401 740 401 740 319 c 2,26,-1
 740 312 l 1,27,-1
 197 312 l 2,28,0
 192 312 192 312 192 308 c 2,1,-1
609 518 m 0,30,31
 569 558 569 558 516.5 580.5 c 128,-1,32
 464 603 464 603 406 603 c 0,33,34
 347 603 347 603 294 579.5 c 128,-1,35
 241 556 241 556 201 515 c 0,36,37
 192 506 192 506 192 495 c 2,38,-1
 192 333 l 2,39,40
 192 328 192 328 197 328 c 2,41,-1
 613 328 l 2,42,43
 618 328 618 328 618 333 c 2,44,-1
 618 498 l 2,45,29
 618 509 618 509 609 518 c 0,30,31
EndSplineSet
EndChar

StartChar: arrowleft
Encoding: 8592 8592 667
Width: 600
Flags: W
LayerCount: 2
Fore
SplineSet
519 299 m 1,0,-1
 519 247 l 1,1,-1
 202 247 l 1,2,-1
 312 81 l 1,3,-1
 247 81 l 1,4,-1
 115 272 l 1,5,-1
 247 465 l 1,6,-1
 312 465 l 1,7,-1
 203 299 l 1,8,-1
 519 299 l 1,0,-1
EndSplineSet
EndChar

StartChar: arrowup
Encoding: 8593 8593 668
Width: 600
Flags: W
LayerCount: 2
Fore
SplineSet
492 346 m 1,0,-1
 492 283 l 1,1,-1
 328 391 l 1,2,-1
 328 74 l 1,3,-1
 272 74 l 1,4,-1
 272 392 l 1,5,-1
 109 283 l 1,6,-1
 109 346 l 1,7,-1
 299 479 l 1,8,-1
 492 346 l 1,0,-1
EndSplineSet
EndChar

StartChar: arrowright
Encoding: 8594 8594 669
Width: 600
Flags: W
LayerCount: 2
Fore
SplineSet
353 465 m 1,0,-1
 485 274 l 1,1,-1
 353 81 l 1,2,-1
 288 81 l 1,3,-1
 397 247 l 1,4,-1
 81 247 l 1,5,-1
 81 299 l 1,6,-1
 398 299 l 1,7,-1
 288 465 l 1,8,-1
 353 465 l 1,0,-1
EndSplineSet
EndChar

StartChar: arrowdown
Encoding: 8595 8595 670
Width: 600
Flags: W
LayerCount: 2
Fore
SplineSet
351 154 m 1,0,-1
 514 263 l 1,1,-1
 514 200 l 1,2,-1
 324 67 l 1,3,-1
 131 200 l 1,4,-1
 131 263 l 1,5,-1
 295 155 l 1,6,-1
 295 472 l 1,7,-1
 351 472 l 1,8,-1
 351 154 l 1,0,-1
EndSplineSet
EndChar

StartChar: arrowboth
Encoding: 8596 8596 671
Width: 660
Flags: W
LayerCount: 2
Fore
SplineSet
478 465 m 1,0,-1
 610 272 l 1,1,-1
 478 81 l 1,2,-1
 413 81 l 1,3,-1
 524 247 l 1,4,-1
 137 247 l 1,5,-1
 247 81 l 1,6,-1
 182 81 l 1,7,-1
 50 272 l 1,8,-1
 182 465 l 1,9,-1
 247 465 l 1,10,-1
 138 299 l 1,11,-1
 523 299 l 1,12,-1
 413 465 l 1,13,-1
 478 465 l 1,0,-1
EndSplineSet
EndChar

StartChar: arrowupdn
Encoding: 8597 8597 672
Width: 600
Flags: W
LayerCount: 2
Fore
SplineSet
492 436 m 1,0,-1
 328 544 l 1,1,-1
 328 154 l 1,2,-1
 491 264 l 1,3,-1
 491 200 l 1,4,-1
 301 67 l 1,5,-1
 108 200 l 1,6,-1
 108 264 l 1,7,-1
 272 155 l 1,8,-1
 272 545 l 1,9,-1
 109 436 l 1,10,-1
 109 499 l 1,11,-1
 299 632 l 1,12,-1
 492 499 l 1,13,-1
 492 436 l 1,0,-1
EndSplineSet
EndChar

StartChar: uni2196
Encoding: 8598 8598 673
Width: 600
Flags: W
LayerCount: 2
Fore
SplineSet
475 158 m 1,0,-1
 435 119 l 1,1,-1
 210 343 l 1,2,-1
 172 151 l 1,3,-1
 127 196 l 1,4,-1
 168 424 l 1,5,-1
 398 467 l 1,6,-1
 443 422 l 1,7,-1
 251 382 l 1,8,-1
 475 158 l 1,0,-1
EndSplineSet
EndChar

StartChar: uni2197
Encoding: 8599 8599 674
Width: 600
Flags: W
LayerCount: 2
Fore
SplineSet
488 189 m 1,0,-1
 443 144 l 1,1,-1
 403 336 l 1,2,-1
 179 112 l 1,3,-1
 140 152 l 1,4,-1
 364 377 l 1,5,-1
 172 415 l 1,6,-1
 217 460 l 1,7,-1
 445 419 l 1,8,-1
 488 189 l 1,0,-1
EndSplineSet
EndChar

StartChar: uni2198
Encoding: 8600 8600 675
Width: 600
Flags: W
LayerCount: 2
Fore
SplineSet
442 413 m 1,0,-1
 487 368 l 1,1,-1
 446 140 l 1,2,-1
 216 97 l 1,3,-1
 171 142 l 1,4,-1
 363 182 l 1,5,-1
 139 406 l 1,6,-1
 179 445 l 1,7,-1
 404 221 l 1,8,-1
 442 413 l 1,0,-1
EndSplineSet
EndChar

StartChar: uni2199
Encoding: 8601 8601 676
Width: 600
Flags: W
LayerCount: 2
Fore
SplineSet
474 412 m 1,0,-1
 250 187 l 1,1,-1
 442 149 l 1,2,-1
 397 104 l 1,3,-1
 169 145 l 1,4,-1
 126 375 l 1,5,-1
 171 420 l 1,6,-1
 211 228 l 1,7,-1
 435 452 l 1,8,-1
 474 412 l 1,0,-1
EndSplineSet
EndChar

StartChar: partialdiff
Encoding: 8706 8706 677
Width: 598
Flags: W
LayerCount: 2
Fore
SplineSet
165.5 686.5 m 128,-1,1
 218 702 218 702 265 702 c 0,2,3
 351 702 351 702 414.5 656.5 c 128,-1,4
 478 611 478 611 512.5 528 c 128,-1,5
 547 445 547 445 547 336 c 0,6,7
 547 174 547 174 475.5 85.5 c 128,-1,8
 404 -3 404 -3 277 -3 c 0,9,10
 170 -3 170 -3 106.5 58.5 c 128,-1,11
 43 120 43 120 43 226 c 0,12,13
 43 327 43 327 103 386 c 128,-1,14
 163 445 163 445 265 445 c 0,15,16
 348 445 348 445 404 403.5 c 128,-1,17
 460 362 460 362 477 289 c 1,18,19
 479 309 479 309 479 348 c 0,20,21
 479 488 479 488 422 566 c 128,-1,22
 365 644 365 644 261 644 c 0,23,24
 219 644 219 644 175.5 630 c 128,-1,25
 132 616 132 616 96 591 c 1,26,-1
 68 644 l 1,27,0
 113 671 113 671 165.5 686.5 c 128,-1,1
153 346 m 128,-1,29
 108 302 108 302 108 227 c 0,30,31
 108 148 108 148 156 102.5 c 128,-1,32
 204 57 204 57 282 57 c 0,33,34
 341 57 341 57 381 82 c 128,-1,35
 421 107 421 107 440.5 145 c 128,-1,36
 460 183 460 183 460 221 c 0,37,38
 460 266 460 266 437.5 305 c 128,-1,39
 415 344 415 344 373 367 c 128,-1,40
 331 390 331 390 275 390 c 0,41,28
 198 390 198 390 153 346 c 128,-1,29
EndSplineSet
EndChar

StartChar: emptyset
Encoding: 8709 8709 678
Width: 498
Flags: W
LayerCount: 2
Fore
SplineSet
410 446 m 1,0,1
 453 392 453 392 453 323 c 0,2,3
 453 268 453 268 425.5 221.5 c 128,-1,4
 398 175 398 175 351.5 147.5 c 128,-1,5
 305 120 305 120 251 120 c 0,6,7
 213 120 213 120 178.5 133.5 c 128,-1,8
 144 147 144 147 116 172 c 1,9,-1
 40 101 l 1,10,-1
 14 129 l 1,11,-1
 91 200 l 1,12,13
 50 254 50 254 50 323 c 0,14,15
 50 377 50 377 77 423.5 c 128,-1,16
 104 470 104 470 150 497 c 128,-1,17
 196 524 196 524 251 524 c 0,18,19
 289 524 289 524 323.5 510 c 128,-1,20
 358 496 358 496 386 471 c 1,21,-1
 461 540 l 1,22,-1
 484 515 l 1,23,-1
 410 446 l 1,0,1
128 234 m 1,25,-1
 350 438 l 1,26,27
 307 474 307 474 251 474 c 0,28,29
 210 474 210 474 175 453.5 c 128,-1,30
 140 433 140 433 119.5 398.5 c 128,-1,31
 99 364 99 364 99 323 c 0,32,24
 99 274 99 274 128 234 c 1,25,-1
374 413 m 1,34,-1
 153 207 l 1,35,36
 195 171 195 171 251 171 c 0,37,38
 293 171 293 171 328 191.5 c 128,-1,39
 363 212 363 212 383.5 247 c 128,-1,40
 404 282 404 282 404 323 c 0,41,33
 404 372 404 372 374 413 c 1,34,-1
EndSplineSet
EndChar

StartChar: uni2206
Encoding: 8710 8710 679
Width: 669
Flags: W
LayerCount: 2
Fore
SplineSet
0 0 m 1,0,-1
 0 47 l 1,1,-1
 298 700 l 1,2,-1
 370 700 l 1,3,-1
 669 47 l 1,4,-1
 669 0 l 1,5,-1
 0 0 l 1,0,-1
77 59 m 1,6,-1
 591 59 l 1,7,-1
 332 626 l 1,8,-1
 77 59 l 1,6,-1
EndSplineSet
EndChar

StartChar: product
Encoding: 8719 8719 680
Width: 757
Flags: W
LayerCount: 2
Fore
SplineSet
110 742 m 1,0,-1
 647 742 l 1,1,-1
 647 -194 l 1,2,-1
 579 -194 l 1,3,-1
 579 684 l 1,4,-1
 178 684 l 1,5,-1
 178 -194 l 1,6,-1
 110 -194 l 1,7,-1
 110 742 l 1,0,-1
EndSplineSet
EndChar

StartChar: summation
Encoding: 8721 8721 681
Width: 607
Flags: W
LayerCount: 2
Fore
SplineSet
41 743 m 1,0,-1
 595 743 l 1,1,-1
 595 681 l 1,2,-1
 121 681 l 1,3,-1
 432 310 l 1,4,-1
 119 -76 l 1,5,-1
 605 -76 l 1,6,-1
 605 -138 l 1,7,-1
 36 -138 l 1,8,-1
 36 -82 l 1,9,-1
 355 310 l 1,10,-1
 41 685 l 1,11,-1
 41 743 l 1,0,-1
EndSplineSet
EndChar

StartChar: minus
Encoding: 8722 8722 682
Width: 489
Flags: W
LayerCount: 2
Fore
SplineSet
38 347 m 1,0,-1
 452 347 l 1,1,-1
 452 298 l 1,2,-1
 38 298 l 1,3,-1
 38 347 l 1,0,-1
EndSplineSet
EndChar

StartChar: uni2219
Encoding: 8729 8729 684
Width: 239
Flags: W
LayerCount: 2
Fore
SplineSet
167 316.5 m 128,-1,1
 186 297 186 297 186 268 c 256,2,3
 186 239 186 239 166.5 219.5 c 128,-1,4
 147 200 147 200 119 200 c 256,5,6
 91 200 91 200 72 219.5 c 128,-1,7
 53 239 53 239 53 268 c 256,8,9
 53 297 53 297 72 316.5 c 128,-1,10
 91 336 91 336 119 336 c 0,11,0
 148 336 148 336 167 316.5 c 128,-1,1
EndSplineSet
EndChar

StartChar: radical
Encoding: 8730 8730 685
Width: 674
Flags: W
LayerCount: 2
Fore
SplineSet
593 753 m 1,0,-1
 659 753 l 1,1,-1
 374 -150 l 1,2,-1
 302 -150 l 1,3,-1
 139 332 l 1,4,-1
 18 332 l 1,5,-1
 18 389 l 1,6,-1
 185 389 l 1,7,-1
 338 -76 l 1,8,-1
 593 753 l 1,0,-1
EndSplineSet
EndChar

StartChar: infinity
Encoding: 8734 8734 686
Width: 893
Flags: W
LayerCount: 2
Fore
SplineSet
759 468.5 m 128,-1,1
 801 444 801 444 825 400.5 c 128,-1,2
 849 357 849 357 849 304 c 256,3,4
 849 251 849 251 825 208 c 128,-1,5
 801 165 801 165 759 140.5 c 128,-1,6
 717 116 717 116 665 116 c 0,7,8
 609 116 609 116 569 135.5 c 128,-1,9
 529 155 529 155 502 185 c 128,-1,10
 475 215 475 215 447 260 c 1,11,12
 419 215 419 215 392 184.5 c 128,-1,13
 365 154 365 154 324.5 134.5 c 128,-1,14
 284 115 284 115 228 115 c 0,15,16
 176 115 176 115 134 139.5 c 128,-1,17
 92 164 92 164 68 207 c 128,-1,18
 44 250 44 250 44 303 c 256,19,20
 44 356 44 356 68 399.5 c 128,-1,21
 92 443 92 443 134 467.5 c 128,-1,22
 176 492 176 492 228 492 c 0,23,24
 283 492 283 492 323.5 472.5 c 128,-1,25
 364 453 364 453 391 423 c 128,-1,26
 418 393 418 393 446 348 c 1,27,28
 474 393 474 393 501 423.5 c 128,-1,29
 528 454 528 454 568.5 473.5 c 128,-1,30
 609 493 609 493 665 493 c 0,31,0
 717 493 717 493 759 468.5 c 128,-1,1
761 206 m 128,-1,33
 799 245 799 245 799 304 c 0,34,35
 799 364 799 364 761 403 c 128,-1,36
 723 442 723 442 665 442 c 0,37,38
 617 442 617 442 582 423.5 c 128,-1,39
 547 405 547 405 523 376.5 c 128,-1,40
 499 348 499 348 473 304 c 1,41,42
 499 260 499 260 523 231.5 c 128,-1,43
 547 203 547 203 582 185 c 128,-1,44
 617 167 617 167 665 167 c 0,45,32
 723 167 723 167 761 206 c 128,-1,33
338.5 202.5 m 128,-1,47
 380 238 380 238 420 305 c 1,48,49
 394 348 394 348 370 376.5 c 128,-1,50
 346 405 346 405 311 423 c 128,-1,51
 276 441 276 441 228 441 c 0,52,53
 170 441 170 441 132 402 c 128,-1,54
 94 363 94 363 94 303 c 0,55,56
 94 244 94 244 132 205.5 c 128,-1,57
 170 167 170 167 228 167 c 0,58,46
 297 167 297 167 338.5 202.5 c 128,-1,47
EndSplineSet
EndChar

StartChar: integral
Encoding: 8747 8747 687
Width: 304
Flags: W
LayerCount: 2
Fore
SplineSet
243 780 m 0,1,2
 204 780 204 780 187.5 750 c 128,-1,3
 171 720 171 720 171 647 c 0,4,5
 171 592 171 592 175 497.5 c 128,-1,6
 179 403 179 403 180 368 c 0,7,8
 190 152 190 152 190 73 c 0,9,10
 190 -30 190 -30 162.5 -74 c 128,-1,11
 135 -118 135 -118 70 -118 c 0,12,13
 50 -118 50 -118 34 -114 c 128,-1,14
 18 -110 18 -110 1 -101 c 1,15,-1
 13 -53 l 1,16,17
 38 -67 38 -67 63 -67 c 0,18,19
 103 -67 103 -67 120 -35.5 c 128,-1,20
 137 -4 137 -4 137 69 c 0,21,22
 137 148 137 148 127 364 c 0,23,24
 117 572 117 572 117 642 c 0,25,26
 117 745 117 745 144.5 789 c 128,-1,27
 172 833 172 833 237 833 c 0,28,29
 265 833 265 833 301 817 c 1,30,-1
 289 769 l 1,31,0
 268 780 268 780 243 780 c 0,1,2
EndSplineSet
EndChar

StartChar: approxequal
Encoding: 8776 8776 688
Width: 489
Flags: W
LayerCount: 2
Fore
SplineSet
394 404 m 128,-1,1
 373 376 373 376 332 376 c 0,2,3
 308 376 308 376 286 385.5 c 128,-1,4
 264 395 264 395 236 412 c 0,5,6
 214 426 214 426 198.5 433 c 128,-1,7
 183 440 183 440 169 440 c 0,8,9
 147 440 147 440 135.5 425.5 c 128,-1,10
 124 411 124 411 124 384 c 1,11,-1
 75 384 l 1,12,13
 75 437 75 437 96.5 465.5 c 128,-1,14
 118 494 118 494 158 494 c 0,15,16
 180 494 180 494 201 485 c 128,-1,17
 222 476 222 476 251 459 c 0,18,19
 275 445 275 445 291 437.5 c 128,-1,20
 307 430 307 430 321 430 c 0,21,22
 343 430 343 430 354.5 444.5 c 128,-1,23
 366 459 366 459 366 485 c 1,24,-1
 415 485 l 1,25,0
 415 432 415 432 394 404 c 128,-1,1
394 194 m 128,-1,27
 373 166 373 166 332 166 c 0,28,29
 308 166 308 166 286 175.5 c 128,-1,30
 264 185 264 185 236 202 c 0,31,32
 212 216 212 216 197.5 222.5 c 128,-1,33
 183 229 183 229 169 229 c 0,34,35
 147 229 147 229 135.5 215 c 128,-1,36
 124 201 124 201 124 174 c 1,37,-1
 75 174 l 1,38,39
 75 227 75 227 96 255 c 128,-1,40
 117 283 117 283 158 283 c 0,41,42
 180 283 180 283 201 274 c 128,-1,43
 222 265 222 265 251 248 c 0,44,45
 275 234 275 234 291 226.5 c 128,-1,46
 307 219 307 219 321 219 c 0,47,48
 343 219 343 219 354.5 233.5 c 128,-1,49
 366 248 366 248 366 275 c 1,50,-1
 415 275 l 1,51,26
 415 222 415 222 394 194 c 128,-1,27
EndSplineSet
EndChar

StartChar: notequal
Encoding: 8800 8800 689
Width: 489
Flags: W
LayerCount: 2
Fore
SplineSet
452 400 m 1,0,-1
 290 400 l 1,1,-1
 241 244 l 1,2,-1
 452 244 l 1,3,-1
 452 195 l 1,4,-1
 225 195 l 1,5,-1
 176 40 l 1,6,-1
 122 40 l 1,7,-1
 171 195 l 1,8,-1
 38 195 l 1,9,-1
 38 244 l 1,10,-1
 187 244 l 1,11,-1
 237 400 l 1,12,-1
 38 400 l 1,13,-1
 38 449 l 1,14,-1
 252 449 l 1,15,-1
 300 599 l 1,16,-1
 353 599 l 1,17,-1
 306 449 l 1,18,-1
 452 449 l 1,19,-1
 452 400 l 1,0,-1
EndSplineSet
EndChar

StartChar: lessequal
Encoding: 8804 8804 690
Width: 489
Flags: W
LayerCount: 2
Fore
SplineSet
452 599 m 1,0,-1
 452 545 l 1,1,-1
 86 384 l 1,2,-1
 452 223 l 1,3,-1
 452 170 l 1,4,-1
 38 353 l 1,5,-1
 38 415 l 1,6,-1
 452 599 l 1,0,-1
38 87 m 1,7,-1
 452 87 l 1,8,-1
 452 38 l 1,9,-1
 38 38 l 1,10,-1
 38 87 l 1,7,-1
EndSplineSet
EndChar

StartChar: greaterequal
Encoding: 8805 8805 691
Width: 489
Flags: W
LayerCount: 2
Fore
SplineSet
37 172 m 1,0,-1
 37 225 l 1,1,-1
 403 386 l 1,2,-1
 37 547 l 1,3,-1
 37 601 l 1,4,-1
 451 418 l 1,5,-1
 451 356 l 1,6,-1
 37 172 l 1,0,-1
38 87 m 1,7,-1
 452 87 l 1,8,-1
 452 38 l 1,9,-1
 38 38 l 1,10,-1
 38 87 l 1,7,-1
EndSplineSet
EndChar

StartChar: filledbox
Encoding: 9632 9632 692
Width: 600
Flags: W
LayerCount: 2
Fore
SplineSet
106 459 m 1,0,-1
 494 459 l 1,1,-1
 494 71 l 1,2,-1
 106 71 l 1,3,-1
 106 459 l 1,0,-1
EndSplineSet
EndChar

StartChar: uni25A1
Encoding: 9633 9633 693
Width: 600
Flags: W
LayerCount: 2
Fore
SplineSet
106 459 m 1,0,-1
 494 459 l 1,1,-1
 494 71 l 1,2,-1
 106 71 l 1,3,-1
 106 459 l 1,0,-1
153 411 m 1,4,-1
 153 119 l 1,5,-1
 447 119 l 1,6,-1
 447 411 l 1,7,-1
 153 411 l 1,4,-1
EndSplineSet
EndChar

StartChar: triagup
Encoding: 9650 9650 694
Width: 600
Flags: W
LayerCount: 2
Fore
SplineSet
300 478 m 1,0,-1
 513 52 l 1,1,-1
 87 52 l 1,2,-1
 300 478 l 1,0,-1
EndSplineSet
EndChar

StartChar: uni25B3
Encoding: 9651 9651 695
Width: 600
Flags: W
LayerCount: 2
Fore
SplineSet
300 478 m 1,0,-1
 513 52 l 1,1,-1
 87 52 l 1,2,-1
 300 478 l 1,0,-1
300 375 m 1,3,-1
 160 98 l 1,4,-1
 440 98 l 1,5,-1
 300 375 l 1,3,-1
EndSplineSet
EndChar

StartChar: uni25B6
Encoding: 9654 9654 696
Width: 600
Flags: W
LayerCount: 2
Fore
SplineSet
541 266 m 1,0,-1
 115 53 l 1,1,-1
 115 479 l 1,2,-1
 541 266 l 1,0,-1
EndSplineSet
EndChar

StartChar: uni25B7
Encoding: 9655 9655 697
Width: 600
Flags: W
LayerCount: 2
Fore
SplineSet
541 266 m 1,0,-1
 115 53 l 1,1,-1
 115 479 l 1,2,-1
 541 266 l 1,0,-1
438 266 m 1,3,-1
 161 406 l 1,4,-1
 161 126 l 1,5,-1
 438 266 l 1,3,-1
EndSplineSet
EndChar

StartChar: triagdn
Encoding: 9660 9660 698
Width: 600
Flags: W
LayerCount: 2
Fore
SplineSet
300 52 m 1,0,-1
 87 478 l 1,1,-1
 513 478 l 1,2,-1
 300 52 l 1,0,-1
EndSplineSet
EndChar

StartChar: uni25BD
Encoding: 9661 9661 699
Width: 600
Flags: W
LayerCount: 2
Fore
SplineSet
300 52 m 1,0,-1
 87 478 l 1,1,-1
 513 478 l 1,2,-1
 300 52 l 1,0,-1
300 155 m 1,3,-1
 440 432 l 1,4,-1
 160 432 l 1,5,-1
 300 155 l 1,3,-1
EndSplineSet
EndChar

StartChar: uni25C0
Encoding: 9664 9664 700
Width: 601
Flags: W
LayerCount: 2
Fore
SplineSet
58 265 m 1,0,-1
 484 478 l 1,1,-1
 484 52 l 1,2,-1
 58 265 l 1,0,-1
EndSplineSet
EndChar

StartChar: uni25C1
Encoding: 9665 9665 701
Width: 600
Flags: W
LayerCount: 2
Fore
SplineSet
58 265 m 1,0,-1
 484 478 l 1,1,-1
 484 52 l 1,2,-1
 58 265 l 1,0,-1
161 265 m 1,3,-1
 438 125 l 1,4,-1
 438 405 l 1,5,-1
 161 265 l 1,3,-1
EndSplineSet
EndChar

StartChar: uni25C6
Encoding: 9670 9670 702
Width: 600
Flags: W
LayerCount: 2
Fore
SplineSet
300 540 m 1,0,-1
 574 265 l 1,1,-1
 300 -9 l 1,2,-1
 25 265 l 1,3,-1
 300 540 l 1,0,-1
EndSplineSet
EndChar

StartChar: uni25C7
Encoding: 9671 9671 703
Width: 600
Flags: W
LayerCount: 2
Fore
SplineSet
300 540 m 1,0,-1
 574 265 l 1,1,-1
 300 -9 l 1,2,-1
 25 265 l 1,3,-1
 300 540 l 1,0,-1
299 472 m 1,4,-1
 92 266 l 1,5,-1
 300 58 l 1,6,-1
 507 265 l 1,7,-1
 299 472 l 1,4,-1
EndSplineSet
EndChar

StartChar: lozenge
Encoding: 9674 9674 704
Width: 518
Flags: W
LayerCount: 2
Fore
SplineSet
259 651 m 1,0,-1
 474 330 l 1,1,-1
 258 6 l 1,2,-1
 44 330 l 1,3,-1
 259 651 l 1,0,-1
259 552 m 1,4,-1
 109 330 l 1,5,-1
 258 107 l 1,6,-1
 409 330 l 1,7,-1
 259 552 l 1,4,-1
EndSplineSet
EndChar

StartChar: uniA78B
Encoding: 42891 42891 705
Width: 238
Flags: W
LayerCount: 2
Fore
SplineSet
85 700 m 1,0,-1
 154 700 l 1,1,-1
 147 300 l 1,2,-1
 85 300 l 1,3,-1
 85 700 l 1,0,-1
EndSplineSet
EndChar

StartChar: uniA78C
Encoding: 42892 42892 706
Width: 237
Flags: W
LayerCount: 2
Fore
SplineSet
86 649 m 1,0,-1
 153 649 l 1,1,-1
 145 300 l 1,2,-1
 85 300 l 1,3,-1
 86 649 l 1,0,-1
EndSplineSet
Substitution2: "<3,3> Small Caps in Latin lookup 11 subtable" uniA78C.sc
EndChar

StartChar: A.ss01
Encoding: 65538 -1 709
Width: 768
Flags: W
LayerCount: 2
Fore
SplineSet
171 628 m 128,-1,1
 248 705 248 705 384 705 c 256,2,3
 520 705 520 705 597 628 c 128,-1,4
 674 551 674 551 674 415 c 2,5,-1
 674 0 l 1,6,-1
 605 0 l 1,7,-1
 605 207 l 1,8,-1
 163 207 l 1,9,-1
 163 0 l 1,10,-1
 94 0 l 1,11,-1
 94 415 l 2,12,0
 94 551 94 551 171 628 c 128,-1,1
546.5 582.5 m 128,-1,14
 488 643 488 643 384 643 c 256,15,16
 280 643 280 643 221.5 582.5 c 128,-1,17
 163 522 163 522 163 415 c 2,18,-1
 163 269 l 1,19,-1
 605 269 l 1,20,-1
 605 415 l 2,21,13
 605 522 605 522 546.5 582.5 c 128,-1,14
EndSplineSet
EndChar

StartChar: Adieresis.alt
Encoding: 65553 -1 724
Width: 712
Flags: W
LayerCount: 2
Fore
SplineSet
152.5 630 m 128,-1,1
 140 643 140 643 140 661 c 0,2,3
 140 680 140 680 152.5 692.5 c 128,-1,4
 165 705 165 705 184 705 c 0,5,6
 202 705 202 705 214.5 692.5 c 128,-1,7
 227 680 227 680 227 661 c 0,8,9
 227 643 227 643 214.5 630 c 128,-1,10
 202 617 202 617 184 617 c 0,11,0
 165 617 165 617 152.5 630 c 128,-1,1
498.5 630 m 128,-1,13
 486 643 486 643 486 661 c 0,14,15
 486 680 486 680 498.5 692.5 c 128,-1,16
 511 705 511 705 530 705 c 0,17,18
 548 705 548 705 560.5 692.5 c 128,-1,19
 573 680 573 680 573 661 c 0,20,21
 573 643 573 643 560.5 630 c 128,-1,22
 548 617 548 617 530 617 c 0,23,12
 511 617 511 617 498.5 630 c 128,-1,13
632 0 m 1,24,-1
 549 186 l 1,25,-1
 161 186 l 1,26,-1
 79 0 l 1,27,-1
 5 0 l 1,28,-1
 320 699 l 1,29,-1
 392 699 l 1,30,-1
 707 0 l 1,31,-1
 632 0 l 1,24,-1
188 248 m 1,32,-1
 522 248 l 1,33,-1
 354 626 l 1,34,-1
 188 248 l 1,32,-1
EndSplineSet
EndChar

StartChar: Aogonek.ss01
Encoding: 65560 -1 731
Width: 768
Flags: W
LayerCount: 2
Fore
SplineSet
594.5 -66.5 m 128,-1,1
 570 -94 570 -94 570 -122 c 0,2,3
 570 -143 570 -143 580.5 -153 c 128,-1,4
 591 -163 591 -163 609 -163 c 0,5,6
 632 -163 632 -163 655 -149 c 1,7,-1
 673 -194 l 1,8,9
 637 -215 637 -215 596 -215 c 256,10,11
 555 -215 555 -215 531 -193.5 c 128,-1,12
 507 -172 507 -172 507 -133 c 0,13,14
 507 -96 507 -96 530.5 -61.5 c 128,-1,15
 554 -27 554 -27 605 8 c 1,16,-1
 605 207 l 1,17,-1
 163 207 l 1,18,-1
 163 0 l 1,19,-1
 94 0 l 1,20,-1
 94 415 l 2,21,22
 94 551 94 551 171 628 c 128,-1,23
 248 705 248 705 384 705 c 256,24,25
 520 705 520 705 597 628 c 128,-1,26
 674 551 674 551 674 415 c 2,27,-1
 674 0 l 1,28,0
 619 -39 619 -39 594.5 -66.5 c 128,-1,1
605 269 m 1,29,-1
 605 415 l 2,30,31
 605 522 605 522 546.5 582.5 c 128,-1,32
 488 643 488 643 384 643 c 256,33,34
 280 643 280 643 221.5 582.5 c 128,-1,35
 163 522 163 522 163 415 c 2,36,-1
 163 269 l 1,37,-1
 605 269 l 1,29,-1
EndSplineSet
EndChar

StartChar: E.ss01
Encoding: 65566 -1 737
Width: 562
Flags: W
LayerCount: 2
Fore
SplineSet
216.5 320 m 128,-1,1
 170 302 170 302 144 270 c 128,-1,2
 118 238 118 238 118 197 c 256,3,4
 118 156 118 156 144.5 123.5 c 128,-1,5
 171 91 171 91 217 73 c 128,-1,6
 263 55 263 55 321 55 c 0,7,8
 367 55 367 55 423 69 c 128,-1,9
 479 83 479 83 518 104 c 1,10,-1
 546 50 l 1,11,12
 503 26 503 26 439 10 c 128,-1,13
 375 -6 375 -6 316 -6 c 0,14,15
 238 -6 238 -6 177 19 c 128,-1,16
 116 44 116 44 81.5 88.5 c 128,-1,17
 47 133 47 133 47 189 c 0,18,19
 47 257 47 257 97 307.5 c 128,-1,20
 147 358 147 358 226 371 c 1,21,22
 162 384 162 384 121 428 c 128,-1,23
 80 472 80 472 80 529 c 0,24,25
 80 580 80 580 110.5 620.5 c 128,-1,26
 141 661 141 661 196 683.5 c 128,-1,27
 251 706 251 706 322 706 c 0,28,29
 372 706 372 706 426 694.5 c 128,-1,30
 480 683 480 683 515 666 c 1,31,-1
 490 612 l 1,32,33
 458 627 458 627 413 636.5 c 128,-1,34
 368 646 368 646 327 646 c 0,35,36
 274 646 274 646 233 629.5 c 128,-1,37
 192 613 192 613 169 584 c 128,-1,38
 146 555 146 555 146 518 c 0,39,40
 146 464 146 464 195.5 431 c 128,-1,41
 245 398 245 398 321 398 c 2,42,-1
 449 398 l 1,43,-1
 449 338 l 1,44,-1
 321 338 l 2,45,0
 263 338 263 338 216.5 320 c 128,-1,1
EndSplineSet
EndChar

StartChar: uni1E1C.ss01
Encoding: 65570 -1 741
Width: 562
Flags: W
LayerCount: 2
Fore
SplineSet
217 801.5 m 128,-1,1
 182 836 182 836 180 890 c 1,2,-1
 229 890 l 1,3,4
 231 858 231 858 251.5 836.5 c 128,-1,5
 272 815 272 815 303 815 c 256,6,7
 334 815 334 815 354.5 836.5 c 128,-1,8
 375 858 375 858 377 890 c 1,9,-1
 426 890 l 1,10,11
 425 836 425 836 390 801.5 c 128,-1,12
 355 767 355 767 303 767 c 0,13,0
 252 767 252 767 217 801.5 c 128,-1,1
392.5 -79 m 128,-1,15
 413 -101 413 -101 413 -130 c 0,16,17
 413 -168 413 -168 384.5 -192 c 128,-1,18
 356 -216 356 -216 310 -216 c 0,19,20
 289 -216 289 -216 266 -210 c 128,-1,21
 243 -204 243 -204 225 -194 c 1,22,-1
 241 -151 l 1,23,24
 254 -158 254 -158 271 -162.5 c 128,-1,25
 288 -167 288 -167 303 -167 c 0,26,27
 329 -167 329 -167 343.5 -154 c 128,-1,28
 358 -141 358 -141 358 -124 c 0,29,30
 358 -108 358 -108 343.5 -96.5 c 128,-1,31
 329 -85 329 -85 304 -85 c 2,32,-1
 274 -85 l 1,33,-1
 298 -6 l 1,34,35
 225 -3 225 -3 168 22.5 c 128,-1,36
 111 48 111 48 79 91.5 c 128,-1,37
 47 135 47 135 47 189 c 0,38,39
 47 257 47 257 97 307.5 c 128,-1,40
 147 358 147 358 226 371 c 1,41,42
 162 384 162 384 121 428 c 128,-1,43
 80 472 80 472 80 529 c 0,44,45
 80 580 80 580 110.5 620.5 c 128,-1,46
 141 661 141 661 196 683.5 c 128,-1,47
 251 706 251 706 322 706 c 0,48,49
 372 706 372 706 426 694.5 c 128,-1,50
 480 683 480 683 515 666 c 1,51,-1
 490 612 l 1,52,53
 458 627 458 627 413 636.5 c 128,-1,54
 368 646 368 646 327 646 c 0,55,56
 274 646 274 646 233 629.5 c 128,-1,57
 192 613 192 613 169 584 c 128,-1,58
 146 555 146 555 146 518 c 0,59,60
 146 464 146 464 195.5 431 c 128,-1,61
 245 398 245 398 321 398 c 2,62,-1
 449 398 l 1,63,-1
 449 338 l 1,64,-1
 321 338 l 2,65,66
 263 338 263 338 216.5 320 c 128,-1,67
 170 302 170 302 144 270 c 128,-1,68
 118 238 118 238 118 197 c 256,69,70
 118 156 118 156 144.5 123.5 c 128,-1,71
 171 91 171 91 217 73 c 128,-1,72
 263 55 263 55 321 55 c 0,73,74
 367 55 367 55 423 69 c 128,-1,75
 479 83 479 83 518 104 c 1,76,-1
 546 50 l 1,77,78
 509 29 509 29 455 14 c 128,-1,79
 401 -1 401 -1 347 -5 c 1,80,-1
 332 -53 l 1,81,14
 372 -57 372 -57 392.5 -79 c 128,-1,15
EndSplineSet
EndChar

StartChar: Eogonek.ss01
Encoding: 65587 -1 758
Width: 562
Flags: W
LayerCount: 2
Fore
SplineSet
512 -149 m 1,1,-1
 530 -194 l 1,2,3
 492 -215 492 -215 453 -215 c 0,4,5
 412 -215 412 -215 388 -191 c 128,-1,6
 364 -167 364 -167 364 -126 c 0,7,8
 364 -62 364 -62 434 9 c 1,9,10
 376 -6 376 -6 316 -6 c 0,11,12
 238 -6 238 -6 177 19 c 128,-1,13
 116 44 116 44 81.5 88.5 c 128,-1,14
 47 133 47 133 47 189 c 0,15,16
 47 257 47 257 97 307.5 c 128,-1,17
 147 358 147 358 226 371 c 1,18,19
 162 384 162 384 121 428 c 128,-1,20
 80 472 80 472 80 529 c 0,21,22
 80 580 80 580 110.5 620.5 c 128,-1,23
 141 661 141 661 196 683.5 c 128,-1,24
 251 706 251 706 322 706 c 0,25,26
 372 706 372 706 426 694.5 c 128,-1,27
 480 683 480 683 515 666 c 1,28,-1
 490 612 l 1,29,30
 458 627 458 627 413 636.5 c 128,-1,31
 368 646 368 646 327 646 c 0,32,33
 274 646 274 646 233 629.5 c 128,-1,34
 192 613 192 613 169 584 c 128,-1,35
 146 555 146 555 146 518 c 0,36,37
 146 464 146 464 195.5 431 c 128,-1,38
 245 398 245 398 321 398 c 2,39,-1
 449 398 l 1,40,-1
 449 338 l 1,41,-1
 321 338 l 2,42,43
 263 338 263 338 216.5 320 c 128,-1,44
 170 302 170 302 144 270 c 128,-1,45
 118 238 118 238 118 197 c 256,46,47
 118 156 118 156 144.5 123.5 c 128,-1,48
 171 91 171 91 217 73 c 128,-1,49
 263 55 263 55 321 55 c 0,50,51
 367 55 367 55 423 69 c 128,-1,52
 479 83 479 83 518 104 c 1,53,-1
 546 50 l 1,54,-1
 532 43 l 1,55,56
 484 1 484 1 455.5 -43 c 128,-1,57
 427 -87 427 -87 427 -120 c 0,58,59
 427 -141 427 -141 437.5 -152 c 128,-1,60
 448 -163 448 -163 466 -163 c 0,61,0
 490 -163 490 -163 512 -149 c 1,1,-1
EndSplineSet
EndChar

StartChar: F.ss01
Encoding: 65589 -1 760
Width: 511
Flags: W
LayerCount: 2
Fore
SplineSet
202.5 599 m 128,-1,1
 162 558 162 558 162 489 c 2,2,-1
 162 359 l 1,3,-1
 446 359 l 1,4,-1
 446 297 l 1,5,-1
 162 297 l 1,6,-1
 162 0 l 1,7,-1
 94 0 l 1,8,-1
 94 490 l 2,9,10
 94 587 94 587 151.5 644.5 c 128,-1,11
 209 702 209 702 306 702 c 0,12,13
 357 702 357 702 409 690.5 c 128,-1,14
 461 679 461 679 502 660 c 1,15,-1
 483 599 l 1,16,17
 445 617 445 617 398 628.5 c 128,-1,18
 351 640 351 640 311 640 c 0,19,0
 243 640 243 640 202.5 599 c 128,-1,1
EndSplineSet
EndChar

StartChar: G.ss01
Encoding: 65590 -1 761
Width: 755
Flags: W
LayerCount: 2
Fore
SplineSet
601 349 m 1,0,-1
 662 349 l 1,1,-1
 662 0 l 1,2,-1
 608 0 l 1,3,-1
 608 73 l 1,4,5
 564 36 564 36 510 15 c 128,-1,6
 456 -6 456 -6 400 -6 c 0,7,8
 302 -6 302 -6 220 42 c 128,-1,9
 138 90 138 90 90 172 c 128,-1,10
 42 254 42 254 42 351 c 256,11,12
 42 448 42 448 91 529 c 128,-1,13
 140 610 140 610 224.5 657.5 c 128,-1,14
 309 705 309 705 409 705 c 0,15,16
 480 705 480 705 546.5 680 c 128,-1,17
 613 655 613 655 664 610 c 1,18,-1
 624 561 l 1,19,20
 581 601 581 601 525.5 622.5 c 128,-1,21
 470 644 470 644 409 644 c 0,22,23
 328 644 328 644 260 604.5 c 128,-1,24
 192 565 192 565 152 498 c 128,-1,25
 112 431 112 431 112 351 c 0,26,27
 112 270 112 270 151.5 202.5 c 128,-1,28
 191 135 191 135 258.5 95.5 c 128,-1,29
 326 56 326 56 406 56 c 0,30,31
 461 56 461 56 512 78 c 128,-1,32
 563 100 563 100 601 140 c 1,33,-1
 601 349 l 1,0,-1
EndSplineSet
EndChar

StartChar: I.ss01
Encoding: 65597 -1 768
Width: 466
Flags: W
LayerCount: 2
Fore
SplineSet
411 637 m 1,0,-1
 268 637 l 1,1,-1
 268 62 l 1,2,-1
 411 62 l 1,3,-1
 411 0 l 1,4,-1
 56 0 l 1,5,-1
 56 62 l 1,6,-1
 199 62 l 1,7,-1
 199 637 l 1,8,-1
 56 637 l 1,9,-1
 56 700 l 1,10,-1
 411 700 l 1,11,-1
 411 637 l 1,0,-1
EndSplineSet
EndChar

StartChar: Iogonek.ss01
Encoding: 65613 -1 784
Width: 466
Flags: W
LayerCount: 2
Fore
SplineSet
268 637 m 1,0,-1
 268 62 l 1,1,-1
 411 62 l 1,2,-1
 411 0 l 1,3,-1
 268 0 l 1,4,5
 213 -39 213 -39 188.5 -66.5 c 128,-1,6
 164 -94 164 -94 164 -122 c 0,7,8
 164 -143 164 -143 174.5 -153 c 128,-1,9
 185 -163 185 -163 203 -163 c 0,10,11
 226 -163 226 -163 249 -149 c 1,12,-1
 267 -194 l 1,13,14
 231 -215 231 -215 190 -215 c 256,15,16
 149 -215 149 -215 125 -193.5 c 128,-1,17
 101 -172 101 -172 101 -133 c 0,18,19
 101 -64 101 -64 188 0 c 1,20,-1
 56 0 l 1,21,-1
 56 62 l 1,22,-1
 199 62 l 1,23,-1
 199 637 l 1,24,-1
 56 637 l 1,25,-1
 56 700 l 1,26,-1
 411 700 l 1,27,-1
 411 637 l 1,28,-1
 268 637 l 1,0,-1
EndSplineSet
EndChar

StartChar: J.ss01
Encoding: 65615 -1 786
Width: 479
Flags: W
LayerCount: 2
Fore
SplineSet
334 -48.5 m 128,-1,1
 283 -103 283 -103 190 -103 c 0,2,3
 134 -103 134 -103 85.5 -77.5 c 128,-1,4
 37 -52 37 -52 1 -4 c 1,5,-1
 36 48 l 1,6,7
 68 7 68 7 108 -14.5 c 128,-1,8
 148 -36 148 -36 190 -36 c 0,9,10
 251 -36 251 -36 283.5 1 c 128,-1,11
 316 38 316 38 316 108 c 2,12,-1
 316 637 l 1,13,-1
 64 637 l 1,14,-1
 64 700 l 1,15,-1
 385 700 l 1,16,-1
 385 106 l 2,17,0
 385 6 385 6 334 -48.5 c 128,-1,1
EndSplineSet
EndChar

StartChar: M.ss01
Encoding: 65620 -1 791
Width: 1211
Flags: W
LayerCount: 2
Fore
SplineSet
1006 672.5 m 128,-1,1
 1059 640 1059 640 1088.5 582 c 128,-1,2
 1118 524 1118 524 1118 450 c 2,3,-1
 1118 0 l 1,4,-1
 1048 0 l 1,5,-1
 1048 436 l 2,6,7
 1048 495 1048 495 1025 541.5 c 128,-1,8
 1002 588 1002 588 960.5 614 c 128,-1,9
 919 640 919 640 867 640 c 0,10,11
 805 640 805 640 755 608.5 c 128,-1,12
 705 577 705 577 676.5 523 c 128,-1,13
 648 469 648 469 648 405 c 2,14,-1
 648 0 l 1,15,-1
 578 0 l 1,16,-1
 579 436 l 2,17,18
 579 495 579 495 555.5 541.5 c 128,-1,19
 532 588 532 588 490.5 614 c 128,-1,20
 449 640 449 640 397 640 c 0,21,22
 335 640 335 640 285 608.5 c 128,-1,23
 235 577 235 577 207 523.5 c 128,-1,24
 179 470 179 470 179 405 c 2,25,-1
 179 0 l 1,26,-1
 110 0 l 1,27,-1
 110 705 l 1,28,-1
 179 705 l 1,29,-1
 179 568 l 1,30,31
 214 632 214 632 276.5 668.5 c 128,-1,32
 339 705 339 705 418 705 c 0,33,34
 496 705 496 705 554 660 c 128,-1,35
 612 615 612 615 635 540 c 1,36,37
 666 616 666 616 732.5 660.5 c 128,-1,38
 799 705 799 705 887 705 c 0,39,0
 953 705 953 705 1006 672.5 c 128,-1,1
EndSplineSet
EndChar

StartChar: N.ss01
Encoding: 65622 -1 793
Width: 781
Flags: W
LayerCount: 2
Fore
SplineSet
567.5 672.5 m 128,-1,1
 624 640 624 640 655.5 582 c 128,-1,2
 687 524 687 524 687 450 c 2,3,-1
 687 0 l 1,4,-1
 617 0 l 1,5,-1
 618 436 l 2,6,7
 618 495 618 495 592.5 541.5 c 128,-1,8
 567 588 567 588 522 614 c 128,-1,9
 477 640 477 640 420 640 c 0,10,11
 351 640 351 640 296 608.5 c 128,-1,12
 241 577 241 577 210 523 c 128,-1,13
 179 469 179 469 179 405 c 2,14,-1
 179 0 l 1,15,-1
 110 0 l 1,16,-1
 110 700 l 1,17,-1
 179 700 l 1,18,-1
 179 563 l 1,19,20
 216 629 216 629 284.5 667 c 128,-1,21
 353 705 353 705 440 705 c 0,22,0
 511 705 511 705 567.5 672.5 c 128,-1,1
EndSplineSet
EndChar

StartChar: Eng.ss01
Encoding: 65629 -1 800
Width: 781
Flags: W
LayerCount: 2
Fore
SplineSet
567.5 666.5 m 128,-1,1
 624 634 624 634 655.5 576.5 c 128,-1,2
 687 519 687 519 687 445 c 2,3,-1
 687 0 l 2,4,5
 687 -94 687 -94 635 -147 c 128,-1,6
 583 -200 583 -200 492 -200 c 0,7,8
 437 -200 437 -200 390 -177 c 128,-1,9
 343 -154 343 -154 307 -111 c 1,10,-1
 342 -59 l 1,11,12
 374 -95 374 -95 412.5 -114 c 128,-1,13
 451 -133 451 -133 491 -133 c 0,14,15
 549 -133 549 -133 582 -99 c 128,-1,16
 615 -65 615 -65 618 0 c 1,17,-1
 617 0 l 1,18,-1
 617 431 l 2,19,20
 617 489 617 489 592 535.5 c 128,-1,21
 567 582 567 582 522 608 c 128,-1,22
 477 634 477 634 420 634 c 0,23,24
 355 633 355 633 302 605 c 128,-1,25
 249 577 249 577 216.5 529 c 128,-1,26
 184 481 184 481 179 421 c 1,27,-1
 179 0 l 1,28,-1
 110 0 l 1,29,-1
 110 699 l 1,30,-1
 179 699 l 1,31,-1
 179 558 l 1,32,33
 216 623 216 623 284.5 660.5 c 128,-1,34
 353 698 353 698 440 699 c 0,35,0
 511 699 511 699 567.5 666.5 c 128,-1,1
EndSplineSet
EndChar

